<mxfile host="Electron" agent="Mozilla/5.0 (Macintosh; Intel Mac OS X 10_15_7) AppleWebKit/537.36 (KHTML, like Gecko) draw.io/24.7.5 Chrome/126.0.6478.183 Electron/31.3.0 Safari/537.36" version="24.7.5">
  <diagram id="fFhBadNZPSA6GtgQHTmR" name="Page-1">
    <mxGraphModel dx="3354" dy="1427" grid="0" gridSize="10" guides="1" tooltips="1" connect="1" arrows="1" fold="1" page="1" pageScale="1" pageWidth="827" pageHeight="1169" background="#ffffff" math="0" shadow="0">
      <root>
        <mxCell id="0" />
        <mxCell id="1" parent="0" />
        <mxCell id="7lQAio6a4aFPDC-sO7yj-1" value="DATABASE" style="shape=cylinder3;whiteSpace=wrap;html=1;boundedLbl=1;backgroundOutline=1;size=15;rounded=0;sketch=0;strokeColor=#9673a6;fillColor=#e1d5e7;" parent="1" vertex="1">
          <mxGeometry x="425.37" y="498.76" width="67.5" height="94" as="geometry" />
        </mxCell>
        <mxCell id="7lQAio6a4aFPDC-sO7yj-2" value="" style="shape=image;verticalLabelPosition=bottom;verticalAlign=top;aspect=fixed;imageAspect=0;image=https://miro.medium.com/max/6844/1*BmvPfSSm2G8C-khX1rhCGg.png;fillColor=#F2CC8F;strokeColor=#E07A5F;fontColor=#393C56;" parent="1" vertex="1">
          <mxGeometry x="356.37" y="576.76" width="106" height="55.24" as="geometry" />
        </mxCell>
        <mxCell id="7lQAio6a4aFPDC-sO7yj-9" style="edgeStyle=orthogonalEdgeStyle;rounded=0;orthogonalLoop=1;jettySize=auto;html=1;" parent="1" source="7lQAio6a4aFPDC-sO7yj-11" target="7lQAio6a4aFPDC-sO7yj-1" edge="1">
          <mxGeometry relative="1" as="geometry" />
        </mxCell>
        <mxCell id="e4YRFAi6MeH2XxkmIieU-6" value="Create Index&lt;div&gt;Create Rollover (default 14 days)&lt;/div&gt;&lt;div&gt;&lt;br&gt;&lt;/div&gt;" style="edgeLabel;html=1;align=center;verticalAlign=middle;resizable=0;points=[];" vertex="1" connectable="0" parent="7lQAio6a4aFPDC-sO7yj-9">
          <mxGeometry x="0.1551" y="-1" relative="1" as="geometry">
            <mxPoint x="-1" y="36" as="offset" />
          </mxGeometry>
        </mxCell>
        <mxCell id="7lQAio6a4aFPDC-sO7yj-11" value="Anaximenes" style="rounded=0;whiteSpace=wrap;html=1;fillColor=#bac8d3;strokeColor=#23445d;" parent="1" vertex="1">
          <mxGeometry x="423.87" y="803.2" width="69" height="33" as="geometry" />
        </mxCell>
        <mxCell id="7lQAio6a4aFPDC-sO7yj-12" value="" style="shape=image;verticalLabelPosition=bottom;verticalAlign=top;aspect=fixed;imageAspect=0;image=data:image/jpeg,/9j/4AAQSkZJRgABAQAAAQABAAD/2wCEAAoHCBYVFRgSFRUYGRgZGBwZHBkcHBgZHBoVGBwaGRoaGBgcIC4mHh8rHxgaJjgmLC8xNTU1HCQ7QDwzPy42NTEBDAwMEA8QHhISHjQhJSsxNDY0NDQ0NDQ3NDQ0NDQ9NDQ0NDQ/NDQ0NDQ0NDE0NDQ0NDQ0NDQ0NDQ0NDQ0NDQ0NP/AABEIAPAA0gMBIgACEQEDEQH/xAAcAAEAAgMBAQEAAAAAAAAAAAAABAYCAwUBBwj/xABEEAACAQIDBQYCCAMFBwUAAAABAgADEQQSIQUxQVFhBhMiMnGBUpEUI0JicoKhsQeSwVOiwtHSM0NUY7Pw8TRzg6Oy/8QAGQEBAAMBAQAAAAAAAAAAAAAAAAECAwQF/8QAJREBAQACAgIBBAIDAAAAAAAAAAECEQMhEjETBEFRYTJxFCJS/9oADAMBAAIRAxEAPwD7NERAREQEREBExJtqZwdo9rMNSuobvGH2U8WvIt5QfUwO/F58/wAX23rNcU6SIODMWc2/CMov7mcTGbYxFTz13t8KnIP7lj8yZPjVLnI+q1MSi73UepA/eZU6isLqwYcwQR8xPiGIw1M+J0Vj8TDN8yZ0uxGPOHxC2JFOq4Qpc5VDeFGCk2Bz29niywmcr7FERIXIiICIiAiIgIiICIiAiIgIiICIiAiJDx+NSihqVGsB7kngAN5J5CBLJlY2x2tp07pS+scaEg+FT1biegv1tKxtnb9XEErqlPggOrD77Df+Eaes5QAEtMfyyy5NekjaO0K2IP1zll+AeFB+UHX3vImQCbLzBwALk2HOX1Iytt9hmms6rqxty5k8gN5PSamxDNpTXT428vsN7ft1mS0QPEbs5Fsx5cgNwHQfrBr8tLIX1cWUbk58i/8Al+/DXjmKozjzIM6/iTxL+oElNNTi4K8DoZVaV9twlUMiuNzKCPQi83yv9hsV3mBw5JuVpim34qfgb9VMsEo6CIiAiIgIiICIiAiIgIiICIiAiIgaqrhVLE2ABJJ4Aakz5jtvajYioahJyC4ReS87fEd5+XCfSsbhhUpvTJIDqVJG8BhbSfHMfhq9Go9Cq4DKbqQls6X0dSWOnTgdPWcdbUz3rpI9JorYlE8zi/LefZRrIwpg+Znb1Nh8lsD7zOlTA0VVUdAB+0vthpsNV38i5B8T7/ZBr87TxMGL5nJcjUZtw9F3e++SESZkSdI21uZg0yaYOdII0O08XSDNdMamVXfQP4Z4m9GtSvqlZmA+7UAe/wDMWl2nyz+HuKyY16Z8tWkLfjQn/CZ9TlG8u49iIhJERAREQEREBERAREQEREBERAThdp9gJi6WXRai606lrlG/qp3EcRO7PDA+I1aTozU6iZHQ5XW99eanipGoP/iZJPofbDs936d9TH11MG24Z03mmx/UHgehM+dob6j/ACPoQdx6S+N2wzx0lIZkZqpNNt5dm1uJqcTewmp1kERmEwA3za4mFpC7DCYs0cThqw0CVlDHd4H8D39jPugnwpcC1c9wo1YWJ4KvFz0F/c2EvmG7aU8Opw1fvHrUmyXVCe8QAFKhY2UFlIvrvDTO2b02x9L1EpVH+IVM+bDYhdf+U2nOy1CZZ9lbUpYhO8pOGXceBVhvVlOqkcjCyfERAREQEREBERAREQEREBERAREQMSJ8x7ZbM7jEd4otTrknTctYasPzAZvUNzn0+cvtBspcTQeiTYkXVvhddVb2IEekWbmnykGxm8GRkzC6OtnRijryddD7cR0Im4PNZXNZpk5mJOkwdwN5kzAbPq1/9mlx8bXVB1zcfQXkZZSeyY2+kBpvwGzamIPgFk41GBy/l+M+mnMiWfA9mKaEGqe9fkRZB6Jx/MT7TvsgAAFunT0nPnzfbF0YcX5cvZ+zEoplRTc2ux1dzzY/sNwlQ7aBBiUCHxmmc45AN4CTz1eWPtB2iTD3poM9Yjwp8I+Jz9lZRKVBizO5zO5LO3Nj+wG4DkJXixyuXktnlJNMGoWUlc2YAkHMb39zYy8fw2rfX4hM3+7pOy8MxNRc3rZQPYSpXCgsxsBqTyE+j9hNjijSasbd5XIdrfZQCyIeoBJPUkcJ0Vnh3drZE8nsq0IiICIiAiIgIiICIiAiIgIiICImuo4UFibAAkk8AN5gUDtxsQrWTEpYLUIp1L3sG3U305nwn1WRsJ2XufHVJ6KuTTlckn9pz+0+3fpjWUkUB5Rqucjc7fuB7+nT2V2mp5FWqWV1ADHKSGIA8QIBGvKUz8pOkTwt/bt4HYlCmQy00JH2m8bezNe06lSottLkysV+1dJQcodyOSsL+hYAfrONiu1eIcZURKQ5nxvb08oPzmMwzyWtxn3XHHbRp0U7yq6ou7xEC55AcT0EqO1+1Lv4MPdU+Nh4jf4VPl9Tr0ErrUszmo7O7/G7Fj+Xgo6C0LVv5Bm+9uQW+8d/tebYcMn8lMuX/lkUCgsTvOZnY3JJ4sTNq1FRc7GwPPT00kNGZ2y00as44hGZFP3VUE+9ieoll2bskUmFSrh8RVqDUMaThE4HInA9TczaWRn4291hsnYT1WFaqMqDyUyNSeDv15Lw3791kobOenrRqGmb30AKE/eTcfUWMmYLFI+isLjepuHHqpsR8p0VQS0kqlyuP6acHtplsuJUJfQVFuUJ+9fye+nWd5SDrOM9G9xwPCc6pj3woCohqI7BEQsF7t2NguZvsHh8J03EWrljrtrhyeXVW2JxMM2NYAuMPT+79ZUPuQVH7yWMUyf7VQBp41N1udPEDquvHUdZntrp0IiJKCIiAiIgIiICIiAiIgJXu2zMMFVychm/9ssBU9smb2lhmFRQQQRcHQjpA+DM9mzEEgqApXWw4i3XnJSDTlLftrsrQOIp0qOaldXqPlN1CCyqqo11S7NfQbkYenp7Ep/xFb/6f9EvjusMtY3W1Jeq17KjMfYD5sRMKtRh5mRL7h52PoNBf5y+r2Ko/aao3q5X9EyzpYTs/Rp+RFU8SBqfVt5k+NV8sXznDbLqVbMEbL8dXRfy0xvPqB6yzdnuzS1mOds6UzlY7gXFiURenEm++wsbkWPH0lp03qHciMx9FBM4+3kqYbY7d1cOaal2XQhqjA1X6HxMb8JXLprx6yW3BYnDKe4ptTUj7ClQfkN86Qn5RxFdVFJ6LVe+8TOTZQr5vB3RU3tl334z9QbGLmhSNTzmmpf8RUXlJWtj3H7Np1gM66jyuNHU81Yag/vxnDw+JdKrYep50AZX4VKZ0D9GB0I567iJaZwu09AZUr7mp1FF+aVGFNlPS7K35BLY3VZ54yxJU3F5F2jhVqIyNuYWuN4PAg8wdfabcM3hnA7R9p1wzd0q5nyhtTZQDcC9tSdDpNrrXbmm99LRsTFGpRUt51JRuroSpI6G2YdDJzoCCCAQRYg7iDvBE+X7A7YutazqpSrVQMAGBUvkphlJJvwJFtdZ9TmFmnXjdx817N7exSbWrbLqMalJQxQsBmRAA6WbewysFN7m/GfS5xNnYemcViaoRc4KU2a3i0po+XNys66ek7ciLUiJGxGKRCqsbFjZRYm50HD1ElCTERAREQEREBERAREQK61O+LqueFOkg9jUY/8A7Hyk60juLYioOaU2/wCov+GSZth6cnL/ACpERLs3P25hy+HrU13tTdR6lSBOjs8JVw6ZlDI9NbqdQVZRoee+eTmbHxH0eocJU0VmLUG4ZSbmnfmCTYcvSZck+7o4cvcY4bsHgKdQVVw65gQygliqsNxCk2FpZ7RPZm3eSv8AbGp9QqDzVK1JVHOzq7f3UY+07ruACSbAaknlKZicZ9LxCsmtGlfI1tHqNoXXmoGgPHM0e7pGV1Np+IxfdU89rklUVfid2CIvS5I14SPtDsZTr+N6r96bZnFsthuUIRYKOHHmTJO1MKz0SqWDqUdL7s6OrqD0JUA+sxobZxDv3K4Xu6mXMS9RCgW9iwyXZteFh6iTyeW5pnxSWXftHwfYTDJdmzu32WZrZDwZAtgGHBt45zdsLtCXorTPjxKu9IqOJpO1M1X+BDlzXPoLmwnKpbWxteuuFWrh6ZdKzZhTdmRaNXuWy/WWZjvF7W5G0uGydmJhqa0qYNhvJ1ZmJuzOeLEkknrKTba6nTLZuE7tbE3djmdrWzOQAT6WAA5AAcJOnM21tHuKRqAZmuFVRclmPQamwuxtwUzDD42oyB1FOqhFwUbKSPuhrqfdhLIdWQtpVSqqdAM4DMRfItj4reoAvwzX4RTxyuGCauoJ7tro1+FwRcAnTNqPWNm1KjJequVrnhl8PC65mseG/hfS9oGeBqllJJvYkBrZcyjc1v0vuNrjQyXEQEREBERAREQERPDA4u0bLiKbXHjRkI4kr4109M8kSlYgNUr1augrU8QchcmyqjWFO41VXTl8d7HdO2naOkule9E7vH5D+GoPCfQkHpNsep25OSy5WR2omqhiUcZkdWB4qQRb2m2WUJrxFBXUo6hlPA/05HrNkRSIdJa9IWSoKijctW+YDl3g1P5gT1mDbWxO76PTB61G/wBE6E8lfCNJy5RwsRha+INsQwyf2SAqp/Gbkv6aDmJ08NhFQAAbt3SSokzGRW53L2xKyDjsK7MtSk4R1BUMVzqVaxKutwSLqDoQdJPMxaLN9UmVl3FV2JsN6GMpVqlbOzGogAXIqowqVXspJuWexJvwEv8AK7XrIlakzMFVc7EsQAAEy3JO7zTs/S0NM1VYMoUtmUgggC5sR6THKSXUdOGVym6gg95iGP2aICjl3rjMx9kKi/32ntfZSkl0ZqTnUslhmPNlIKsepBPWQMDtAqvdomep56hJyotR/GVL2NyM24A2GW9riZ4nH1UUu9SiijUkqzAfmLr+0r5Se2nx5XuNe06GIHdsaiErVphStNlezOoYZu8IClb5tN19OVmld2XiziGpMw0VTVJtlBzZkpHKSSMy5nsTcaSxSUdzqvYiICIiAiIgIiICeGeyJtHHJQptVqNlRBcnpApHaagPpqmk5pu1ItVsAytZlSlnTmfGLggkIOQmzCM5BWoFvuuvlcc8p1Hob7t5mvAU2qM+KdSHrENY70prpTQ+gJY9XadNEnVx42Y9vN585crpx32RTzZ0U034tSY0yfULo3uDJdDF4mnazrWUC1qgCP650GU+mT3EmtTE1MglrhGc5cokYfb6EhKoak50Ae2Un7ri6t6Xv0nXVgdRK3WpKRlZQykaggEH1Eg4d6mHYvRLOgGtAm+n/KY6g/dJsekpcbGuOcy99LpEibNx6V0FRGup9iGGhVgdQQdCDukuRF6SNtDE93Tepa+RGa34QT/SSZE2rSz0aifEjr81Iik9qTjts4lPGa9jxUImQHiAPNb1M5zdrsTVuhqooCFy1NQHsCBYliQu/lIOPxa1UUG2qjwEEsdLkZBqbcpDpdm8RU8YK0lIK5St2Kkg5io8u7d79Jlle+m2ON12zXab1XYVHFQI9lLnMyoyKRZbBc1z595l+7MvfZ+KI3Z64X+UA7vvXPvKPs/YRAVs4s7qL5dLM6optm5W+Vp9Wp7HWhg6mHQkkpUJY2BZ3DEsQNBqd3ASuXrtph3dz+nI2Zs4MatTvKi569W6q9l8Dsg0tp4UG60Y3B0lOTIWsMzsSzuEJyhULEkO7eEWt9o7xN+BZ0VxkbV3qK58KFKpNTMXOigFyCN/hOh0vK2JhO8IqEkorZgSMve1f7TKdQijRB0vwBmMxtvbqucmMkdTZGENNLvbO5zPbcCQAFHRVAHtedKImrEiIgIiICIiAiIgeSldrG7/ABFPCHyU1Fd1+NsxWmrdLqzewl1lIcE4zFOeD00H4VpI4/V2luObykrLnyuOFsS0FplmnnSY9Z3PJZsZgRCmYuTvgR2a4vI9DEKSQCLg2I62vb5EGc/ZeNvnoWZ6iO4KqCzZCxZCeQysupnmCwpGJqO6MhCoQrZdM4KlgFJ3hANevOY+c3JHR8dktvpPw+LGGrh7HJW8LhQSRWUEo4UC5zKCD+FeZljXaKEX8f8AI4/dZU9uI3dsyedBnX8aeNf1FveXrZdYPTV13MoYehF5z83JcMup7dPBjM8e/cQjtBOZ+TX+Vp59PU7lqN6Uqh/wztxaZf5F/Db4cVdfB5iSuHYE72IRL+tzm/SaMZRp0EapiKioqqWKoSWKqCTrbMdBuUA9ZaZwe2JUYSqp0NVRRuN/1pFPQ9AxPtKfLlldLTCY9qZhMGXFCklqbPUFQDKCECsaxUqpF1FguhG8S4bW2u9Kky1EUu4yUypOV6r2VVIOqG7A210B10nJ2Fsk1neqtR6YpgUkZMvm0aobMCrDRF3aFWnm0qbpWao9Z664WmaioVpopxNS6UUBUC7WzbzpnQzbPe9T0cU/13fd7dDZGF+kEo5zUcMVoqn2alWkozu/xBWsoU6XViQdLWyc7YuA7iglK92UXdt2aoxLVHNuLMWPvOjCxERAREQEREBERAREQPJUsQmXE4j7zo/saaLf5oflLaZUttkrjVHCpQuPxUn8X6VVl+O6yjD6ib46yvPGHCAZ7O15bEC2kMZ6DxngECLSJo1TXRM2ZcjquUMwGqsLkAldRbkx5AHWrtUqPXZSmcKiqSL5EzWJtpclm/STGE1sLCZfHj5eTb5srh4fZHxKgqQeKkfMTtdiyTgsMW3mihP8onDxz5Ueodyox+Sky27Jwwp0adMfYRV/lUCcn1f2df0fqpsRNdWsqjMzBRzJAH6zkdjZKT2wx2asmHQ3KeMjeO8ZSEzdFTO7cQMvMSwvtXMD3KGobXzeWn6modGH4c05PYfZ4aiuNqeOtXDOzndlc3ARbeFSoXrYKCTYTTine0ZTc024DbCUcOi08PiXUKMpWk16hOubXdmJzXNt8hKhaphaVRcr4iq+Lqo2/wCqVWRPVGNEf/HLGdnshvQYAf2beT8hGqe11+7Im0HVgpqK9J0bOtTLmVGAIJzLdcpBKkNa4J3G03Rt34nK2BtM16WdlykOyG2qsVNs6HijCxHrbhOrAREQEREBERAREQEREDyV3tYoUUaxsMlUJfmtUGnl/nKH8ssUqv8AEUH6ExW11qUWF+lVJM6u1c5vGxpzTMNNV+E8Z7Tu28fTa5gGY757aSh7aeuBa0wd7SDtHaApJnYFiTlRF1Z3O5VHP9tSdBItkTMbb09rp31anhF4kVKlvs0kYHX8bAL6ZuUvKiUTs539HvHagHq1SGdy4CqAPDTXQnKoJ4am54zrPjMW39lTHMZqh9gQvznm8sy5MtydPW4pjx4ybWa8gY6tQQq1UpmHlzZS2vBb68OEr1XDVXPjr1GHEAimPbIAf1kPFUhSASko72o2RNNWY8WO8gbyZWcN91b5Jeo7r1nxqtTpZqdElkaqRldgDlZaSnUG4ILm1uAO8dzD0FpotNQFVQFVRuCqLAD2EwwGFFKmlIblULfibC1z1MlS8xmPpfZERLIIiICIiAiIgIiICIiAiIgeSsduqoNGnQJ1rV6agcwjd6392mfnLI7gAk6AC5PSfPdoY36TiBiDcUqSstHf4y9g9UjqAAvQk/alsZuqcl1jUutiFUXPQAAEkngABvPSQ8RjHRkNShUUObLcDU6aebQ66A6mWbs/skr9fVH1h8oP+7Q8PxHj8uGvWx2GSojI6hlI1B/70PWaZct3058Ppp49+1N+mWGqVFPMo4HztaYDaF9Ajt6I5/ZZ2dktfC0XfxsyIbnecwvc9bTDZ2Jq1E7xcOSpZgpV08SBiA1mIte0jHm2jL6XX7co067+VAg4Fwf0QEH5kSVs/Y+V+8di72tnb7IO8Ig0QempsLk2nUY1f+HqE9Go/wBXmLVq40GEqH89AD3OeTcpfdTjxXH1G5UEwY3kZ6GOfy06CbvPUdj8kT+s209gVH/9RW0+CiGpg/icksfbLK3OLziyvtDxO0UQmmLu/BF5/ebcu7iZN7M7PBAxjNmeqgK7wtOm1mCIDrfdmJ1JHC1hyKOGTD5qNRcgDsUqHyOhJK3c/bsQDc3Nr6zudmcSvdmmCCEdlUjUFT4hY9M2X8sy8rbqt8eOYzcd6JjmE9kpexEQEREBERAREQEREBERAREQI2Mwq1Uam18rAg2NjY9ZCwmwqVNg/idgbgsQbHmAABfra86sQiyV7MHW4I5iZxCVTTZmJVBh0C5FGRalwCqbvJxYDduH7mwYRQiLTVMqqoVVG4KosAJLiVk0m3bAOJkGE9tFpZBeezy09gYkXmPdDlNkQNfdCZZRMogIiICIiAiIgIiICIiB/9k=;fillColor=#F2CC8F;strokeColor=#E07A5F;fontColor=#393C56;" parent="1" vertex="1">
          <mxGeometry x="485" y="782" width="24.51" height="28" as="geometry" />
        </mxCell>
        <mxCell id="7lQAio6a4aFPDC-sO7yj-16" style="edgeStyle=orthogonalEdgeStyle;rounded=0;orthogonalLoop=1;jettySize=auto;html=1;entryX=0;entryY=0.5;entryDx=0;entryDy=0;entryPerimeter=0;" parent="1" source="7lQAio6a4aFPDC-sO7yj-17" target="7lQAio6a4aFPDC-sO7yj-1" edge="1">
          <mxGeometry relative="1" as="geometry">
            <Array as="points">
              <mxPoint x="334" y="723" />
              <mxPoint x="334" y="546" />
            </Array>
          </mxGeometry>
        </mxCell>
        <mxCell id="7lQAio6a4aFPDC-sO7yj-17" value="Euripides" style="rounded=0;whiteSpace=wrap;html=1;fillColor=#dae8fc;strokeColor=#6c8ebf;" parent="1" vertex="1">
          <mxGeometry x="64.00000000000006" y="693.24" width="120" height="60" as="geometry" />
        </mxCell>
        <mxCell id="7lQAio6a4aFPDC-sO7yj-18" value="" style="shape=image;verticalLabelPosition=bottom;labelBackgroundColor=default;verticalAlign=top;aspect=fixed;imageAspect=0;image=https://upload.wikimedia.org/wikipedia/commons/thumb/1/17/GraphQL_Logo.svg/800px-GraphQL_Logo.svg.png;" parent="1" vertex="1">
          <mxGeometry x="32" y="665" width="55" height="55" as="geometry" />
        </mxCell>
        <mxCell id="7lQAio6a4aFPDC-sO7yj-19" value="" style="shape=image;verticalLabelPosition=bottom;verticalAlign=top;aspect=fixed;imageAspect=0;image=data:image/jpeg,/9j/4AAQSkZJRgABAQAAAQABAAD/2wCEAAoHCBYVFRgSFRUYGRgZGBwZHBkcHBgZHBoVGBwaGRoaGBgcIC4mHh8rHxgaJjgmLC8xNTU1HCQ7QDwzPy42NTEBDAwMEA8QHhISHjQhJSsxNDY0NDQ0NDQ3NDQ0NDQ9NDQ0NDQ/NDQ0NDQ0NDE0NDQ0NDQ0NDQ0NDQ0NDQ0NDQ0NP/AABEIAPAA0gMBIgACEQEDEQH/xAAcAAEAAgMBAQEAAAAAAAAAAAAABAYCAwUBBwj/xABEEAACAQIDBQYCCAMFBwUAAAABAgADEQQSIQUxQVFhBhMiMnGBUpEUI0JicoKhsQeSwVOiwtHSM0NUY7Pw8TRzg6Oy/8QAGQEBAAMBAQAAAAAAAAAAAAAAAAECAwQF/8QAJREBAQACAgIBBAIDAAAAAAAAAAECEQMhEjETBEFRYTJxFCJS/9oADAMBAAIRAxEAPwD7NERAREQEREBExJtqZwdo9rMNSuobvGH2U8WvIt5QfUwO/F58/wAX23rNcU6SIODMWc2/CMov7mcTGbYxFTz13t8KnIP7lj8yZPjVLnI+q1MSi73UepA/eZU6isLqwYcwQR8xPiGIw1M+J0Vj8TDN8yZ0uxGPOHxC2JFOq4Qpc5VDeFGCk2Bz29niywmcr7FERIXIiICIiAiIgIiICIiAiIgIiICIiAiJDx+NSihqVGsB7kngAN5J5CBLJlY2x2tp07pS+scaEg+FT1biegv1tKxtnb9XEErqlPggOrD77Df+Eaes5QAEtMfyyy5NekjaO0K2IP1zll+AeFB+UHX3vImQCbLzBwALk2HOX1Iytt9hmms6rqxty5k8gN5PSamxDNpTXT428vsN7ft1mS0QPEbs5Fsx5cgNwHQfrBr8tLIX1cWUbk58i/8Al+/DXjmKozjzIM6/iTxL+oElNNTi4K8DoZVaV9twlUMiuNzKCPQi83yv9hsV3mBw5JuVpim34qfgb9VMsEo6CIiAiIgIiICIiAiIgIiICIiAiIgaqrhVLE2ABJJ4Aakz5jtvajYioahJyC4ReS87fEd5+XCfSsbhhUpvTJIDqVJG8BhbSfHMfhq9Go9Cq4DKbqQls6X0dSWOnTgdPWcdbUz3rpI9JorYlE8zi/LefZRrIwpg+Znb1Nh8lsD7zOlTA0VVUdAB+0vthpsNV38i5B8T7/ZBr87TxMGL5nJcjUZtw9F3e++SESZkSdI21uZg0yaYOdII0O08XSDNdMamVXfQP4Z4m9GtSvqlZmA+7UAe/wDMWl2nyz+HuKyY16Z8tWkLfjQn/CZ9TlG8u49iIhJERAREQEREBERAREQEREBERAThdp9gJi6WXRai606lrlG/qp3EcRO7PDA+I1aTozU6iZHQ5XW99eanipGoP/iZJPofbDs936d9TH11MG24Z03mmx/UHgehM+dob6j/ACPoQdx6S+N2wzx0lIZkZqpNNt5dm1uJqcTewmp1kERmEwA3za4mFpC7DCYs0cThqw0CVlDHd4H8D39jPugnwpcC1c9wo1YWJ4KvFz0F/c2EvmG7aU8Opw1fvHrUmyXVCe8QAFKhY2UFlIvrvDTO2b02x9L1EpVH+IVM+bDYhdf+U2nOy1CZZ9lbUpYhO8pOGXceBVhvVlOqkcjCyfERAREQEREBERAREQEREBERAREQMSJ8x7ZbM7jEd4otTrknTctYasPzAZvUNzn0+cvtBspcTQeiTYkXVvhddVb2IEekWbmnykGxm8GRkzC6OtnRijryddD7cR0Im4PNZXNZpk5mJOkwdwN5kzAbPq1/9mlx8bXVB1zcfQXkZZSeyY2+kBpvwGzamIPgFk41GBy/l+M+mnMiWfA9mKaEGqe9fkRZB6Jx/MT7TvsgAAFunT0nPnzfbF0YcX5cvZ+zEoplRTc2ux1dzzY/sNwlQ7aBBiUCHxmmc45AN4CTz1eWPtB2iTD3poM9Yjwp8I+Jz9lZRKVBizO5zO5LO3Nj+wG4DkJXixyuXktnlJNMGoWUlc2YAkHMb39zYy8fw2rfX4hM3+7pOy8MxNRc3rZQPYSpXCgsxsBqTyE+j9hNjijSasbd5XIdrfZQCyIeoBJPUkcJ0Vnh3drZE8nsq0IiICIiAiIgIiICIiAiIgIiICImuo4UFibAAkk8AN5gUDtxsQrWTEpYLUIp1L3sG3U305nwn1WRsJ2XufHVJ6KuTTlckn9pz+0+3fpjWUkUB5Rqucjc7fuB7+nT2V2mp5FWqWV1ADHKSGIA8QIBGvKUz8pOkTwt/bt4HYlCmQy00JH2m8bezNe06lSottLkysV+1dJQcodyOSsL+hYAfrONiu1eIcZURKQ5nxvb08oPzmMwzyWtxn3XHHbRp0U7yq6ou7xEC55AcT0EqO1+1Lv4MPdU+Nh4jf4VPl9Tr0ErrUszmo7O7/G7Fj+Xgo6C0LVv5Bm+9uQW+8d/tebYcMn8lMuX/lkUCgsTvOZnY3JJ4sTNq1FRc7GwPPT00kNGZ2y00as44hGZFP3VUE+9ieoll2bskUmFSrh8RVqDUMaThE4HInA9TczaWRn4291hsnYT1WFaqMqDyUyNSeDv15Lw3791kobOenrRqGmb30AKE/eTcfUWMmYLFI+isLjepuHHqpsR8p0VQS0kqlyuP6acHtplsuJUJfQVFuUJ+9fye+nWd5SDrOM9G9xwPCc6pj3woCohqI7BEQsF7t2NguZvsHh8J03EWrljrtrhyeXVW2JxMM2NYAuMPT+79ZUPuQVH7yWMUyf7VQBp41N1udPEDquvHUdZntrp0IiJKCIiAiIgIiICIiAiIgJXu2zMMFVychm/9ssBU9smb2lhmFRQQQRcHQjpA+DM9mzEEgqApXWw4i3XnJSDTlLftrsrQOIp0qOaldXqPlN1CCyqqo11S7NfQbkYenp7Ep/xFb/6f9EvjusMtY3W1Jeq17KjMfYD5sRMKtRh5mRL7h52PoNBf5y+r2Ko/aao3q5X9EyzpYTs/Rp+RFU8SBqfVt5k+NV8sXznDbLqVbMEbL8dXRfy0xvPqB6yzdnuzS1mOds6UzlY7gXFiURenEm++wsbkWPH0lp03qHciMx9FBM4+3kqYbY7d1cOaal2XQhqjA1X6HxMb8JXLprx6yW3BYnDKe4ptTUj7ClQfkN86Qn5RxFdVFJ6LVe+8TOTZQr5vB3RU3tl334z9QbGLmhSNTzmmpf8RUXlJWtj3H7Np1gM66jyuNHU81Yag/vxnDw+JdKrYep50AZX4VKZ0D9GB0I567iJaZwu09AZUr7mp1FF+aVGFNlPS7K35BLY3VZ54yxJU3F5F2jhVqIyNuYWuN4PAg8wdfabcM3hnA7R9p1wzd0q5nyhtTZQDcC9tSdDpNrrXbmm99LRsTFGpRUt51JRuroSpI6G2YdDJzoCCCAQRYg7iDvBE+X7A7YutazqpSrVQMAGBUvkphlJJvwJFtdZ9TmFmnXjdx817N7exSbWrbLqMalJQxQsBmRAA6WbewysFN7m/GfS5xNnYemcViaoRc4KU2a3i0po+XNys66ek7ciLUiJGxGKRCqsbFjZRYm50HD1ElCTERAREQEREBERAREQK61O+LqueFOkg9jUY/8A7Hyk60juLYioOaU2/wCov+GSZth6cnL/ACpERLs3P25hy+HrU13tTdR6lSBOjs8JVw6ZlDI9NbqdQVZRoee+eTmbHxH0eocJU0VmLUG4ZSbmnfmCTYcvSZck+7o4cvcY4bsHgKdQVVw65gQygliqsNxCk2FpZ7RPZm3eSv8AbGp9QqDzVK1JVHOzq7f3UY+07ruACSbAaknlKZicZ9LxCsmtGlfI1tHqNoXXmoGgPHM0e7pGV1Np+IxfdU89rklUVfid2CIvS5I14SPtDsZTr+N6r96bZnFsthuUIRYKOHHmTJO1MKz0SqWDqUdL7s6OrqD0JUA+sxobZxDv3K4Xu6mXMS9RCgW9iwyXZteFh6iTyeW5pnxSWXftHwfYTDJdmzu32WZrZDwZAtgGHBt45zdsLtCXorTPjxKu9IqOJpO1M1X+BDlzXPoLmwnKpbWxteuuFWrh6ZdKzZhTdmRaNXuWy/WWZjvF7W5G0uGydmJhqa0qYNhvJ1ZmJuzOeLEkknrKTba6nTLZuE7tbE3djmdrWzOQAT6WAA5AAcJOnM21tHuKRqAZmuFVRclmPQamwuxtwUzDD42oyB1FOqhFwUbKSPuhrqfdhLIdWQtpVSqqdAM4DMRfItj4reoAvwzX4RTxyuGCauoJ7tro1+FwRcAnTNqPWNm1KjJequVrnhl8PC65mseG/hfS9oGeBqllJJvYkBrZcyjc1v0vuNrjQyXEQEREBERAREQERPDA4u0bLiKbXHjRkI4kr4109M8kSlYgNUr1augrU8QchcmyqjWFO41VXTl8d7HdO2naOkule9E7vH5D+GoPCfQkHpNsep25OSy5WR2omqhiUcZkdWB4qQRb2m2WUJrxFBXUo6hlPA/05HrNkRSIdJa9IWSoKijctW+YDl3g1P5gT1mDbWxO76PTB61G/wBE6E8lfCNJy5RwsRha+INsQwyf2SAqp/Gbkv6aDmJ08NhFQAAbt3SSokzGRW53L2xKyDjsK7MtSk4R1BUMVzqVaxKutwSLqDoQdJPMxaLN9UmVl3FV2JsN6GMpVqlbOzGogAXIqowqVXspJuWexJvwEv8AK7XrIlakzMFVc7EsQAAEy3JO7zTs/S0NM1VYMoUtmUgggC5sR6THKSXUdOGVym6gg95iGP2aICjl3rjMx9kKi/32ntfZSkl0ZqTnUslhmPNlIKsepBPWQMDtAqvdomep56hJyotR/GVL2NyM24A2GW9riZ4nH1UUu9SiijUkqzAfmLr+0r5Se2nx5XuNe06GIHdsaiErVphStNlezOoYZu8IClb5tN19OVmld2XiziGpMw0VTVJtlBzZkpHKSSMy5nsTcaSxSUdzqvYiICIiAiIgIiICeGeyJtHHJQptVqNlRBcnpApHaagPpqmk5pu1ItVsAytZlSlnTmfGLggkIOQmzCM5BWoFvuuvlcc8p1Hob7t5mvAU2qM+KdSHrENY70prpTQ+gJY9XadNEnVx42Y9vN585crpx32RTzZ0U034tSY0yfULo3uDJdDF4mnazrWUC1qgCP650GU+mT3EmtTE1MglrhGc5cokYfb6EhKoak50Ae2Un7ri6t6Xv0nXVgdRK3WpKRlZQykaggEH1Eg4d6mHYvRLOgGtAm+n/KY6g/dJsekpcbGuOcy99LpEibNx6V0FRGup9iGGhVgdQQdCDukuRF6SNtDE93Tepa+RGa34QT/SSZE2rSz0aifEjr81Iik9qTjts4lPGa9jxUImQHiAPNb1M5zdrsTVuhqooCFy1NQHsCBYliQu/lIOPxa1UUG2qjwEEsdLkZBqbcpDpdm8RU8YK0lIK5St2Kkg5io8u7d79Jlle+m2ON12zXab1XYVHFQI9lLnMyoyKRZbBc1z595l+7MvfZ+KI3Z64X+UA7vvXPvKPs/YRAVs4s7qL5dLM6optm5W+Vp9Wp7HWhg6mHQkkpUJY2BZ3DEsQNBqd3ASuXrtph3dz+nI2Zs4MatTvKi569W6q9l8Dsg0tp4UG60Y3B0lOTIWsMzsSzuEJyhULEkO7eEWt9o7xN+BZ0VxkbV3qK58KFKpNTMXOigFyCN/hOh0vK2JhO8IqEkorZgSMve1f7TKdQijRB0vwBmMxtvbqucmMkdTZGENNLvbO5zPbcCQAFHRVAHtedKImrEiIgIiICIiAiIgeSldrG7/ABFPCHyU1Fd1+NsxWmrdLqzewl1lIcE4zFOeD00H4VpI4/V2luObykrLnyuOFsS0FplmnnSY9Z3PJZsZgRCmYuTvgR2a4vI9DEKSQCLg2I62vb5EGc/ZeNvnoWZ6iO4KqCzZCxZCeQysupnmCwpGJqO6MhCoQrZdM4KlgFJ3hANevOY+c3JHR8dktvpPw+LGGrh7HJW8LhQSRWUEo4UC5zKCD+FeZljXaKEX8f8AI4/dZU9uI3dsyedBnX8aeNf1FveXrZdYPTV13MoYehF5z83JcMup7dPBjM8e/cQjtBOZ+TX+Vp59PU7lqN6Uqh/wztxaZf5F/Db4cVdfB5iSuHYE72IRL+tzm/SaMZRp0EapiKioqqWKoSWKqCTrbMdBuUA9ZaZwe2JUYSqp0NVRRuN/1pFPQ9AxPtKfLlldLTCY9qZhMGXFCklqbPUFQDKCECsaxUqpF1FguhG8S4bW2u9Kky1EUu4yUypOV6r2VVIOqG7A210B10nJ2Fsk1neqtR6YpgUkZMvm0aobMCrDRF3aFWnm0qbpWao9Z664WmaioVpopxNS6UUBUC7WzbzpnQzbPe9T0cU/13fd7dDZGF+kEo5zUcMVoqn2alWkozu/xBWsoU6XViQdLWyc7YuA7iglK92UXdt2aoxLVHNuLMWPvOjCxERAREQEREBERAREQPJUsQmXE4j7zo/saaLf5oflLaZUttkrjVHCpQuPxUn8X6VVl+O6yjD6ib46yvPGHCAZ7O15bEC2kMZ6DxngECLSJo1TXRM2ZcjquUMwGqsLkAldRbkx5AHWrtUqPXZSmcKiqSL5EzWJtpclm/STGE1sLCZfHj5eTb5srh4fZHxKgqQeKkfMTtdiyTgsMW3mihP8onDxz5Ueodyox+Sky27Jwwp0adMfYRV/lUCcn1f2df0fqpsRNdWsqjMzBRzJAH6zkdjZKT2wx2asmHQ3KeMjeO8ZSEzdFTO7cQMvMSwvtXMD3KGobXzeWn6modGH4c05PYfZ4aiuNqeOtXDOzndlc3ARbeFSoXrYKCTYTTine0ZTc024DbCUcOi08PiXUKMpWk16hOubXdmJzXNt8hKhaphaVRcr4iq+Lqo2/wCqVWRPVGNEf/HLGdnshvQYAf2beT8hGqe11+7Im0HVgpqK9J0bOtTLmVGAIJzLdcpBKkNa4J3G03Rt34nK2BtM16WdlykOyG2qsVNs6HijCxHrbhOrAREQEREBERAREQEREDyV3tYoUUaxsMlUJfmtUGnl/nKH8ssUqv8AEUH6ExW11qUWF+lVJM6u1c5vGxpzTMNNV+E8Z7Tu28fTa5gGY757aSh7aeuBa0wd7SDtHaApJnYFiTlRF1Z3O5VHP9tSdBItkTMbb09rp31anhF4kVKlvs0kYHX8bAL6ZuUvKiUTs539HvHagHq1SGdy4CqAPDTXQnKoJ4am54zrPjMW39lTHMZqh9gQvznm8sy5MtydPW4pjx4ybWa8gY6tQQq1UpmHlzZS2vBb68OEr1XDVXPjr1GHEAimPbIAf1kPFUhSASko72o2RNNWY8WO8gbyZWcN91b5Jeo7r1nxqtTpZqdElkaqRldgDlZaSnUG4ILm1uAO8dzD0FpotNQFVQFVRuCqLAD2EwwGFFKmlIblULfibC1z1MlS8xmPpfZERLIIiICIiAiIgIiICIiAiIgeSsduqoNGnQJ1rV6agcwjd6392mfnLI7gAk6AC5PSfPdoY36TiBiDcUqSstHf4y9g9UjqAAvQk/alsZuqcl1jUutiFUXPQAAEkngABvPSQ8RjHRkNShUUObLcDU6aebQ66A6mWbs/skr9fVH1h8oP+7Q8PxHj8uGvWx2GSojI6hlI1B/70PWaZct3058Ppp49+1N+mWGqVFPMo4HztaYDaF9Ajt6I5/ZZ2dktfC0XfxsyIbnecwvc9bTDZ2Jq1E7xcOSpZgpV08SBiA1mIte0jHm2jL6XX7co067+VAg4Fwf0QEH5kSVs/Y+V+8di72tnb7IO8Ig0QempsLk2nUY1f+HqE9Go/wBXmLVq40GEqH89AD3OeTcpfdTjxXH1G5UEwY3kZ6GOfy06CbvPUdj8kT+s209gVH/9RW0+CiGpg/icksfbLK3OLziyvtDxO0UQmmLu/BF5/ebcu7iZN7M7PBAxjNmeqgK7wtOm1mCIDrfdmJ1JHC1hyKOGTD5qNRcgDsUqHyOhJK3c/bsQDc3Nr6zudmcSvdmmCCEdlUjUFT4hY9M2X8sy8rbqt8eOYzcd6JjmE9kpexEQEREBERAREQEREBERAREQI2Mwq1Uam18rAg2NjY9ZCwmwqVNg/idgbgsQbHmAABfra86sQiyV7MHW4I5iZxCVTTZmJVBh0C5FGRalwCqbvJxYDduH7mwYRQiLTVMqqoVVG4KosAJLiVk0m3bAOJkGE9tFpZBeezy09gYkXmPdDlNkQNfdCZZRMogIiICIiAiIgIiICIiB/9k=;fillColor=#F2CC8F;strokeColor=#E07A5F;fontColor=#393C56;" parent="1" vertex="1">
          <mxGeometry x="172.87" y="666.8199999999999" width="33.63" height="38.42" as="geometry" />
        </mxCell>
        <mxCell id="7lQAio6a4aFPDC-sO7yj-20" style="edgeStyle=orthogonalEdgeStyle;rounded=0;orthogonalLoop=1;jettySize=auto;html=1;" parent="1" source="7lQAio6a4aFPDC-sO7yj-22" target="7lQAio6a4aFPDC-sO7yj-1" edge="1">
          <mxGeometry relative="1" as="geometry" />
        </mxCell>
        <mxCell id="7lQAio6a4aFPDC-sO7yj-21" style="edgeStyle=orthogonalEdgeStyle;rounded=0;orthogonalLoop=1;jettySize=auto;html=1;entryX=0;entryY=0.5;entryDx=0;entryDy=0;" parent="1" source="7lQAio6a4aFPDC-sO7yj-22" edge="1" target="7lQAio6a4aFPDC-sO7yj-30">
          <mxGeometry relative="1" as="geometry">
            <mxPoint x="110" y="510.1199999999999" as="targetPoint" />
          </mxGeometry>
        </mxCell>
        <mxCell id="e4YRFAi6MeH2XxkmIieU-7" value="180s" style="edgeLabel;html=1;align=center;verticalAlign=middle;resizable=0;points=[];" vertex="1" connectable="0" parent="7lQAio6a4aFPDC-sO7yj-21">
          <mxGeometry x="-0.033" y="4" relative="1" as="geometry">
            <mxPoint as="offset" />
          </mxGeometry>
        </mxCell>
        <mxCell id="7lQAio6a4aFPDC-sO7yj-22" value="Aiskhylos&lt;div&gt;Node/Pod Metrics&lt;/div&gt;" style="rounded=0;whiteSpace=wrap;html=1;fillColor=#dae8fc;strokeColor=#6c8ebf;" parent="1" vertex="1">
          <mxGeometry x="50.00000000000006" y="515.76" width="120" height="60" as="geometry" />
        </mxCell>
        <mxCell id="7lQAio6a4aFPDC-sO7yj-23" value="" style="shape=image;verticalLabelPosition=bottom;verticalAlign=top;aspect=fixed;imageAspect=0;image=data:image/jpeg,/9j/4AAQSkZJRgABAQAAAQABAAD/2wCEAAoHCBYVFRgSFRUYGRgZGBwZHBkcHBgZHBoVGBwaGRoaGBgcIC4mHh8rHxgaJjgmLC8xNTU1HCQ7QDwzPy42NTEBDAwMEA8QHhISHjQhJSsxNDY0NDQ0NDQ3NDQ0NDQ9NDQ0NDQ/NDQ0NDQ0NDE0NDQ0NDQ0NDQ0NDQ0NDQ0NDQ0NP/AABEIAPAA0gMBIgACEQEDEQH/xAAcAAEAAgMBAQEAAAAAAAAAAAAABAYCAwUBBwj/xABEEAACAQIDBQYCCAMFBwUAAAABAgADEQQSIQUxQVFhBhMiMnGBUpEUI0JicoKhsQeSwVOiwtHSM0NUY7Pw8TRzg6Oy/8QAGQEBAAMBAQAAAAAAAAAAAAAAAAECAwQF/8QAJREBAQACAgIBBAIDAAAAAAAAAAECEQMhEjETBEFRYTJxFCJS/9oADAMBAAIRAxEAPwD7NERAREQEREBExJtqZwdo9rMNSuobvGH2U8WvIt5QfUwO/F58/wAX23rNcU6SIODMWc2/CMov7mcTGbYxFTz13t8KnIP7lj8yZPjVLnI+q1MSi73UepA/eZU6isLqwYcwQR8xPiGIw1M+J0Vj8TDN8yZ0uxGPOHxC2JFOq4Qpc5VDeFGCk2Bz29niywmcr7FERIXIiICIiAiIgIiICIiAiIgIiICIiAiJDx+NSihqVGsB7kngAN5J5CBLJlY2x2tp07pS+scaEg+FT1biegv1tKxtnb9XEErqlPggOrD77Df+Eaes5QAEtMfyyy5NekjaO0K2IP1zll+AeFB+UHX3vImQCbLzBwALk2HOX1Iytt9hmms6rqxty5k8gN5PSamxDNpTXT428vsN7ft1mS0QPEbs5Fsx5cgNwHQfrBr8tLIX1cWUbk58i/8Al+/DXjmKozjzIM6/iTxL+oElNNTi4K8DoZVaV9twlUMiuNzKCPQi83yv9hsV3mBw5JuVpim34qfgb9VMsEo6CIiAiIgIiICIiAiIgIiICIiAiIgaqrhVLE2ABJJ4Aakz5jtvajYioahJyC4ReS87fEd5+XCfSsbhhUpvTJIDqVJG8BhbSfHMfhq9Go9Cq4DKbqQls6X0dSWOnTgdPWcdbUz3rpI9JorYlE8zi/LefZRrIwpg+Znb1Nh8lsD7zOlTA0VVUdAB+0vthpsNV38i5B8T7/ZBr87TxMGL5nJcjUZtw9F3e++SESZkSdI21uZg0yaYOdII0O08XSDNdMamVXfQP4Z4m9GtSvqlZmA+7UAe/wDMWl2nyz+HuKyY16Z8tWkLfjQn/CZ9TlG8u49iIhJERAREQEREBERAREQEREBERAThdp9gJi6WXRai606lrlG/qp3EcRO7PDA+I1aTozU6iZHQ5XW99eanipGoP/iZJPofbDs936d9TH11MG24Z03mmx/UHgehM+dob6j/ACPoQdx6S+N2wzx0lIZkZqpNNt5dm1uJqcTewmp1kERmEwA3za4mFpC7DCYs0cThqw0CVlDHd4H8D39jPugnwpcC1c9wo1YWJ4KvFz0F/c2EvmG7aU8Opw1fvHrUmyXVCe8QAFKhY2UFlIvrvDTO2b02x9L1EpVH+IVM+bDYhdf+U2nOy1CZZ9lbUpYhO8pOGXceBVhvVlOqkcjCyfERAREQEREBERAREQEREBERAREQMSJ8x7ZbM7jEd4otTrknTctYasPzAZvUNzn0+cvtBspcTQeiTYkXVvhddVb2IEekWbmnykGxm8GRkzC6OtnRijryddD7cR0Im4PNZXNZpk5mJOkwdwN5kzAbPq1/9mlx8bXVB1zcfQXkZZSeyY2+kBpvwGzamIPgFk41GBy/l+M+mnMiWfA9mKaEGqe9fkRZB6Jx/MT7TvsgAAFunT0nPnzfbF0YcX5cvZ+zEoplRTc2ux1dzzY/sNwlQ7aBBiUCHxmmc45AN4CTz1eWPtB2iTD3poM9Yjwp8I+Jz9lZRKVBizO5zO5LO3Nj+wG4DkJXixyuXktnlJNMGoWUlc2YAkHMb39zYy8fw2rfX4hM3+7pOy8MxNRc3rZQPYSpXCgsxsBqTyE+j9hNjijSasbd5XIdrfZQCyIeoBJPUkcJ0Vnh3drZE8nsq0IiICIiAiIgIiICIiAiIgIiICImuo4UFibAAkk8AN5gUDtxsQrWTEpYLUIp1L3sG3U305nwn1WRsJ2XufHVJ6KuTTlckn9pz+0+3fpjWUkUB5Rqucjc7fuB7+nT2V2mp5FWqWV1ADHKSGIA8QIBGvKUz8pOkTwt/bt4HYlCmQy00JH2m8bezNe06lSottLkysV+1dJQcodyOSsL+hYAfrONiu1eIcZURKQ5nxvb08oPzmMwzyWtxn3XHHbRp0U7yq6ou7xEC55AcT0EqO1+1Lv4MPdU+Nh4jf4VPl9Tr0ErrUszmo7O7/G7Fj+Xgo6C0LVv5Bm+9uQW+8d/tebYcMn8lMuX/lkUCgsTvOZnY3JJ4sTNq1FRc7GwPPT00kNGZ2y00as44hGZFP3VUE+9ieoll2bskUmFSrh8RVqDUMaThE4HInA9TczaWRn4291hsnYT1WFaqMqDyUyNSeDv15Lw3791kobOenrRqGmb30AKE/eTcfUWMmYLFI+isLjepuHHqpsR8p0VQS0kqlyuP6acHtplsuJUJfQVFuUJ+9fye+nWd5SDrOM9G9xwPCc6pj3woCohqI7BEQsF7t2NguZvsHh8J03EWrljrtrhyeXVW2JxMM2NYAuMPT+79ZUPuQVH7yWMUyf7VQBp41N1udPEDquvHUdZntrp0IiJKCIiAiIgIiICIiAiIgJXu2zMMFVychm/9ssBU9smb2lhmFRQQQRcHQjpA+DM9mzEEgqApXWw4i3XnJSDTlLftrsrQOIp0qOaldXqPlN1CCyqqo11S7NfQbkYenp7Ep/xFb/6f9EvjusMtY3W1Jeq17KjMfYD5sRMKtRh5mRL7h52PoNBf5y+r2Ko/aao3q5X9EyzpYTs/Rp+RFU8SBqfVt5k+NV8sXznDbLqVbMEbL8dXRfy0xvPqB6yzdnuzS1mOds6UzlY7gXFiURenEm++wsbkWPH0lp03qHciMx9FBM4+3kqYbY7d1cOaal2XQhqjA1X6HxMb8JXLprx6yW3BYnDKe4ptTUj7ClQfkN86Qn5RxFdVFJ6LVe+8TOTZQr5vB3RU3tl334z9QbGLmhSNTzmmpf8RUXlJWtj3H7Np1gM66jyuNHU81Yag/vxnDw+JdKrYep50AZX4VKZ0D9GB0I567iJaZwu09AZUr7mp1FF+aVGFNlPS7K35BLY3VZ54yxJU3F5F2jhVqIyNuYWuN4PAg8wdfabcM3hnA7R9p1wzd0q5nyhtTZQDcC9tSdDpNrrXbmm99LRsTFGpRUt51JRuroSpI6G2YdDJzoCCCAQRYg7iDvBE+X7A7YutazqpSrVQMAGBUvkphlJJvwJFtdZ9TmFmnXjdx817N7exSbWrbLqMalJQxQsBmRAA6WbewysFN7m/GfS5xNnYemcViaoRc4KU2a3i0po+XNys66ek7ciLUiJGxGKRCqsbFjZRYm50HD1ElCTERAREQEREBERAREQK61O+LqueFOkg9jUY/8A7Hyk60juLYioOaU2/wCov+GSZth6cnL/ACpERLs3P25hy+HrU13tTdR6lSBOjs8JVw6ZlDI9NbqdQVZRoee+eTmbHxH0eocJU0VmLUG4ZSbmnfmCTYcvSZck+7o4cvcY4bsHgKdQVVw65gQygliqsNxCk2FpZ7RPZm3eSv8AbGp9QqDzVK1JVHOzq7f3UY+07ruACSbAaknlKZicZ9LxCsmtGlfI1tHqNoXXmoGgPHM0e7pGV1Np+IxfdU89rklUVfid2CIvS5I14SPtDsZTr+N6r96bZnFsthuUIRYKOHHmTJO1MKz0SqWDqUdL7s6OrqD0JUA+sxobZxDv3K4Xu6mXMS9RCgW9iwyXZteFh6iTyeW5pnxSWXftHwfYTDJdmzu32WZrZDwZAtgGHBt45zdsLtCXorTPjxKu9IqOJpO1M1X+BDlzXPoLmwnKpbWxteuuFWrh6ZdKzZhTdmRaNXuWy/WWZjvF7W5G0uGydmJhqa0qYNhvJ1ZmJuzOeLEkknrKTba6nTLZuE7tbE3djmdrWzOQAT6WAA5AAcJOnM21tHuKRqAZmuFVRclmPQamwuxtwUzDD42oyB1FOqhFwUbKSPuhrqfdhLIdWQtpVSqqdAM4DMRfItj4reoAvwzX4RTxyuGCauoJ7tro1+FwRcAnTNqPWNm1KjJequVrnhl8PC65mseG/hfS9oGeBqllJJvYkBrZcyjc1v0vuNrjQyXEQEREBERAREQERPDA4u0bLiKbXHjRkI4kr4109M8kSlYgNUr1augrU8QchcmyqjWFO41VXTl8d7HdO2naOkule9E7vH5D+GoPCfQkHpNsep25OSy5WR2omqhiUcZkdWB4qQRb2m2WUJrxFBXUo6hlPA/05HrNkRSIdJa9IWSoKijctW+YDl3g1P5gT1mDbWxO76PTB61G/wBE6E8lfCNJy5RwsRha+INsQwyf2SAqp/Gbkv6aDmJ08NhFQAAbt3SSokzGRW53L2xKyDjsK7MtSk4R1BUMVzqVaxKutwSLqDoQdJPMxaLN9UmVl3FV2JsN6GMpVqlbOzGogAXIqowqVXspJuWexJvwEv8AK7XrIlakzMFVc7EsQAAEy3JO7zTs/S0NM1VYMoUtmUgggC5sR6THKSXUdOGVym6gg95iGP2aICjl3rjMx9kKi/32ntfZSkl0ZqTnUslhmPNlIKsepBPWQMDtAqvdomep56hJyotR/GVL2NyM24A2GW9riZ4nH1UUu9SiijUkqzAfmLr+0r5Se2nx5XuNe06GIHdsaiErVphStNlezOoYZu8IClb5tN19OVmld2XiziGpMw0VTVJtlBzZkpHKSSMy5nsTcaSxSUdzqvYiICIiAiIgIiICeGeyJtHHJQptVqNlRBcnpApHaagPpqmk5pu1ItVsAytZlSlnTmfGLggkIOQmzCM5BWoFvuuvlcc8p1Hob7t5mvAU2qM+KdSHrENY70prpTQ+gJY9XadNEnVx42Y9vN585crpx32RTzZ0U034tSY0yfULo3uDJdDF4mnazrWUC1qgCP650GU+mT3EmtTE1MglrhGc5cokYfb6EhKoak50Ae2Un7ri6t6Xv0nXVgdRK3WpKRlZQykaggEH1Eg4d6mHYvRLOgGtAm+n/KY6g/dJsekpcbGuOcy99LpEibNx6V0FRGup9iGGhVgdQQdCDukuRF6SNtDE93Tepa+RGa34QT/SSZE2rSz0aifEjr81Iik9qTjts4lPGa9jxUImQHiAPNb1M5zdrsTVuhqooCFy1NQHsCBYliQu/lIOPxa1UUG2qjwEEsdLkZBqbcpDpdm8RU8YK0lIK5St2Kkg5io8u7d79Jlle+m2ON12zXab1XYVHFQI9lLnMyoyKRZbBc1z595l+7MvfZ+KI3Z64X+UA7vvXPvKPs/YRAVs4s7qL5dLM6optm5W+Vp9Wp7HWhg6mHQkkpUJY2BZ3DEsQNBqd3ASuXrtph3dz+nI2Zs4MatTvKi569W6q9l8Dsg0tp4UG60Y3B0lOTIWsMzsSzuEJyhULEkO7eEWt9o7xN+BZ0VxkbV3qK58KFKpNTMXOigFyCN/hOh0vK2JhO8IqEkorZgSMve1f7TKdQijRB0vwBmMxtvbqucmMkdTZGENNLvbO5zPbcCQAFHRVAHtedKImrEiIgIiICIiAiIgeSldrG7/ABFPCHyU1Fd1+NsxWmrdLqzewl1lIcE4zFOeD00H4VpI4/V2luObykrLnyuOFsS0FplmnnSY9Z3PJZsZgRCmYuTvgR2a4vI9DEKSQCLg2I62vb5EGc/ZeNvnoWZ6iO4KqCzZCxZCeQysupnmCwpGJqO6MhCoQrZdM4KlgFJ3hANevOY+c3JHR8dktvpPw+LGGrh7HJW8LhQSRWUEo4UC5zKCD+FeZljXaKEX8f8AI4/dZU9uI3dsyedBnX8aeNf1FveXrZdYPTV13MoYehF5z83JcMup7dPBjM8e/cQjtBOZ+TX+Vp59PU7lqN6Uqh/wztxaZf5F/Db4cVdfB5iSuHYE72IRL+tzm/SaMZRp0EapiKioqqWKoSWKqCTrbMdBuUA9ZaZwe2JUYSqp0NVRRuN/1pFPQ9AxPtKfLlldLTCY9qZhMGXFCklqbPUFQDKCECsaxUqpF1FguhG8S4bW2u9Kky1EUu4yUypOV6r2VVIOqG7A210B10nJ2Fsk1neqtR6YpgUkZMvm0aobMCrDRF3aFWnm0qbpWao9Z664WmaioVpopxNS6UUBUC7WzbzpnQzbPe9T0cU/13fd7dDZGF+kEo5zUcMVoqn2alWkozu/xBWsoU6XViQdLWyc7YuA7iglK92UXdt2aoxLVHNuLMWPvOjCxERAREQEREBERAREQPJUsQmXE4j7zo/saaLf5oflLaZUttkrjVHCpQuPxUn8X6VVl+O6yjD6ib46yvPGHCAZ7O15bEC2kMZ6DxngECLSJo1TXRM2ZcjquUMwGqsLkAldRbkx5AHWrtUqPXZSmcKiqSL5EzWJtpclm/STGE1sLCZfHj5eTb5srh4fZHxKgqQeKkfMTtdiyTgsMW3mihP8onDxz5Ueodyox+Sky27Jwwp0adMfYRV/lUCcn1f2df0fqpsRNdWsqjMzBRzJAH6zkdjZKT2wx2asmHQ3KeMjeO8ZSEzdFTO7cQMvMSwvtXMD3KGobXzeWn6modGH4c05PYfZ4aiuNqeOtXDOzndlc3ARbeFSoXrYKCTYTTine0ZTc024DbCUcOi08PiXUKMpWk16hOubXdmJzXNt8hKhaphaVRcr4iq+Lqo2/wCqVWRPVGNEf/HLGdnshvQYAf2beT8hGqe11+7Im0HVgpqK9J0bOtTLmVGAIJzLdcpBKkNa4J3G03Rt34nK2BtM16WdlykOyG2qsVNs6HijCxHrbhOrAREQEREBERAREQEREDyV3tYoUUaxsMlUJfmtUGnl/nKH8ssUqv8AEUH6ExW11qUWF+lVJM6u1c5vGxpzTMNNV+E8Z7Tu28fTa5gGY757aSh7aeuBa0wd7SDtHaApJnYFiTlRF1Z3O5VHP9tSdBItkTMbb09rp31anhF4kVKlvs0kYHX8bAL6ZuUvKiUTs539HvHagHq1SGdy4CqAPDTXQnKoJ4am54zrPjMW39lTHMZqh9gQvznm8sy5MtydPW4pjx4ybWa8gY6tQQq1UpmHlzZS2vBb68OEr1XDVXPjr1GHEAimPbIAf1kPFUhSASko72o2RNNWY8WO8gbyZWcN91b5Jeo7r1nxqtTpZqdElkaqRldgDlZaSnUG4ILm1uAO8dzD0FpotNQFVQFVRuCqLAD2EwwGFFKmlIblULfibC1z1MlS8xmPpfZERLIIiICIiAiIgIiICIiAiIgeSsduqoNGnQJ1rV6agcwjd6392mfnLI7gAk6AC5PSfPdoY36TiBiDcUqSstHf4y9g9UjqAAvQk/alsZuqcl1jUutiFUXPQAAEkngABvPSQ8RjHRkNShUUObLcDU6aebQ66A6mWbs/skr9fVH1h8oP+7Q8PxHj8uGvWx2GSojI6hlI1B/70PWaZct3058Ppp49+1N+mWGqVFPMo4HztaYDaF9Ajt6I5/ZZ2dktfC0XfxsyIbnecwvc9bTDZ2Jq1E7xcOSpZgpV08SBiA1mIte0jHm2jL6XX7co067+VAg4Fwf0QEH5kSVs/Y+V+8di72tnb7IO8Ig0QempsLk2nUY1f+HqE9Go/wBXmLVq40GEqH89AD3OeTcpfdTjxXH1G5UEwY3kZ6GOfy06CbvPUdj8kT+s209gVH/9RW0+CiGpg/icksfbLK3OLziyvtDxO0UQmmLu/BF5/ebcu7iZN7M7PBAxjNmeqgK7wtOm1mCIDrfdmJ1JHC1hyKOGTD5qNRcgDsUqHyOhJK3c/bsQDc3Nr6zudmcSvdmmCCEdlUjUFT4hY9M2X8sy8rbqt8eOYzcd6JjmE9kpexEQEREBERAREQEREBERAREQI2Mwq1Uam18rAg2NjY9ZCwmwqVNg/idgbgsQbHmAABfra86sQiyV7MHW4I5iZxCVTTZmJVBh0C5FGRalwCqbvJxYDduH7mwYRQiLTVMqqoVVG4KosAJLiVk0m3bAOJkGE9tFpZBeezy09gYkXmPdDlNkQNfdCZZRMogIiICIiAiIgIiICIiB/9k=;fillColor=#F2CC8F;strokeColor=#E07A5F;fontColor=#393C56;" parent="1" vertex="1">
          <mxGeometry x="155" y="498.76" width="33.63" height="38.42" as="geometry" />
        </mxCell>
        <mxCell id="e4YRFAi6MeH2XxkmIieU-34" style="edgeStyle=orthogonalEdgeStyle;rounded=0;orthogonalLoop=1;jettySize=auto;html=1;" edge="1" parent="1" source="7lQAio6a4aFPDC-sO7yj-24" target="e4YRFAi6MeH2XxkmIieU-33">
          <mxGeometry relative="1" as="geometry" />
        </mxCell>
        <mxCell id="e4YRFAi6MeH2XxkmIieU-86" value="gannt chart&lt;div&gt;bar chart&lt;/div&gt;&lt;div&gt;&amp;nbsp;pie chart&lt;/div&gt;&lt;div&gt;state chart&lt;/div&gt;" style="edgeLabel;html=1;align=center;verticalAlign=middle;resizable=0;points=[];" vertex="1" connectable="0" parent="e4YRFAi6MeH2XxkmIieU-34">
          <mxGeometry x="-0.194" y="1" relative="1" as="geometry">
            <mxPoint as="offset" />
          </mxGeometry>
        </mxCell>
        <mxCell id="7lQAio6a4aFPDC-sO7yj-24" value="Praxiteles" style="rounded=0;whiteSpace=wrap;html=1;fillColor=#60a917;strokeColor=#2D7600;fontColor=#ffffff;" parent="1" vertex="1">
          <mxGeometry x="57" y="868" width="123" height="56" as="geometry" />
        </mxCell>
        <mxCell id="7lQAio6a4aFPDC-sO7yj-25" style="edgeStyle=orthogonalEdgeStyle;rounded=0;orthogonalLoop=1;jettySize=auto;html=1;entryX=0.45;entryY=0.946;entryDx=0;entryDy=0;entryPerimeter=0;" parent="1" source="7lQAio6a4aFPDC-sO7yj-24" target="7lQAio6a4aFPDC-sO7yj-17" edge="1">
          <mxGeometry relative="1" as="geometry" />
        </mxCell>
        <mxCell id="7lQAio6a4aFPDC-sO7yj-26" value="" style="shape=image;verticalLabelPosition=bottom;labelBackgroundColor=default;verticalAlign=top;aspect=fixed;imageAspect=0;image=data:image/png,iVBORw0KGgoAAAANSUhEUgAAAM0AAAD2CAMAAABC3/M1AAAAk1BMVEX/////PgD/OQD/JgD/MwD/NgD/LAD/KgD/IQD/yL//+/n/8e7/9fL//fz/7Oj/2NH/n4//3df/XDn/1M3/sKP/dl3/u7D/qpz/gWr/4tz/l4X/5+L/blL/lIL/nIv/wLX/eWH/RhX/inb/VC7/ZEX/pZb/TiT/tan/ak3/Sx7/WTX/hnD/YD//ua7/d17/Uyz/jnpmtHChAAAP+ElEQVR4nNVd2WLqOgwstuMk7GuBQgu0UOh22v//uguUJQnJSFYS6J2Hc14oibAt2yNpdHd3E9Q74br9OBpsuu/v3eV0/vw0nPUmjdu8TB5M7h+XVvvWGE9tUalUtv96nrFW68V8FdZu/YJsTPoDo63ZmZCOrVF68Tz7H1jUelxoYEjEJKu/251bvy7C+EFpw7DkAGV05Wl865fOwP27iykHGP2yrt76zS9QbxvLmWApI2T1z+TWrx9D/VEwLGd4wbR1axNOaDwEeWzZD5Be/hF7+javLb/2TP/AfGu92gJs2dsTPN/YHzSeA9naT4Ux61saE6oiJlkEfrd5K1vqA12sLZXddBvexpi17xVuzBb+Z/36tjS7fhm2VHbbaXhtY9pFrv4kgoer2tJ5K8otp8Nurnena/yUOTB7eItr3X4Kd8tpUOYqV4X6v+Ldcip0r3xjvmwpbjkNQdmurbksyy3fwJxV6av/euZ0Cjst880pbe2U75ZToMvxbL3KFdzyJZRXwr5TnUvdsjLG+lr7/vafHffpOQ6wei3cmHsjcsvKaLN8XIfjZrWxRX3Smq1Gr9pnsYdHmEGxtjSXkoFRVg++0m761V77hUeH/sJfFWnMUAtWvwmWM3DJr/UdmMSgODZn/C1wy8Z/IC/EEz4FZ4oiPx4FbtmYIes831gZnj3etBBbJG5Z6Sf+A1a8y7gugMqpjgJnWyp640S61HnP0LmZnJnALRszc30Ma/zVZz5baht3t6yCkWS9jhhP8nPNtaEWDMxCeEa8Z7gaK/dr4xd3t6wCh9WffJ4izfFG0i9/ELhl+56H4a+/klMhkJ2mJW7Z0/0ctmzR6FIPVUvB127dsvvA6Gl+srVLjY6A9Zgxt+cojFfIhfebMEd1Hb+wNpW45edieMlqhZgUjoPTF5D+9q2wE26TcKRq4/Blk3d3dkkF7aJs2SIkTjkB320+CVZ/0ZGwBzw63jPze1oLgVvOd9xIwzv+RX3eCpXEYvWg+BhYE3sh+8X4jpZgvzSqFB6yD+cax0kLVowKfsqwZYsX+C4BtU6rn+4nTPtaWmJZB/o1QwSsx8p5j1G6UE4ogX/ofdQ7/NvQfZb5y1ITFCZwcDQicvvON3/P3pdpyx0xOOjpbedjWTAvPbGng14KXNoeXY0xlSvEIu++0eRXmcY4nstU8Ch/xdp4zI1drNHupzPOaq7TzL5II0ON+4HRW9jlkHN8qKMXs+kU19rNAXhampvUeLDH/FVlNCehbgmmmkmdH9TpOwG9kca4ErkSxtAnoj6Yaqk84cRpmgkozANSUtgCkhAZw6l2+fkGdWuN/RwyCnOH1BS2gDwJox0nZf+cOhxn5G55kpHCRlJjA/Bb+xc39yHfN+egMDNT2MjI7AosnAunNuZ7AF9MYbZACptPeIIQHOsvjtFv3EXj+VIKE2cWU7zlGMwdL5FX+MS9aeppQW75AgHeRWvAqSVOavjIfYacwqQzi6k8VPD3Kp4/0GXNMxV8SClMRmaxIe576MVis3TG8md2IaUwWZnFFDP2Cn7xF6bZZ/vlFCYvs9j7wN+CeLWoex8yOA2zkJ6WWwseZZJ+duRZ83b+WIPhz/y50BZ+wYchPD+6sEWsQbvsAYGUkXHILFabGfTR6G8jM41hjPC47Fbwoaxe9rN3MzRfzyTUmpzW0sTQtXNmsTLBJuOXq4ItMRLFIc80QmOyTsuUQdakJkuh25f6d/xUj5oMgSyGkaPgwwSDy52th85pJ+c+ImaDFZEyXLecAaU/kxcoxNqY4w0FTccdPElIvoA6vK09cZYe/eon535P/Iae4MJcTMGHCgbR9YM+ejqwTvGPqN09QHF1eF7kMAUpGP8wjMREE+TlFFqHd+YfEANV0Ydtd4YnmnPO1OSz2IKP7SXk94sRO1gxh6d/wB/Sul6aS6jDM5Wdt4bM7WnzJL7KzZaS6vB2DBF0VuZAC2B6kxW8PqPQ8ujYe7zUEZt2IqCwf/ZcbCmzDo+Iwx4jHj/oY9RFPYoyyqPZODoByG4EfK7J/bRcIE6MDZpo/GSpot2yI47nGugE2IHmUsujGTguG8Tt4jD8GWWXR9NYHN4EBqy+WcaU5pbZOO42d4/ozsCpgA+9m9ThxaCPN4c58EQMeYKGxC2rfQVeYI3xA623/+UcW3WcaJBwywrCn1FzTmHzrK4M2rNe83DmrU16652mWh6LzrviAnwqJTIaR51O9I9BWTuapSYXjftTXygYFd0VwUSjayrJRPIYjB6gqVsNBzLVqHOwowE2PUWVVK5ddkxr2qS/r68qggE6p3dXUbiKSmt0eKLxmPeke2emJ7KPoCuQIeIbiN6Kw9MOoZJ7R5cfif2iUCKVLflQVqDUqdBHRYID0BpicsB7euRrGCk0CUwcirCilBKcaYQ1rIcJA6VP3NyFWIIq8gLUTOMMjZEGSnvM7TSI0qENlB5BLF0UU/1FnhK8+itnWSbYPkTtEmQ6zILdQZ6/sseGYY6Nx+IWwO45ftoQPy13Cd7dgPQFyevkZ/Z0ITLACe6qiBK8f9ToJE+S6EZgUh9xBiBICirBmxLmJJc22gKpEvFelhvNkb+SwDsVKIuz5CheRd7W5ul/LHbLl6AqChOEXy+Hi75rLFKelcctX4JKAYyvBlRERdcc1SsXM8HvFqt9unaq8oKJrGTsptqNj20JJXgDuHQSvNIGTEyOCuMwoqpjgn/Fl+BVCT49FulFCZCsKGF1+BpYa4zV6qEUgd0QzrV4ThskOwOeo6311v11WJpWMJ5rfvSjdeQ0Sq94YgGXe8aXA2LU1EvWE64KRMgmlkMbBq7/hHQ2DODGD2stRFaoYtSJ8gIOjh/Lx4FrLPgTnQ6aaHGb2NkDRj5FKh7FA2XPxG8umBcTpNkw0Ri3WlyvjveR2JEFGQOKD3OhufoOtO/roMsqwbtDv3h84UCvVjFcaQUXWwbB8TykTPDDSOWBuWmxawFcY2Vofa7iclLG0E9AuU0JAgMmfcjS7QBSxFcD8swBt5xF7KNEmqooFTITqeKrdFIvygtO3FwIGQ9ZmmoqwozYIilT9wwWTkIoNiSCF0Uo/O1QnWcSI9T4uxAYsEC8UpSIMdLEpgSQ0K6Y5P8R2fFrTn7H1oS5OBSziq4FJsGrwAzQX3Pyjg6lia3xnyP+P1GFRMjf/JrjlkaYAK2JfVlNGwc6qcXjzYjqOJuTgydjaGJT91wQYIlXsGMe4fy8qZCPzXLLMVChPMT/xzIb0ijLNHgVyW2H2aqAsgbNn+hhgC4mOkIJGoNwWxVkiFGcgK44UWtc4vOuWqLYLUdBKb+jEHjEGiyAlYTSG4dCSQdpLCpahDb4iDWumS0qmDPt6TtISVJRVlhWfM6AoMpvUuDpDb2X1trG5ZvJZGXwZRHajzqipf+9rx6Qf6vOpm7pWZaKFaELzjnTuSXNMDe68pPeLLUz3GjHzCxDXqE6qARvfvwULljB8Oyu/+usdUprHIf9n0/frbPADpaWrYZX6WPuGUq3Y8Hbp5zuck11IOn6UNnrrpLGwHDzieYgKqOuAZ6WDKp3OB3xCIKjfDCPFw1Ygnf4Oao3LWao8CW+cIVAk/Gh8sHPxUEkxynmARn10uEg8YU2rxOtvrjSe6fBReILkkrHQC5K6ywZbhJfsF742MyUWDYlLio3iS8sHXSsKoZqSX7rXtLjhgPXWx8+sBxj7HAAt56iKeinwICr8iIOYpzOnHTkWtJSgYC78iJKCTznBnNEIzsC+W4Id+XFFo4vHa/g6JR9riWSSKtnQqK8SKUqHz4Gj5zneOdE1L0r9TslyottvHZPV3CUAxxjucNinLVIeRELXUfSTR45sh2/cCEsMiAh4ziqm8dPzpFkZPLaP3QiLS4hFMRdEifJc/IpIkNTNADXC1/sD6SCuB9kYOkUYvwGn0ol68JpIJtwUkHcJ+r+FUlrWoBPZVQVN9sL98o/sSAuLe8cCTAim7OL8TuPFSeD5IK4tIp4NNYBPoYTVMcrvjFyQdw5fc33I4OOrCFIoQXTFplb3qH+Qk8AFQ115LCGeTqQ65SHHLY0OjQ5rKF0vX6hxDrlVU4nvISrQtZg6cwGxxq5TjmzGWI8ieENWDPHz6Of5ol1yrnNEL2Etm32J6n2jFTpag6dcnaP2oRsCKJtFxnPOoBQ+JS7ZX6PWptYlIg8IBJFIIsid8sOPWovigQRZUMljIGpZr+lbtmlGeLFC+YpWsu8rOdwyy6twy9T5qDsOiVo9ZyRBCh2y9w0id/Xm1/8PRQnJSsI0qoX5W6Znyaxf7u3y2+AIR5SMaXxnhydHG555Uar+mmrGnE7VL7Y3a4Rb+zv5W6Zzl6LIz2TEbnoZHphGsLz3VpZl/7XcTCy1+LGpCf+QU0rYv882DP1tbXW192+dJI5C/xltUKDraU0MxltHM7Clrgy0l3gT2duzWi6sjtN5oG77qrOTi+CIQ+/9LZjAjlstDph5jAlM5IbAoG/AL0T1m9wUut0hkQOmxCrh5LqyTN3kWh8CDpuGsIx4T4xOZq2E5AI/Jl3ynNCH11KldcOkg7VFU4rVKzeX065p6RDtceSk8KqNLwDgRsm74LQiR6wJn0Nc0nFzzVJlJsvKIOr9wuqIzrB5a58hEtPd6pThC2wQ2x1JBgYt57uRAA77ZonxEwQPFUuKn93dMso49KEHoBLYcbgf7pODeobjXtLghSwKcwIPOtezEjm3luiOxUDfAozAi0SlCGriWze0eFTmGdIe7rTlV6W0lWFkLllcU93UBN2/KHIE18mnCjM08+Xo6c7oxmm8oTyKfcCMfycPd1/GFNB1AmvuRTkj+u8Pd05D7HuGo+OFOYensmtcJSpuheFq9Bby5HC3EMX0dP9g+V2jOL/bjXJoayonu7M7st2wbOn/qgFq18elEuA2+RXWW9Fhmg6I0mylDxX4hJ99rZggukMTO5a/1UwLjl6uqeClC49Y9cecdhKu0N1+p8yOX55UC4D7B7Me4OM7788D8POpN7Yoj7phP3nrnUvwdvDeNKgXCZqrnNdHWrw/P0/ohK83+8JPkpg7jC7VhpcS8m5CPndywtDseKrMayvbk5OTWyM4XXNya+J/YfMKUIT+6+YU5AmNsbXdcxxoTDzICyrXi0KNwozD8bSbZCNHD3d3cFJRs4DdwozH1gpvEKUoIlN4au0xaMHZbvlFEwkt3oaUgozN0oo9sxBYeaGa94YiTwUZgFYSe7EWfDyUZgFoDYvaropvbmuW05F57MQ72YXN1r9SfRecttjKLG3a6K3DHKsH2VLTw5zRGck7fOo/MXVt34a9eGbe3GkMsH0j6yXC3QelcsIKaPfVn/Aj2Wj9fCmWdEyz+rvdnG8cmlofo0q2oIxUsbqyuj+T49KDM2wPajshcY8T+1bsG7/VZ7ZcZ/e9Cn8/1hyQnXSux8+fPybLrvv3c/pYPS4+grHpecdp+M/68T93GpYjN4AAAAASUVORK5CYII=;" parent="1" vertex="1">
          <mxGeometry x="172.87" y="829" width="36" height="43.2" as="geometry" />
        </mxCell>
        <mxCell id="e4YRFAi6MeH2XxkmIieU-4" style="edgeStyle=orthogonalEdgeStyle;rounded=0;orthogonalLoop=1;jettySize=auto;html=1;" edge="1" parent="1" source="7lQAio6a4aFPDC-sO7yj-27" target="e4YRFAi6MeH2XxkmIieU-3">
          <mxGeometry relative="1" as="geometry" />
        </mxCell>
        <mxCell id="e4YRFAi6MeH2XxkmIieU-5" value="Create Secret" style="edgeLabel;html=1;align=center;verticalAlign=middle;resizable=0;points=[];" vertex="1" connectable="0" parent="e4YRFAi6MeH2XxkmIieU-4">
          <mxGeometry x="0.1385" relative="1" as="geometry">
            <mxPoint as="offset" />
          </mxGeometry>
        </mxCell>
        <mxCell id="7lQAio6a4aFPDC-sO7yj-27" value="Solon" style="rounded=0;whiteSpace=wrap;html=1;fillColor=#dae8fc;strokeColor=#6c8ebf;" parent="1" vertex="1">
          <mxGeometry x="736" y="515.76" width="120" height="60" as="geometry" />
        </mxCell>
        <mxCell id="7lQAio6a4aFPDC-sO7yj-28" value="" style="shape=image;verticalLabelPosition=bottom;verticalAlign=top;aspect=fixed;imageAspect=0;image=data:image/jpeg,/9j/4AAQSkZJRgABAQAAAQABAAD/2wCEAAoHCBYVFRgSFRUYGRgZGBwZHBkcHBgZHBoVGBwaGRoaGBgcIC4mHh8rHxgaJjgmLC8xNTU1HCQ7QDwzPy42NTEBDAwMEA8QHhISHjQhJSsxNDY0NDQ0NDQ3NDQ0NDQ9NDQ0NDQ/NDQ0NDQ0NDE0NDQ0NDQ0NDQ0NDQ0NDQ0NDQ0NP/AABEIAPAA0gMBIgACEQEDEQH/xAAcAAEAAgMBAQEAAAAAAAAAAAAABAYCAwUBBwj/xABEEAACAQIDBQYCCAMFBwUAAAABAgADEQQSIQUxQVFhBhMiMnGBUpEUI0JicoKhsQeSwVOiwtHSM0NUY7Pw8TRzg6Oy/8QAGQEBAAMBAQAAAAAAAAAAAAAAAAECAwQF/8QAJREBAQACAgIBBAIDAAAAAAAAAAECEQMhEjETBEFRYTJxFCJS/9oADAMBAAIRAxEAPwD7NERAREQEREBExJtqZwdo9rMNSuobvGH2U8WvIt5QfUwO/F58/wAX23rNcU6SIODMWc2/CMov7mcTGbYxFTz13t8KnIP7lj8yZPjVLnI+q1MSi73UepA/eZU6isLqwYcwQR8xPiGIw1M+J0Vj8TDN8yZ0uxGPOHxC2JFOq4Qpc5VDeFGCk2Bz29niywmcr7FERIXIiICIiAiIgIiICIiAiIgIiICIiAiJDx+NSihqVGsB7kngAN5J5CBLJlY2x2tp07pS+scaEg+FT1biegv1tKxtnb9XEErqlPggOrD77Df+Eaes5QAEtMfyyy5NekjaO0K2IP1zll+AeFB+UHX3vImQCbLzBwALk2HOX1Iytt9hmms6rqxty5k8gN5PSamxDNpTXT428vsN7ft1mS0QPEbs5Fsx5cgNwHQfrBr8tLIX1cWUbk58i/8Al+/DXjmKozjzIM6/iTxL+oElNNTi4K8DoZVaV9twlUMiuNzKCPQi83yv9hsV3mBw5JuVpim34qfgb9VMsEo6CIiAiIgIiICIiAiIgIiICIiAiIgaqrhVLE2ABJJ4Aakz5jtvajYioahJyC4ReS87fEd5+XCfSsbhhUpvTJIDqVJG8BhbSfHMfhq9Go9Cq4DKbqQls6X0dSWOnTgdPWcdbUz3rpI9JorYlE8zi/LefZRrIwpg+Znb1Nh8lsD7zOlTA0VVUdAB+0vthpsNV38i5B8T7/ZBr87TxMGL5nJcjUZtw9F3e++SESZkSdI21uZg0yaYOdII0O08XSDNdMamVXfQP4Z4m9GtSvqlZmA+7UAe/wDMWl2nyz+HuKyY16Z8tWkLfjQn/CZ9TlG8u49iIhJERAREQEREBERAREQEREBERAThdp9gJi6WXRai606lrlG/qp3EcRO7PDA+I1aTozU6iZHQ5XW99eanipGoP/iZJPofbDs936d9TH11MG24Z03mmx/UHgehM+dob6j/ACPoQdx6S+N2wzx0lIZkZqpNNt5dm1uJqcTewmp1kERmEwA3za4mFpC7DCYs0cThqw0CVlDHd4H8D39jPugnwpcC1c9wo1YWJ4KvFz0F/c2EvmG7aU8Opw1fvHrUmyXVCe8QAFKhY2UFlIvrvDTO2b02x9L1EpVH+IVM+bDYhdf+U2nOy1CZZ9lbUpYhO8pOGXceBVhvVlOqkcjCyfERAREQEREBERAREQEREBERAREQMSJ8x7ZbM7jEd4otTrknTctYasPzAZvUNzn0+cvtBspcTQeiTYkXVvhddVb2IEekWbmnykGxm8GRkzC6OtnRijryddD7cR0Im4PNZXNZpk5mJOkwdwN5kzAbPq1/9mlx8bXVB1zcfQXkZZSeyY2+kBpvwGzamIPgFk41GBy/l+M+mnMiWfA9mKaEGqe9fkRZB6Jx/MT7TvsgAAFunT0nPnzfbF0YcX5cvZ+zEoplRTc2ux1dzzY/sNwlQ7aBBiUCHxmmc45AN4CTz1eWPtB2iTD3poM9Yjwp8I+Jz9lZRKVBizO5zO5LO3Nj+wG4DkJXixyuXktnlJNMGoWUlc2YAkHMb39zYy8fw2rfX4hM3+7pOy8MxNRc3rZQPYSpXCgsxsBqTyE+j9hNjijSasbd5XIdrfZQCyIeoBJPUkcJ0Vnh3drZE8nsq0IiICIiAiIgIiICIiAiIgIiICImuo4UFibAAkk8AN5gUDtxsQrWTEpYLUIp1L3sG3U305nwn1WRsJ2XufHVJ6KuTTlckn9pz+0+3fpjWUkUB5Rqucjc7fuB7+nT2V2mp5FWqWV1ADHKSGIA8QIBGvKUz8pOkTwt/bt4HYlCmQy00JH2m8bezNe06lSottLkysV+1dJQcodyOSsL+hYAfrONiu1eIcZURKQ5nxvb08oPzmMwzyWtxn3XHHbRp0U7yq6ou7xEC55AcT0EqO1+1Lv4MPdU+Nh4jf4VPl9Tr0ErrUszmo7O7/G7Fj+Xgo6C0LVv5Bm+9uQW+8d/tebYcMn8lMuX/lkUCgsTvOZnY3JJ4sTNq1FRc7GwPPT00kNGZ2y00as44hGZFP3VUE+9ieoll2bskUmFSrh8RVqDUMaThE4HInA9TczaWRn4291hsnYT1WFaqMqDyUyNSeDv15Lw3791kobOenrRqGmb30AKE/eTcfUWMmYLFI+isLjepuHHqpsR8p0VQS0kqlyuP6acHtplsuJUJfQVFuUJ+9fye+nWd5SDrOM9G9xwPCc6pj3woCohqI7BEQsF7t2NguZvsHh8J03EWrljrtrhyeXVW2JxMM2NYAuMPT+79ZUPuQVH7yWMUyf7VQBp41N1udPEDquvHUdZntrp0IiJKCIiAiIgIiICIiAiIgJXu2zMMFVychm/9ssBU9smb2lhmFRQQQRcHQjpA+DM9mzEEgqApXWw4i3XnJSDTlLftrsrQOIp0qOaldXqPlN1CCyqqo11S7NfQbkYenp7Ep/xFb/6f9EvjusMtY3W1Jeq17KjMfYD5sRMKtRh5mRL7h52PoNBf5y+r2Ko/aao3q5X9EyzpYTs/Rp+RFU8SBqfVt5k+NV8sXznDbLqVbMEbL8dXRfy0xvPqB6yzdnuzS1mOds6UzlY7gXFiURenEm++wsbkWPH0lp03qHciMx9FBM4+3kqYbY7d1cOaal2XQhqjA1X6HxMb8JXLprx6yW3BYnDKe4ptTUj7ClQfkN86Qn5RxFdVFJ6LVe+8TOTZQr5vB3RU3tl334z9QbGLmhSNTzmmpf8RUXlJWtj3H7Np1gM66jyuNHU81Yag/vxnDw+JdKrYep50AZX4VKZ0D9GB0I567iJaZwu09AZUr7mp1FF+aVGFNlPS7K35BLY3VZ54yxJU3F5F2jhVqIyNuYWuN4PAg8wdfabcM3hnA7R9p1wzd0q5nyhtTZQDcC9tSdDpNrrXbmm99LRsTFGpRUt51JRuroSpI6G2YdDJzoCCCAQRYg7iDvBE+X7A7YutazqpSrVQMAGBUvkphlJJvwJFtdZ9TmFmnXjdx817N7exSbWrbLqMalJQxQsBmRAA6WbewysFN7m/GfS5xNnYemcViaoRc4KU2a3i0po+XNys66ek7ciLUiJGxGKRCqsbFjZRYm50HD1ElCTERAREQEREBERAREQK61O+LqueFOkg9jUY/8A7Hyk60juLYioOaU2/wCov+GSZth6cnL/ACpERLs3P25hy+HrU13tTdR6lSBOjs8JVw6ZlDI9NbqdQVZRoee+eTmbHxH0eocJU0VmLUG4ZSbmnfmCTYcvSZck+7o4cvcY4bsHgKdQVVw65gQygliqsNxCk2FpZ7RPZm3eSv8AbGp9QqDzVK1JVHOzq7f3UY+07ruACSbAaknlKZicZ9LxCsmtGlfI1tHqNoXXmoGgPHM0e7pGV1Np+IxfdU89rklUVfid2CIvS5I14SPtDsZTr+N6r96bZnFsthuUIRYKOHHmTJO1MKz0SqWDqUdL7s6OrqD0JUA+sxobZxDv3K4Xu6mXMS9RCgW9iwyXZteFh6iTyeW5pnxSWXftHwfYTDJdmzu32WZrZDwZAtgGHBt45zdsLtCXorTPjxKu9IqOJpO1M1X+BDlzXPoLmwnKpbWxteuuFWrh6ZdKzZhTdmRaNXuWy/WWZjvF7W5G0uGydmJhqa0qYNhvJ1ZmJuzOeLEkknrKTba6nTLZuE7tbE3djmdrWzOQAT6WAA5AAcJOnM21tHuKRqAZmuFVRclmPQamwuxtwUzDD42oyB1FOqhFwUbKSPuhrqfdhLIdWQtpVSqqdAM4DMRfItj4reoAvwzX4RTxyuGCauoJ7tro1+FwRcAnTNqPWNm1KjJequVrnhl8PC65mseG/hfS9oGeBqllJJvYkBrZcyjc1v0vuNrjQyXEQEREBERAREQERPDA4u0bLiKbXHjRkI4kr4109M8kSlYgNUr1augrU8QchcmyqjWFO41VXTl8d7HdO2naOkule9E7vH5D+GoPCfQkHpNsep25OSy5WR2omqhiUcZkdWB4qQRb2m2WUJrxFBXUo6hlPA/05HrNkRSIdJa9IWSoKijctW+YDl3g1P5gT1mDbWxO76PTB61G/wBE6E8lfCNJy5RwsRha+INsQwyf2SAqp/Gbkv6aDmJ08NhFQAAbt3SSokzGRW53L2xKyDjsK7MtSk4R1BUMVzqVaxKutwSLqDoQdJPMxaLN9UmVl3FV2JsN6GMpVqlbOzGogAXIqowqVXspJuWexJvwEv8AK7XrIlakzMFVc7EsQAAEy3JO7zTs/S0NM1VYMoUtmUgggC5sR6THKSXUdOGVym6gg95iGP2aICjl3rjMx9kKi/32ntfZSkl0ZqTnUslhmPNlIKsepBPWQMDtAqvdomep56hJyotR/GVL2NyM24A2GW9riZ4nH1UUu9SiijUkqzAfmLr+0r5Se2nx5XuNe06GIHdsaiErVphStNlezOoYZu8IClb5tN19OVmld2XiziGpMw0VTVJtlBzZkpHKSSMy5nsTcaSxSUdzqvYiICIiAiIgIiICeGeyJtHHJQptVqNlRBcnpApHaagPpqmk5pu1ItVsAytZlSlnTmfGLggkIOQmzCM5BWoFvuuvlcc8p1Hob7t5mvAU2qM+KdSHrENY70prpTQ+gJY9XadNEnVx42Y9vN585crpx32RTzZ0U034tSY0yfULo3uDJdDF4mnazrWUC1qgCP650GU+mT3EmtTE1MglrhGc5cokYfb6EhKoak50Ae2Un7ri6t6Xv0nXVgdRK3WpKRlZQykaggEH1Eg4d6mHYvRLOgGtAm+n/KY6g/dJsekpcbGuOcy99LpEibNx6V0FRGup9iGGhVgdQQdCDukuRF6SNtDE93Tepa+RGa34QT/SSZE2rSz0aifEjr81Iik9qTjts4lPGa9jxUImQHiAPNb1M5zdrsTVuhqooCFy1NQHsCBYliQu/lIOPxa1UUG2qjwEEsdLkZBqbcpDpdm8RU8YK0lIK5St2Kkg5io8u7d79Jlle+m2ON12zXab1XYVHFQI9lLnMyoyKRZbBc1z595l+7MvfZ+KI3Z64X+UA7vvXPvKPs/YRAVs4s7qL5dLM6optm5W+Vp9Wp7HWhg6mHQkkpUJY2BZ3DEsQNBqd3ASuXrtph3dz+nI2Zs4MatTvKi569W6q9l8Dsg0tp4UG60Y3B0lOTIWsMzsSzuEJyhULEkO7eEWt9o7xN+BZ0VxkbV3qK58KFKpNTMXOigFyCN/hOh0vK2JhO8IqEkorZgSMve1f7TKdQijRB0vwBmMxtvbqucmMkdTZGENNLvbO5zPbcCQAFHRVAHtedKImrEiIgIiICIiAiIgeSldrG7/ABFPCHyU1Fd1+NsxWmrdLqzewl1lIcE4zFOeD00H4VpI4/V2luObykrLnyuOFsS0FplmnnSY9Z3PJZsZgRCmYuTvgR2a4vI9DEKSQCLg2I62vb5EGc/ZeNvnoWZ6iO4KqCzZCxZCeQysupnmCwpGJqO6MhCoQrZdM4KlgFJ3hANevOY+c3JHR8dktvpPw+LGGrh7HJW8LhQSRWUEo4UC5zKCD+FeZljXaKEX8f8AI4/dZU9uI3dsyedBnX8aeNf1FveXrZdYPTV13MoYehF5z83JcMup7dPBjM8e/cQjtBOZ+TX+Vp59PU7lqN6Uqh/wztxaZf5F/Db4cVdfB5iSuHYE72IRL+tzm/SaMZRp0EapiKioqqWKoSWKqCTrbMdBuUA9ZaZwe2JUYSqp0NVRRuN/1pFPQ9AxPtKfLlldLTCY9qZhMGXFCklqbPUFQDKCECsaxUqpF1FguhG8S4bW2u9Kky1EUu4yUypOV6r2VVIOqG7A210B10nJ2Fsk1neqtR6YpgUkZMvm0aobMCrDRF3aFWnm0qbpWao9Z664WmaioVpopxNS6UUBUC7WzbzpnQzbPe9T0cU/13fd7dDZGF+kEo5zUcMVoqn2alWkozu/xBWsoU6XViQdLWyc7YuA7iglK92UXdt2aoxLVHNuLMWPvOjCxERAREQEREBERAREQPJUsQmXE4j7zo/saaLf5oflLaZUttkrjVHCpQuPxUn8X6VVl+O6yjD6ib46yvPGHCAZ7O15bEC2kMZ6DxngECLSJo1TXRM2ZcjquUMwGqsLkAldRbkx5AHWrtUqPXZSmcKiqSL5EzWJtpclm/STGE1sLCZfHj5eTb5srh4fZHxKgqQeKkfMTtdiyTgsMW3mihP8onDxz5Ueodyox+Sky27Jwwp0adMfYRV/lUCcn1f2df0fqpsRNdWsqjMzBRzJAH6zkdjZKT2wx2asmHQ3KeMjeO8ZSEzdFTO7cQMvMSwvtXMD3KGobXzeWn6modGH4c05PYfZ4aiuNqeOtXDOzndlc3ARbeFSoXrYKCTYTTine0ZTc024DbCUcOi08PiXUKMpWk16hOubXdmJzXNt8hKhaphaVRcr4iq+Lqo2/wCqVWRPVGNEf/HLGdnshvQYAf2beT8hGqe11+7Im0HVgpqK9J0bOtTLmVGAIJzLdcpBKkNa4J3G03Rt34nK2BtM16WdlykOyG2qsVNs6HijCxHrbhOrAREQEREBERAREQEREDyV3tYoUUaxsMlUJfmtUGnl/nKH8ssUqv8AEUH6ExW11qUWF+lVJM6u1c5vGxpzTMNNV+E8Z7Tu28fTa5gGY757aSh7aeuBa0wd7SDtHaApJnYFiTlRF1Z3O5VHP9tSdBItkTMbb09rp31anhF4kVKlvs0kYHX8bAL6ZuUvKiUTs539HvHagHq1SGdy4CqAPDTXQnKoJ4am54zrPjMW39lTHMZqh9gQvznm8sy5MtydPW4pjx4ybWa8gY6tQQq1UpmHlzZS2vBb68OEr1XDVXPjr1GHEAimPbIAf1kPFUhSASko72o2RNNWY8WO8gbyZWcN91b5Jeo7r1nxqtTpZqdElkaqRldgDlZaSnUG4ILm1uAO8dzD0FpotNQFVQFVRuCqLAD2EwwGFFKmlIblULfibC1z1MlS8xmPpfZERLIIiICIiAiIgIiICIiAiIgeSsduqoNGnQJ1rV6agcwjd6392mfnLI7gAk6AC5PSfPdoY36TiBiDcUqSstHf4y9g9UjqAAvQk/alsZuqcl1jUutiFUXPQAAEkngABvPSQ8RjHRkNShUUObLcDU6aebQ66A6mWbs/skr9fVH1h8oP+7Q8PxHj8uGvWx2GSojI6hlI1B/70PWaZct3058Ppp49+1N+mWGqVFPMo4HztaYDaF9Ajt6I5/ZZ2dktfC0XfxsyIbnecwvc9bTDZ2Jq1E7xcOSpZgpV08SBiA1mIte0jHm2jL6XX7co067+VAg4Fwf0QEH5kSVs/Y+V+8di72tnb7IO8Ig0QempsLk2nUY1f+HqE9Go/wBXmLVq40GEqH89AD3OeTcpfdTjxXH1G5UEwY3kZ6GOfy06CbvPUdj8kT+s209gVH/9RW0+CiGpg/icksfbLK3OLziyvtDxO0UQmmLu/BF5/ebcu7iZN7M7PBAxjNmeqgK7wtOm1mCIDrfdmJ1JHC1hyKOGTD5qNRcgDsUqHyOhJK3c/bsQDc3Nr6zudmcSvdmmCCEdlUjUFT4hY9M2X8sy8rbqt8eOYzcd6JjmE9kpexEQEREBERAREQEREBERAREQI2Mwq1Uam18rAg2NjY9ZCwmwqVNg/idgbgsQbHmAABfra86sQiyV7MHW4I5iZxCVTTZmJVBh0C5FGRalwCqbvJxYDduH7mwYRQiLTVMqqoVVG4KosAJLiVk0m3bAOJkGE9tFpZBeezy09gYkXmPdDlNkQNfdCZZRMogIiICIiAiIgIiICIiB/9k=;fillColor=#F2CC8F;strokeColor=#E07A5F;fontColor=#393C56;" parent="1" vertex="1">
          <mxGeometry x="839" y="488" width="33.63" height="38.42" as="geometry" />
        </mxCell>
        <mxCell id="7lQAio6a4aFPDC-sO7yj-29" style="edgeStyle=orthogonalEdgeStyle;rounded=0;orthogonalLoop=1;jettySize=auto;html=1;entryX=1;entryY=0.5;entryDx=0;entryDy=0;entryPerimeter=0;" parent="1" source="7lQAio6a4aFPDC-sO7yj-27" target="7lQAio6a4aFPDC-sO7yj-1" edge="1">
          <mxGeometry relative="1" as="geometry" />
        </mxCell>
        <mxCell id="e4YRFAi6MeH2XxkmIieU-2" value="Create metrics/tracing User" style="edgeLabel;html=1;align=center;verticalAlign=middle;resizable=0;points=[];" vertex="1" connectable="0" parent="7lQAio6a4aFPDC-sO7yj-29">
          <mxGeometry x="0.2504" relative="1" as="geometry">
            <mxPoint as="offset" />
          </mxGeometry>
        </mxCell>
        <mxCell id="7lQAio6a4aFPDC-sO7yj-30" value="" style="shape=image;verticalLabelPosition=bottom;labelBackgroundColor=default;verticalAlign=top;aspect=fixed;imageAspect=0;image=data:image/png,iVBORw0KGgoAAAANSUhEUgAAAOAAAADhCAMAAADmr0l2AAABaFBMVEX///8Ybe3+/v4Ta+0YbezE1vo1e+4PauwAZ+z3+v77/P4AaOzq8f30+P7///rd6Pzn7/04Ps87Rsvt///v9f6AqO1XXtDCtejU4vzZ5vzI2vvN3fvg4fVhWs2r5v81Q8yvyPiWt/a4z/kqde5uMcn87/Zdk/KOsvVEhPBunfOevfcjcu3W1/L//e683vn33eyFa82VdM6pgc9nmvN/p/RWj/GwyfgyNdAwUNn/3uhNivEuee4AYeu/+v7k9v+tdMjj///y6PXhxeSWj9xfTsyyjdQ5WNGElN+lldtogtqXoOGZiOCEi+CotumUb9y7nthJadqDXcgvKM4VI9bWrdm9nNPrv9tSQtfKxujWu+SfbN3o1uu+p9a6gssiRtfet+lsa9aKfNVieNtztParpNpbR8lTofLozeLF6fsnN9CXx/SXastvU8vE//1Lcdiq6vqBSsiHUcjIltiTzOiQyv95Pcn/0uTtuNpnV63hAAAVpElEQVR4nO1dC3vTRrqWNbKuViQbO/Ul1LK01rWHFCw71M5uEwhpS9vl0rKUwy6HQlsI0J52D7v798/cJPkmOQGsGB69D0kdezSed75vvtuMVIYpUKBAgQIFChQoUKBAgQIFChQoUKBAgQK5gCU472GsCQm1D5LkLKcPjiLhQ1nh/3xQFBMuUr1SUWX4Dnn7HMf0DhGJjWF10wk9L/Q7EqH4IUgx0U221bMtQVEUgXPDUSX55L3mGEuPqRtjTgBcCQGUgoEWffoeM2QjITFyfeQCoTQFZRK2VTa2N+c91DdBQg8q51hRAJjiBwAQOc+svMdSTMasj4bCjPSomgLBCjv199OiRg4P/rR8eyKUwAJBTLHkekaFee8UNbGcUjl0OYWaliXgBMEa9rREUd8Hjon0WC0sCctkN7sYFd6QmFhTN51iTI+tN8OJuIIegcDZhibHvv+cGWQiMZyaEU5mDWc6uJKiuH6nsvEWdcqrm8NSxtJbwlEQ+LA5F5RvFtiEnmR6vIIEcwZwHOCGvSazqY4x8urwp2LYwelUcx6gZIVtaRMpstSRQeG1nGBfyeKXtS5heCO6RoXdNIqxX5A1fwz9QoZuAhBwi1FN8jG0N9zA3KjwJvHOartnxwlDCgErNIxBVgM4BYoVmtBrbIbvT6xexQx5kCEcIqCeCmNTW1nRDIY3TovdBJOahJwd2wKr/YLVQZf44qp2ACbFvcq04zknesS0sGqzwSnQ0q8ad8lqofbGSoKIIjI3cXhzTvwir24D8XRez0K+/BQSxOZGUKDvl+OvOQeC+LdaDvlMvzA96qCMxto4BUEEDohjvyUz58SQWIBmgz/F2ovFYqDLBiuMzBRFgRv7lfNhiNYeoxru0lw2laEDL5LcFcZ2BkpgtzHD3Amif23rLGOFCOFFlckpswwyJyXFRVp6DgShAL1TKxsdrQdDTc0640WiwbC56ygWoHG2kcIoBRFsBWe8ShnX82eIvk0anlWAoAGHWXeFM2VSMMBrnw9BnTv9WoKWFkWZTRLJoDLbGUgGRv5mBi3B8v5p2UE1E0VguSH2260hH4iiqJyWIyg5ct6eAn/Z6Rw24GBkyXtGp0Kuw5dKmtEYBuCUcgTjFpM3QfRroMwOD4Al9h8IgmX3OlHuwzLxLn3F8NzS0sLUwnu8GX9pjgTr8w5b4azSXNQG6bnhCGd3yfEDypNh653eYDJvqATFmszlXSDwpZwXIc6Q5vyZ4JntkRfM7rHwvaaaol3oTVk3B7MpvsD32p2eO0tQ8SpMrgRxnGbM+jMwQalCxZuSIRxYR8paPKifimFNCREEqMwt+bN1K2WsnQNBZ3YFKnYdva+5Ig1PAbB69ZmNmOldlrgCDlVhGK86wDkq+qjMzxAUJp18ozX0VaonzM2yjsfeHJPRgpLXmqbE1ltlDfszqdnUE8HC3xWH8hHQlKDWo/lwbpS/k9DtOUvAmYRKBwc4AAz0SFjwp94ZNcacQV577qDX0aVI6VBWgirFAIhEfkzLm+Mn9qQc+ZGwojNnRIHg+jqm2LGhFw/CVqyLUtP33KAk7BtU9iL0jLZTrkdZJSOZE0URrQbWcqY8COY8heKpeeoo1jpjISkQAttA2Smr+c7YUONiQzN0AwVGZ2DfJARDERmgEm/7KlVfhi2PPb+DWMjLcmjB1XMmyKjOklRX4OwWHi5bZ6NykepPosUqtkmQ7mCzCYAABk0S2sB/KnF1sjFZsqcISs28CWr2klwXZadliaEBCx5vcwD1MbKRTUpQxALiYBA38etM3BpCd4JlOTQQRzknFKw5WZ5KKJyjJ0FZxXCTYAxwLUIwLqtx0MmHHTkK4KB7GKZUeMSQ+KbcIPVSkjoYWY9i61gJp+UhWDr+RJ6qG0I9dc1o0lhmkLYnrIzZ/AgSQ5FWK+RKDTVq1+KnByxMKoSgMa2Fyn4j7je9mgEmen46ir3gOLXcJHh12o6VmyHU2Yij4taJ5RlNDVx0R2os8eZ+WgmSE0ZMbhkTjrTTEjlO4NvRgLFPc2NRK2Pqrc2YsxA0KnGQmVkTFgeZUe07JsgyZupIlIYUrxVEsT2M0gVhKJO3yzRMBwraYmGT1lCnUxSDU6AnzCvexpF2GkHB1aICCo1CtR6Mw5DIlAHtoGxhCSqlQVuKYhliJOfTiAQgaOdFEK11OW2PjxN9MuR6ux6FMpJpY50UQtpDe4KnYmzo8RZOk06LnlbXB8DPy8qgma6neEE40ToZqckb0V47zPkcFJ0oDpVAByYPQBx24s14GLk3iNBlP61MA0Imn0WIVUlLO6KlDCQ8A5ItTsx4Hxq6vgAoVpkS1IaKEpBkiqHhjjBp0t0APqWwD2w1H4Z4GKP95fMMrTlxyGURwJimHjNkOg3PlKMd21bPayeZL4yKFDgzpCpR91LMDHBb+egoJphmY4BFBYHsvSD01Kld6NjM42LMVKbfcRU4M5MyMTXLgnjcNW2QB0FGXhZpYw21ddxI5ZEOC5ajJfdKJKFWUmLDJojGDA6OSRnTSmEY+LkQxONqpdgYIDh4oTBlWpbhhp0srUI7FQ4pHALBJpGqlrZ1ITTiU5frJsgaKbsSwKK1k15k7HE9LL2qhq0PHT/fiWo9Kdrh0dr4mgmiMYSphoAMsj6IG4jDppzCELmH3iRqCQKShbD+8r7hXLXy0FGsRWmRNio0IXTcRMLKxIijaVZWIeIKN8qak56EnoTf76TsH+ZkZVD/5TQ3TzMl1rBmsiQzroqaDcdxWpE1lUNxyqAoIclCdD6tdz+HRYiHZqTNMdcje0e92YjSpwQZjVcgwkiis7sbyBOyC+9OQcijgI90RE51VcSSwzUafw7DEoWWQ6HFxBEsbkXissG+kMQtylCjcW4aQT6HyhPqvjK/bxYjiCq7pLbNQeNfmgx9mj/pY3KdQhYTYhyOLRBxpHkIk3qOBgj++ssW2AuO0yJRSrCCLD0AgsDxw7Ac7y5pVPeAZUbpFKOPvLFVUhDJhGBaKiaG8rrPV5I4M9UKxBJUFBFM7NAva1IUczLxqRPBbcZWBzZumT1vHMC1uZIgKgmsWYS4wGeklSsAJaiGpXHDaGvEpCZXG4ggVxJwXB31CH/kSqvcG/CrVJTmYmsVIbaRTuoAOGJkJNPU0Y2ss2NBRTMR3ZOFNG2xVyhJWnSz05Z4SezkQbCecb4JH4eIcqT5kcBkbwAdJO/o82o2ffcyo7qp/Ytrz+pxspt6mE7gDSnitmQU6D3NN5dvabPxjKhh6rl10Vt3fRv13rbmbAyABhM5cGAZK759WlDpTSBDoOAO542ZsO5zeThV9efcPFBKE3dse9Bm1qdrgNErWdW0qJKYZIVoo6WpS+x8axyCm77jDYbuBMyvRiu+N2ZNBOFPZa6gBjiv3NJ0ndwfH/PA1OqtsuF49tgN64vLrjx0x4PQQdaWneGIZlGtV3StVR7PbhAApbfeeBv13JyrXM4Y/aShXOn4ME4JUDQjCGJ5YVRqKMIPQIkLJkNn1KzPfEmE5lxYrwxUZr0E0Zn5GbUh57BJjK3WJZkWyhx3UhIVKmuOHPmcBTLGHL7PFR1k43jbJF8hy3WqDKga58zaG8FtrZMgXj/hXJxBDpozqtb2PdsxNLLx2dufthDRzuB0X7LPRXUNLBsYoOK3y/5gHPptHdccJWfOzgQms8ZFiPudP3sA0D3/cscZWugpB/s9fDBwbiNMtImVSapqzPwpBiEkylexoeBFZTKAU8Uw5mRuuwmGEusuW8wHoiDwDMNxySk1oAzJ5qDkTQkaAD+qEepmmXIlIXnMz+oQ89FxkegBUAK7Z/iLBSgnd4JIb4K4CAVK8UATY0syPbx7ZAdWSDbRWMYPEoez75A4V44qMhwyP1xpIfNcK0G8BpecYwalmCCnDMhImXa8Ewbi/E+CiQIQe3Q9TpV2FFcl86KNlaTXxSI+WK+KspkbZ5E4qQjVRjQ+KkD400QKJwzpRq/ci/QPlAwyajl1+4w2tMrrJIjdRCdtjzIWIc1pmpEwgCMRzjLa2OdgREfPxsCoNjrWVokUO/tGjHWfq8STPJpkDgJwPXIuBO1el/CZUaqhMkkkgWBHEu1hbQBBQ6fnZFbcWojKyGtNJ7COqk42QWHcIg3ZtoUlZtM4rRXZxIAE5VCE+F70qGgP1232XWwAlNefTcB/rfQTFngYpR5VScZEx2QEJ5JXNHhhTPegJBhrAsXtUJXV7RX3N4fS2vNBaiAzLYEwGZF74hgYUHMKT9k0k/UletRoGuR4G12SduYdIyDoqesNtSlDdBZrPiWcY+iWo3lu2mIokwv9pFwMyB0iyCuUQp3yk6CEs27gFgb6+vlRJZV8JfO2OgEZA2I2Wg4VIJRPfAmnhHSqRr2IH1t2M/VTcds0Wlg3Q2xowhXmztaj8xMq2desN6alQ45Hwo8libaTzcxbmjjBGiXR7JoZ4piLz2aI9hEoQ5LEm7OFFnR6kJmuTJnZWl8SewtlurURxDHjyM1+aAOwm9MGnfU4TogBvYPbnpmydrZzLSlhjvfyEidXzgw6AFyHZSkeEFyLZs+zh67L8647HIR+pz5VhdENPvuWO2GQ6528xCj4mUPioH9IDqIRi1LRmp12u9PU6jITm0Ok7wMu+0Znhewc58WPrqrKcEXYLZRCbUmVjf6V8OvYK578JEz8tXv4eYo4ouFXMASlYXuhmDYfarHmZDHrm+0mMCQ2Bw84O04cWg1TdxHo0Ia0RrSs1svSYnZ71aOtYAKZq4KS0eGfspWtXADZShgXqAtjw2uyjp9VMVemW4BAk+Fc+VElrfcy74nHBSm4WP3Q6OizJNmKVvY9Ey2t+ULrAj+ThsA5A39hHUal6cMjW7ktzxI5fhD2DLPdbGmtVrOMSvNDviRiO5tZIwDKuM2eCz+6DFUvI8NR0AlI2UNrDCgCF1jQByLwVkB3rQNfRiXGjDmKc8f8QRi20kMQAJAAOxyuA5JkniKuU6Fcl5EaqWEfEKJixnmAGBozzdDQ4yIzYTmIf9G/sRJrw7Q4Blc3zuFBFpQgqSSlJYeKh0yImjp4IlIYQ7OykZJB5x3BLGdYd5YyECZtHKZkZ//keFPdWXp2SuHKTN4efhlD3VvGQfHwdqifcuwrmgYe5/bNZckusPxzMzCzDNv8kohGwNVQKVzx8BgBezl9vOSeQS6PGsxKhvjXaEn6Sw4PrqrkYkEzyyQIQFg5RwMTg3y/yS0ICliGppn2qqdVgFLY0creYitgtzaBXxQGLzkcJATj8dLbOeeIKBN38clJQOHL5xOhLRKk2wxLnPWSp08vleGSByKCUu4pYDqwDNvjMz7nJ5u02GM3hl+U/g7P+ISuLAihdP4GNAFZK0aQnZifHkBxW+cawSyAlHbDd8UPjE2J2SR+VEm14WkfcpgNAd23xmyOgiIQJW2uKHefEgpdgJtEMNpXO+ujAJfyw8+J2zB+dBnKo+zc4TTAO1Obxy/eV3vDZ2xHILtkm+MBp4EZVt7SlAqWIW+SB5xGXAx+GwHiZzotrRNvAMig2txbMBRtbVPlx9D6PHn0gQDODnhREOqbaWAikDpbxR+M+bPDHYYms6kGJgJhyNRb7fKZ0dHlSAk2F/H/tuAcrs4J9OTrGyG5fpPxFjfApdwxs3l4M/m9L+wQPnB6BQoUKFCgQIH3BoefIGgzfzVXXdLKbiDvwE505vDCOxnhW+La9aOT6smAjGXrxl715PgLYzaq2tFn/uzfqHJ/yery8Muvbt78+ptv//rndzzWN8PWrWqtdvsSfv3Zj7VaNZyb+P7Xl2b+3r3TvftxRofsy9tleNWD7e82hOBHnx7Vrvrk5U/btWpjliD7/dVZgv17e27WY7H/tjfAAr52f1MI/vBptzt+Dl/2bz64uEDw++ocwVX4vMt1cMf/vSkEO/e6tWMTvnx482FMUN7Z2alAzn/fq101dnT0506FPdzR+5/AV/hG1z58odMXuhyfp/xHt/vI1+Ff/3MQtUKH9g5xh7AD9GLnkwv4DZZ8jh45foh7O9zR3nVatfVReet+rfpLnWEfjD6LCB5++fiLV8MWs3vzfq321XUTWpaT6tMHR3v8wx+rJ9/BNbj18OXRN0dDk2Ef/vjNFzdvfhsJ/hlc09XfviWGmd25/OT6Rdhl/0b35O7Taxf3+J/2Tk6ufnXQv/fzMXz/8Mrj6xe9vzDsvZ9P9n55dnFPyDRgb0YQalXt6nOm/+XziKD88uQFs4sW03/9qYZVdPfTbu3JTz92v/t1905tDxJ89mrv4/6V6qOD/sv958zuX59GBNlbP9dqsLGP3nj46uTPW/f2nsIpu9ztPrl5vfrdrw/u167+CkV3+QXLHN45+Zh5sNeQmD4cxG83f6re/d81EPz3Xq36FEqLjQh+v8e3mK3fH71gpwh2nxzs/uEyuy8Rwf6V7tULW9/vXT04/P3qV8+Zazfjpcs+eAWF2D32oNyuVIfQ3Pz86IDZhQRvH3x2x7rQf9mF38Y8++IvTP9WFRqsh78/eo46rF2Fs5Xtgt6QoPyy2+XZG5cYSnDrj66rwd8nTy9MSxCaWkliDj9FBJ+96u5fYFhVhULodqGyydN9/vN+t4bm7OGr7gARhH4FEkS0ZJXZuna/tnewdcuEAvyja8uw1d4LRLD7C/58DQTZ/3Rre//3zUFEELKqHW9vP37cUKcJvsYXYIJokPtUZpAFXHTPow5vHKBebx3VYINncAVvo45eRwQR+vDl692bUFSHf6KfP40IvnsgglAKtdrRCyYm+K/uMQ3HpgleSghCqdROIjfw8DpiGMVvN0iza69q1YNnP3ct+jYi+IJ+5d9r3ds/oduxDv9VC+g0QYLV12sjyN6rwgUQE9yCKosG09fkNIIPX9W66Bno/QvqDtP/6E73UeQtP/fwkGGEJFyArR4h0e4+nyZIFjR6H6k37r2FCT5dG0G4pKpIP2IjU60dv2C2figjI1P9uH9pmiA1MrCJL/e//vXwG6hrz+4fdyKCV1+g9bh14+5rrHcwhuhDdZwmuHWjW+uhF/Ktavf2c4b9trU+CbI/NpC7vYIjx2cXu1UUaPUvV7vHj7cdaEZeVrvb939FEWj3KfbB0Lygqf7sTrVb2669Zg9//63NXLs7iKzf53er3gGzde8uchywcXf78fElHMJWf4mc+L+Pjsma3b1TrcLPocNAtnUoL47vbfHP2vbFGpzZB2NozT6FlmV7+2ggQ/sNX+DzLP3L29uXoBdDH6A4/D/IKhw9OWDYr7cv3oYB0OEP0vWj7V5s3W8d9L98dXQ8IAwOYSukjf3LsO+jrw5oo39ED+Xuf7m9/eQSy8hX4OcXbx8wBQoUKFCgQIECBQoUKFCgQIECBQoUKFCgQIECBQoUKFCgQIECBQoUKPBB4P8Bj2MTQwfd3DIAAAAASUVORK5CYII=;" parent="1" vertex="1">
          <mxGeometry x="130" y="311" width="131.41" height="132" as="geometry" />
        </mxCell>
        <mxCell id="e4YRFAi6MeH2XxkmIieU-3" value="" style="shape=image;verticalLabelPosition=bottom;labelBackgroundColor=default;verticalAlign=top;aspect=fixed;imageAspect=0;image=data:image/png,iVBORw0KGgoAAAANSUhEUgAAAOEAAADhCAMAAAAJbSJIAAAAwFBMVEX///8ybOUAAAAtaeVYhOnj4+OhoaEqaOTKysq4uLgUX+OHh4cjZeTZ2dkaYeT8/PwyMjJ7e3tKSkqWlpby8vKcnJyurq71+P4NXeM6Ojrr8PzP2vjI1fejuPHe5vq6yvV3mOxrkOuDoe1Ieefc5PouLi69vb0lJSXn7fywwvOPqu87cuaasvDd5fpSgOiOjo5YWFhra2thienC0PZCQkKVrvCzxfRtkuuHpO4AVOLq6uoREREcHBxoaGh7m+xeXl6WKWbYAAAPPklEQVR4nO1caWPiKhdWY40iYq1bxqWutW5XW7vedqbz///Vm4QlBxJM7LSJ816eT5UC4eHA4eFAkssZGBgYGBgYGBgYGBgYGBgYGBgYGBgYGBgYGBgYZIL+arjqZ92I70P3ySYYY5If1rNuyregtyY4T4HJUzfr5nw5lh+I8/M5onUv6yZ9Ka7HyM7LwOhjmXWzvgzzSYifBxuNr7Nu2pegf3Ci+FGOk3nWzftjDHbE0vCjHA9/9+LxMDvKz4NFdg9ZN/PTeN7E8qMcZ6Osm/oprPKJ+FGO+VXWzT0V9a1NEtKjwH+X0Ok+YRxPSuWIt3+L0Om9otP5+RzJ+m/guJx+kp/PEU3PXcxFyDPVTsf52+jjnIXOfKKVL5zgsD+McUG283KuQqd/iLFfPk+8xf05bhSfqdAZ7FCC5c/PGj9PLVQcZMxHxShennkNn/mZN/E5PTF3TkInoTzL5zd+9mR5LbJ5zpgXxzC5PCOebumihLldMTfMmpyL1SnyDHkrQf+EAsTOfKyOT5KfxPMfo5OKoGm2BF9P1NfeFmJ4muYhT1kS7DsnNdZd8N1C6xNVHcpS5BzilniV4dYt9HoiQ3ucHcHuaWM0n3e8efh8aik7O4aneEUXFp74xYo46epCgf7JjOE2+XizCcoXx9T1P493GOHkAxxnF+I4JLQFRpvpgxThrl8/jzFJSDLDiZjIhBax1tHbocE44WZ5kzIvgbkqvwgJ7Z+Ohwq723BAByOiTm8nq43/SmmdNagvFY2DNzHh3vpW6RS07ub6yujHWcWMx3Lb/O1tbgsMaznb+Fq6EzgUHN/iirCz199LRAtln4foWFqL1uFNsvOzh2Bv4tDNxLXMkO0rU0dPkWyEbcs/WPPIh5y/Pl/RYGHvWdFh3R0b79zm6vgn2UQZH9RpuGHtmBJgDoblsIjIv9TK1/8iclhJ3oNOX05wqforkk3cJqSgrTxryNAhtgNd6KjoeDqGmaKHPH3jHGAo5gm5moAVGYU0D04wn78Bu/B67xzozJs/HADBEQ8CYPqbyVkLzQDH7ceAlZ2FtaB1SIsURD0qGGGHved10GImoevc+BaaqCtdfepECSWcAqEQNLKb7ORGD0GQkWuTYJrZWNYD/+SjVQ7JQnzrtuo2ho5vAvpBOH24zDivIPe1LuaaifjWym4SmKU3g91gFVnyDBYlh+DgUBvgsJWVJxXoRTMSRpT1ijVhyUXI0JkKhvMjQZHU+bkDStcWDPv7GYw7YYgJSLPhUlfUbsdQ+uJblR2AoSRAejuR0eZTLhC0ZCJlvtYakaQfN/3QbV+xGqd+4v4f87jgKytrIdWBTLWXi9IX37rOjogbzdkSILg/0d9kFlLmPd3YT198q7I7MCFf8mGseuw3XLh86jIdYJYuN692aDhpi29VdgvwbcDAmYE2jbyYjDMQv7zrJcDFLPMO2278ozNi6uJbF7i2X1iGmWXnwSDsFh20E79mjjMG12fm2ALlYsZGWoiQ3bSrWcBhQLz9A4xA9eFWog93iA+e3RzWHTofnbb4jpTdPkNmGrrkkSRn1Ss6SdmsXGon+LeRiYQu2s17msf7Q8tBGE+MksV+687ASbo3NHQCki8IK94DsbEoHvMQrmSt8aYpi++JbhqyZr4EquW4Zg72HlwP6A5QU45869YKLrpBB5AjLqIO9h4Wc7V6wfv9tAJc6w6dmDvowf/jnbaejR0um9MxRGne7ddda+J2GEg9gETIuosJQXmxEq7kbIyBzoQ4TfGt01Z83ZbnUrAv2HnlbDFsZYZ8DuuWWpym+NZ5dJuJUehqbSRE85QpbnH3YAYPLbiNXjTdl6b41u4A+A6QH51amOQ/xBgVi3mgogfTPOLRUb4cjLX7svTE94PO0UgMbUJ2W2mZjjTG9bBI/LNSvpZqGaYovrX3RcQoJRhZ45Ha52z82eoloO7DNO9gEmvD9MS3zheIVfl5s43qb3Z5FkU5xfmQH6Xq1ESK4ruuDdHwNmheLOiOHdt7ae34fNLtn1K8dqK/ZGLHbQB6U+c1Lmqmv0mdWuRbJ7stEjqG+Ay6B90ljdTE90RtgO1KFeLYxa/yBMNJHiFCQkRTE9+hwTNZDfpLzeTq9levh0nU5bvBbjcdDnRW7y37o9DVzpSunajiX7eR786f14e8Q7Bt2STse3qOZbnGR7g4HfY1PAcKRZKO+FZu3kUPne0hjwgWh7kovEEXssHj6Q7xSNWprBwpXTtRZHewDi9XH8M5s8ZW7gYUHsNKxJWwanr99WQofOar8qx0xLeyXll0cvSGM4RtzKMW8sXMSDvLCpvHWZ8cr5bN1u+purI0Wvqt5hcitN7bu8H16IXwEcmyScoOCYXT7YsZ2YfzGfNTG0YFu+6rP9qEFv9MGLrrIAocO/c73ajD39wcOVh4C9h+PowD3+KSDL/lYOXSgPpUpQ1cPILtLRErtUsqoAuUA+GHNscvdKa0RdQenjBrcLcZ6HPEi/puWGz5g7CyaHnouqOM0K7ke9A/3gphRBGOEiejOXmqBqeF4oQ35k5uWvehY27oi8ATf1eBH0nwrb8YkvzIVxxKDY53Hn7JpYOuFXP7mWdc+QzEFQzhfEQ4gg5kJE6Nj1drbVJ73Tvmjj4Ws2XoUeTHUbkP8X0aPmz9mBwSkiHmTYyUNJuP1XGKjhBXzyjw8OAaggjueuemwtHGjFEn1ZvCH0l7u29zOQanr81v1jwRLHR7L6bOlN9/2h31NmDGdIvMT0rvSDlM5CzBLTh99MIDnuTSRYy3scNLs0QgQmAWY/osDVYS4tZmlYJyaEbUSVU8Hy/D8Xz8zTx7Jm+YCLEDI7pbYiVmtTtOEGXyPkLM25WWJYUuug/THXG86AtyyG4qR4t7m+MigmRzCzpm5kTc6cr15v1+fx4KWQxiXpVO3ctwdPMx2ka5l6fDR8zL3Rl4GQ79gTSDneCNpV7st2xwhh92G8W9B5xkPxdTRR5l+gGJuLeWIyJQKuI+QJCVl+E4vpNiC/vs5SHMtDv4YP89rmXS2jHpUD/qbfwBdr2xvcPS9WjOaXavH568Y1Hbf/VLe97q91FGL3UBaC+e5PmdhJlvZgtjgqzNbDfb5N1FkUbmbH/rqL/d7ZrwDL6q9KCfR/4mSQ56WJYkaB0vqLPU1+Ccxad41jor0miF9uq2byJ/L7w9XkP20HgbFr04rgro9lhzbI7HGbKCqIdD0x7oxWb1+Ei1kj8Mo+8+n4GX4VhGsWAmfD0uXtmNxEgjnoOX4YjyNix6e5SfBz9X1A2T8/AyHFG+wtfLMTErHvGPMOG5eBmOSVi+4Y9uPZagR7HbC90MUN6eOgdEeRsbxXxCkHFBEV+yC0VBssfy89+DjIJ1Rl6GIyaeexoyej09Blpl8gmCZ/rR3ZevGqhn52UEju/0EuMMvQxH72vGqX3G39o99fttkXDO9QOtPuI+MJsACV6VyhTjP/U2OOPvJMbjD73NGXsZjphzzhhY1hl7GY6YyyjHEXGH8QwxSvLJ5GgLZnOIdjrmO4Rt61TYGBXP+WPlMvrrSfFUTLZ/xQg1MDAw+I+j3vrO7BmjVWn+uiw0kmZ/q+x/3xTa39mir0a54KGaNHvFz176zhZ9NQxDBZkwbNX+5Ar0uTOsNK7eC4U/cW3nzvDWf+D/M8MfhmEs/msM6xT8DynV/5My7ORqnVK7UwvX1m5Uq50LJfVi4eVeiOSWW3q/35cWoYbXF/tqYw/TKcM3qT1eFZVqtdFeKD62VnIfXy2VpXohw7cChVuuyZj4DfT/fgcMr37SjO+yMUusfOGyHDy0fVUQWLhN24PfhTupk1r3PP3+TWbI0OFd9punNADHyk+R8QbUCxjWqd/yh0Q7xPASMAzwI+iu1iVI5zKwJuWuqQmFQjNoygKm8z6SGFaUnmR1UtzDVGBFwPCO/tMfTEkZFm4FQTm9EcUwlFAI7KJWXdYy3MsZ2eBvwrQbMDIChg3YJ4kZiil8qaQvwgwfoxgW2Di7iE4PM1wo+SibupR2H8WwCRsWx/C20W4ykxfe4MhplGuVG5oFMPz5a9+s3vl2ZQnVZnPPJgUz4iP9VSqXWUv2gOGtj3efIWtBp1yuAt6Ux8/F29tbuf0oBgZg2AG5YxlWQVE2k2D/0MaWA4ZsyNZFwpX/m/bRHajsvQ7MCRiCaUW78hEUugqSK7kwaKY9a63wjccZlmCmH96fdOiwwXER2EBiGCRcgb8pk3vQQ2w81SIZ0tnAJt8v/4fXLR3Q9VEM76A5EjNkzsV7QCMwmwvfbf+OZVgPyucAWf7EThTDFjAh79ia4FH4HbFGFwIAz52IYe5d9CdtiDu7PLT9mXgbyzB3IxjSpfi2TSug3rIdxZC295FlpB0LpqfbTjgHVYZgLCRjeCW68L0Qws94hkHzwy6WlVIZqp5UNBN4eWAphSGoKBlDKi3KoAcB3k9hWI6oIJJhJyJjCTSZAo5Vqep3oYGSMbwU1UXY8CSGUTasRjEML8hivakBPQikMWXYZGsQn8HM+ZZiGAa10bWtWYI4hSF9xk0HFG+Xg05U5+EVfE5bWKzW4AzvVIbVHFs9uRiAzlfLEHh76uwDwS0TimdYD6qS8UMxCW3Mj3BGijofxWqfVPmc4hanybfHGYIVuwTyfIYhc1r7UAV0xQMreUFNUDlSBx3MxECX3gZjTmykKsHfkCHthmooT+FK7HpqJzJkqk9QrLMK6EMegwoakiXcBfJCys8zRDFkWukWPrzwq1PpNEIM7zqVCl30+L6R9bW75JYqlc7+1zsTzokZcuX83nDr7lSv+Exiq8MPt9r9YzvoS1fauhlLjUcxlS6ri4tW62IBDSUz5N1IS4S8sm5vweZeS02/OI1hqGbW09KewfcSyuaJaqdQ8eCJcI9/Bdum7oY0DNtyRQEqJzLMNZQKWAG4zFEHcyfno11RlROBsImIYtB6WrdRFakMQU3KkrY/laG8dQ9m0i+QFtkXraAqDnjSVIYpJanZ0q75jvrP2m+pIjmUBLv7EtoQbEhpAvP2Srj3DQYi7sRMCibMJXNkNWjGXy2V9c0Ctqp+4YE/5IJC0C81q66arkjBq7dypblvNKrtcvg0oVaq3t839kG0i1b/FuSQEujTQDX1RbPhVVCRtwjl9t5tRwW0orXYuxndtMCj1Dp7v2wo1GdgYGBgYGBgYGBgYGBgYGBgYGBgYGBgYGBgYGCQy/0PChoj64ooKXoAAAAASUVORK5CYII=;" vertex="1" parent="1">
          <mxGeometry x="749" y="308" width="94" height="94" as="geometry" />
        </mxCell>
        <mxCell id="e4YRFAi6MeH2XxkmIieU-8" value="" style="shape=image;verticalLabelPosition=bottom;verticalAlign=top;aspect=fixed;imageAspect=0;image=data:image/jpeg,/9j/4AAQSkZJRgABAQAAAQABAAD/2wCEAAoHCBYVFRgSFRUYGRgZGBwZHBkcHBgZHBoVGBwaGRoaGBgcIC4mHh8rHxgaJjgmLC8xNTU1HCQ7QDwzPy42NTEBDAwMEA8QHhISHjQhJSsxNDY0NDQ0NDQ3NDQ0NDQ9NDQ0NDQ/NDQ0NDQ0NDE0NDQ0NDQ0NDQ0NDQ0NDQ0NDQ0NP/AABEIAPAA0gMBIgACEQEDEQH/xAAcAAEAAgMBAQEAAAAAAAAAAAAABAYCAwUBBwj/xABEEAACAQIDBQYCCAMFBwUAAAABAgADEQQSIQUxQVFhBhMiMnGBUpEUI0JicoKhsQeSwVOiwtHSM0NUY7Pw8TRzg6Oy/8QAGQEBAAMBAQAAAAAAAAAAAAAAAAECAwQF/8QAJREBAQACAgIBBAIDAAAAAAAAAAECEQMhEjETBEFRYTJxFCJS/9oADAMBAAIRAxEAPwD7NERAREQEREBExJtqZwdo9rMNSuobvGH2U8WvIt5QfUwO/F58/wAX23rNcU6SIODMWc2/CMov7mcTGbYxFTz13t8KnIP7lj8yZPjVLnI+q1MSi73UepA/eZU6isLqwYcwQR8xPiGIw1M+J0Vj8TDN8yZ0uxGPOHxC2JFOq4Qpc5VDeFGCk2Bz29niywmcr7FERIXIiICIiAiIgIiICIiAiIgIiICIiAiJDx+NSihqVGsB7kngAN5J5CBLJlY2x2tp07pS+scaEg+FT1biegv1tKxtnb9XEErqlPggOrD77Df+Eaes5QAEtMfyyy5NekjaO0K2IP1zll+AeFB+UHX3vImQCbLzBwALk2HOX1Iytt9hmms6rqxty5k8gN5PSamxDNpTXT428vsN7ft1mS0QPEbs5Fsx5cgNwHQfrBr8tLIX1cWUbk58i/8Al+/DXjmKozjzIM6/iTxL+oElNNTi4K8DoZVaV9twlUMiuNzKCPQi83yv9hsV3mBw5JuVpim34qfgb9VMsEo6CIiAiIgIiICIiAiIgIiICIiAiIgaqrhVLE2ABJJ4Aakz5jtvajYioahJyC4ReS87fEd5+XCfSsbhhUpvTJIDqVJG8BhbSfHMfhq9Go9Cq4DKbqQls6X0dSWOnTgdPWcdbUz3rpI9JorYlE8zi/LefZRrIwpg+Znb1Nh8lsD7zOlTA0VVUdAB+0vthpsNV38i5B8T7/ZBr87TxMGL5nJcjUZtw9F3e++SESZkSdI21uZg0yaYOdII0O08XSDNdMamVXfQP4Z4m9GtSvqlZmA+7UAe/wDMWl2nyz+HuKyY16Z8tWkLfjQn/CZ9TlG8u49iIhJERAREQEREBERAREQEREBERAThdp9gJi6WXRai606lrlG/qp3EcRO7PDA+I1aTozU6iZHQ5XW99eanipGoP/iZJPofbDs936d9TH11MG24Z03mmx/UHgehM+dob6j/ACPoQdx6S+N2wzx0lIZkZqpNNt5dm1uJqcTewmp1kERmEwA3za4mFpC7DCYs0cThqw0CVlDHd4H8D39jPugnwpcC1c9wo1YWJ4KvFz0F/c2EvmG7aU8Opw1fvHrUmyXVCe8QAFKhY2UFlIvrvDTO2b02x9L1EpVH+IVM+bDYhdf+U2nOy1CZZ9lbUpYhO8pOGXceBVhvVlOqkcjCyfERAREQEREBERAREQEREBERAREQMSJ8x7ZbM7jEd4otTrknTctYasPzAZvUNzn0+cvtBspcTQeiTYkXVvhddVb2IEekWbmnykGxm8GRkzC6OtnRijryddD7cR0Im4PNZXNZpk5mJOkwdwN5kzAbPq1/9mlx8bXVB1zcfQXkZZSeyY2+kBpvwGzamIPgFk41GBy/l+M+mnMiWfA9mKaEGqe9fkRZB6Jx/MT7TvsgAAFunT0nPnzfbF0YcX5cvZ+zEoplRTc2ux1dzzY/sNwlQ7aBBiUCHxmmc45AN4CTz1eWPtB2iTD3poM9Yjwp8I+Jz9lZRKVBizO5zO5LO3Nj+wG4DkJXixyuXktnlJNMGoWUlc2YAkHMb39zYy8fw2rfX4hM3+7pOy8MxNRc3rZQPYSpXCgsxsBqTyE+j9hNjijSasbd5XIdrfZQCyIeoBJPUkcJ0Vnh3drZE8nsq0IiICIiAiIgIiICIiAiIgIiICImuo4UFibAAkk8AN5gUDtxsQrWTEpYLUIp1L3sG3U305nwn1WRsJ2XufHVJ6KuTTlckn9pz+0+3fpjWUkUB5Rqucjc7fuB7+nT2V2mp5FWqWV1ADHKSGIA8QIBGvKUz8pOkTwt/bt4HYlCmQy00JH2m8bezNe06lSottLkysV+1dJQcodyOSsL+hYAfrONiu1eIcZURKQ5nxvb08oPzmMwzyWtxn3XHHbRp0U7yq6ou7xEC55AcT0EqO1+1Lv4MPdU+Nh4jf4VPl9Tr0ErrUszmo7O7/G7Fj+Xgo6C0LVv5Bm+9uQW+8d/tebYcMn8lMuX/lkUCgsTvOZnY3JJ4sTNq1FRc7GwPPT00kNGZ2y00as44hGZFP3VUE+9ieoll2bskUmFSrh8RVqDUMaThE4HInA9TczaWRn4291hsnYT1WFaqMqDyUyNSeDv15Lw3791kobOenrRqGmb30AKE/eTcfUWMmYLFI+isLjepuHHqpsR8p0VQS0kqlyuP6acHtplsuJUJfQVFuUJ+9fye+nWd5SDrOM9G9xwPCc6pj3woCohqI7BEQsF7t2NguZvsHh8J03EWrljrtrhyeXVW2JxMM2NYAuMPT+79ZUPuQVH7yWMUyf7VQBp41N1udPEDquvHUdZntrp0IiJKCIiAiIgIiICIiAiIgJXu2zMMFVychm/9ssBU9smb2lhmFRQQQRcHQjpA+DM9mzEEgqApXWw4i3XnJSDTlLftrsrQOIp0qOaldXqPlN1CCyqqo11S7NfQbkYenp7Ep/xFb/6f9EvjusMtY3W1Jeq17KjMfYD5sRMKtRh5mRL7h52PoNBf5y+r2Ko/aao3q5X9EyzpYTs/Rp+RFU8SBqfVt5k+NV8sXznDbLqVbMEbL8dXRfy0xvPqB6yzdnuzS1mOds6UzlY7gXFiURenEm++wsbkWPH0lp03qHciMx9FBM4+3kqYbY7d1cOaal2XQhqjA1X6HxMb8JXLprx6yW3BYnDKe4ptTUj7ClQfkN86Qn5RxFdVFJ6LVe+8TOTZQr5vB3RU3tl334z9QbGLmhSNTzmmpf8RUXlJWtj3H7Np1gM66jyuNHU81Yag/vxnDw+JdKrYep50AZX4VKZ0D9GB0I567iJaZwu09AZUr7mp1FF+aVGFNlPS7K35BLY3VZ54yxJU3F5F2jhVqIyNuYWuN4PAg8wdfabcM3hnA7R9p1wzd0q5nyhtTZQDcC9tSdDpNrrXbmm99LRsTFGpRUt51JRuroSpI6G2YdDJzoCCCAQRYg7iDvBE+X7A7YutazqpSrVQMAGBUvkphlJJvwJFtdZ9TmFmnXjdx817N7exSbWrbLqMalJQxQsBmRAA6WbewysFN7m/GfS5xNnYemcViaoRc4KU2a3i0po+XNys66ek7ciLUiJGxGKRCqsbFjZRYm50HD1ElCTERAREQEREBERAREQK61O+LqueFOkg9jUY/8A7Hyk60juLYioOaU2/wCov+GSZth6cnL/ACpERLs3P25hy+HrU13tTdR6lSBOjs8JVw6ZlDI9NbqdQVZRoee+eTmbHxH0eocJU0VmLUG4ZSbmnfmCTYcvSZck+7o4cvcY4bsHgKdQVVw65gQygliqsNxCk2FpZ7RPZm3eSv8AbGp9QqDzVK1JVHOzq7f3UY+07ruACSbAaknlKZicZ9LxCsmtGlfI1tHqNoXXmoGgPHM0e7pGV1Np+IxfdU89rklUVfid2CIvS5I14SPtDsZTr+N6r96bZnFsthuUIRYKOHHmTJO1MKz0SqWDqUdL7s6OrqD0JUA+sxobZxDv3K4Xu6mXMS9RCgW9iwyXZteFh6iTyeW5pnxSWXftHwfYTDJdmzu32WZrZDwZAtgGHBt45zdsLtCXorTPjxKu9IqOJpO1M1X+BDlzXPoLmwnKpbWxteuuFWrh6ZdKzZhTdmRaNXuWy/WWZjvF7W5G0uGydmJhqa0qYNhvJ1ZmJuzOeLEkknrKTba6nTLZuE7tbE3djmdrWzOQAT6WAA5AAcJOnM21tHuKRqAZmuFVRclmPQamwuxtwUzDD42oyB1FOqhFwUbKSPuhrqfdhLIdWQtpVSqqdAM4DMRfItj4reoAvwzX4RTxyuGCauoJ7tro1+FwRcAnTNqPWNm1KjJequVrnhl8PC65mseG/hfS9oGeBqllJJvYkBrZcyjc1v0vuNrjQyXEQEREBERAREQERPDA4u0bLiKbXHjRkI4kr4109M8kSlYgNUr1augrU8QchcmyqjWFO41VXTl8d7HdO2naOkule9E7vH5D+GoPCfQkHpNsep25OSy5WR2omqhiUcZkdWB4qQRb2m2WUJrxFBXUo6hlPA/05HrNkRSIdJa9IWSoKijctW+YDl3g1P5gT1mDbWxO76PTB61G/wBE6E8lfCNJy5RwsRha+INsQwyf2SAqp/Gbkv6aDmJ08NhFQAAbt3SSokzGRW53L2xKyDjsK7MtSk4R1BUMVzqVaxKutwSLqDoQdJPMxaLN9UmVl3FV2JsN6GMpVqlbOzGogAXIqowqVXspJuWexJvwEv8AK7XrIlakzMFVc7EsQAAEy3JO7zTs/S0NM1VYMoUtmUgggC5sR6THKSXUdOGVym6gg95iGP2aICjl3rjMx9kKi/32ntfZSkl0ZqTnUslhmPNlIKsepBPWQMDtAqvdomep56hJyotR/GVL2NyM24A2GW9riZ4nH1UUu9SiijUkqzAfmLr+0r5Se2nx5XuNe06GIHdsaiErVphStNlezOoYZu8IClb5tN19OVmld2XiziGpMw0VTVJtlBzZkpHKSSMy5nsTcaSxSUdzqvYiICIiAiIgIiICeGeyJtHHJQptVqNlRBcnpApHaagPpqmk5pu1ItVsAytZlSlnTmfGLggkIOQmzCM5BWoFvuuvlcc8p1Hob7t5mvAU2qM+KdSHrENY70prpTQ+gJY9XadNEnVx42Y9vN585crpx32RTzZ0U034tSY0yfULo3uDJdDF4mnazrWUC1qgCP650GU+mT3EmtTE1MglrhGc5cokYfb6EhKoak50Ae2Un7ri6t6Xv0nXVgdRK3WpKRlZQykaggEH1Eg4d6mHYvRLOgGtAm+n/KY6g/dJsekpcbGuOcy99LpEibNx6V0FRGup9iGGhVgdQQdCDukuRF6SNtDE93Tepa+RGa34QT/SSZE2rSz0aifEjr81Iik9qTjts4lPGa9jxUImQHiAPNb1M5zdrsTVuhqooCFy1NQHsCBYliQu/lIOPxa1UUG2qjwEEsdLkZBqbcpDpdm8RU8YK0lIK5St2Kkg5io8u7d79Jlle+m2ON12zXab1XYVHFQI9lLnMyoyKRZbBc1z595l+7MvfZ+KI3Z64X+UA7vvXPvKPs/YRAVs4s7qL5dLM6optm5W+Vp9Wp7HWhg6mHQkkpUJY2BZ3DEsQNBqd3ASuXrtph3dz+nI2Zs4MatTvKi569W6q9l8Dsg0tp4UG60Y3B0lOTIWsMzsSzuEJyhULEkO7eEWt9o7xN+BZ0VxkbV3qK58KFKpNTMXOigFyCN/hOh0vK2JhO8IqEkorZgSMve1f7TKdQijRB0vwBmMxtvbqucmMkdTZGENNLvbO5zPbcCQAFHRVAHtedKImrEiIgIiICIiAiIgeSldrG7/ABFPCHyU1Fd1+NsxWmrdLqzewl1lIcE4zFOeD00H4VpI4/V2luObykrLnyuOFsS0FplmnnSY9Z3PJZsZgRCmYuTvgR2a4vI9DEKSQCLg2I62vb5EGc/ZeNvnoWZ6iO4KqCzZCxZCeQysupnmCwpGJqO6MhCoQrZdM4KlgFJ3hANevOY+c3JHR8dktvpPw+LGGrh7HJW8LhQSRWUEo4UC5zKCD+FeZljXaKEX8f8AI4/dZU9uI3dsyedBnX8aeNf1FveXrZdYPTV13MoYehF5z83JcMup7dPBjM8e/cQjtBOZ+TX+Vp59PU7lqN6Uqh/wztxaZf5F/Db4cVdfB5iSuHYE72IRL+tzm/SaMZRp0EapiKioqqWKoSWKqCTrbMdBuUA9ZaZwe2JUYSqp0NVRRuN/1pFPQ9AxPtKfLlldLTCY9qZhMGXFCklqbPUFQDKCECsaxUqpF1FguhG8S4bW2u9Kky1EUu4yUypOV6r2VVIOqG7A210B10nJ2Fsk1neqtR6YpgUkZMvm0aobMCrDRF3aFWnm0qbpWao9Z664WmaioVpopxNS6UUBUC7WzbzpnQzbPe9T0cU/13fd7dDZGF+kEo5zUcMVoqn2alWkozu/xBWsoU6XViQdLWyc7YuA7iglK92UXdt2aoxLVHNuLMWPvOjCxERAREQEREBERAREQPJUsQmXE4j7zo/saaLf5oflLaZUttkrjVHCpQuPxUn8X6VVl+O6yjD6ib46yvPGHCAZ7O15bEC2kMZ6DxngECLSJo1TXRM2ZcjquUMwGqsLkAldRbkx5AHWrtUqPXZSmcKiqSL5EzWJtpclm/STGE1sLCZfHj5eTb5srh4fZHxKgqQeKkfMTtdiyTgsMW3mihP8onDxz5Ueodyox+Sky27Jwwp0adMfYRV/lUCcn1f2df0fqpsRNdWsqjMzBRzJAH6zkdjZKT2wx2asmHQ3KeMjeO8ZSEzdFTO7cQMvMSwvtXMD3KGobXzeWn6modGH4c05PYfZ4aiuNqeOtXDOzndlc3ARbeFSoXrYKCTYTTine0ZTc024DbCUcOi08PiXUKMpWk16hOubXdmJzXNt8hKhaphaVRcr4iq+Lqo2/wCqVWRPVGNEf/HLGdnshvQYAf2beT8hGqe11+7Im0HVgpqK9J0bOtTLmVGAIJzLdcpBKkNa4J3G03Rt34nK2BtM16WdlykOyG2qsVNs6HijCxHrbhOrAREQEREBERAREQEREDyV3tYoUUaxsMlUJfmtUGnl/nKH8ssUqv8AEUH6ExW11qUWF+lVJM6u1c5vGxpzTMNNV+E8Z7Tu28fTa5gGY757aSh7aeuBa0wd7SDtHaApJnYFiTlRF1Z3O5VHP9tSdBItkTMbb09rp31anhF4kVKlvs0kYHX8bAL6ZuUvKiUTs539HvHagHq1SGdy4CqAPDTXQnKoJ4am54zrPjMW39lTHMZqh9gQvznm8sy5MtydPW4pjx4ybWa8gY6tQQq1UpmHlzZS2vBb68OEr1XDVXPjr1GHEAimPbIAf1kPFUhSASko72o2RNNWY8WO8gbyZWcN91b5Jeo7r1nxqtTpZqdElkaqRldgDlZaSnUG4ILm1uAO8dzD0FpotNQFVQFVRuCqLAD2EwwGFFKmlIblULfibC1z1MlS8xmPpfZERLIIiICIiAiIgIiICIiAiIgeSsduqoNGnQJ1rV6agcwjd6392mfnLI7gAk6AC5PSfPdoY36TiBiDcUqSstHf4y9g9UjqAAvQk/alsZuqcl1jUutiFUXPQAAEkngABvPSQ8RjHRkNShUUObLcDU6aebQ66A6mWbs/skr9fVH1h8oP+7Q8PxHj8uGvWx2GSojI6hlI1B/70PWaZct3058Ppp49+1N+mWGqVFPMo4HztaYDaF9Ajt6I5/ZZ2dktfC0XfxsyIbnecwvc9bTDZ2Jq1E7xcOSpZgpV08SBiA1mIte0jHm2jL6XX7co067+VAg4Fwf0QEH5kSVs/Y+V+8di72tnb7IO8Ig0QempsLk2nUY1f+HqE9Go/wBXmLVq40GEqH89AD3OeTcpfdTjxXH1G5UEwY3kZ6GOfy06CbvPUdj8kT+s209gVH/9RW0+CiGpg/icksfbLK3OLziyvtDxO0UQmmLu/BF5/ebcu7iZN7M7PBAxjNmeqgK7wtOm1mCIDrfdmJ1JHC1hyKOGTD5qNRcgDsUqHyOhJK3c/bsQDc3Nr6zudmcSvdmmCCEdlUjUFT4hY9M2X8sy8rbqt8eOYzcd6JjmE9kpexEQEREBERAREQEREBERAREQI2Mwq1Uam18rAg2NjY9ZCwmwqVNg/idgbgsQbHmAABfra86sQiyV7MHW4I5iZxCVTTZmJVBh0C5FGRalwCqbvJxYDduH7mwYRQiLTVMqqoVVG4KosAJLiVk0m3bAOJkGE9tFpZBeezy09gYkXmPdDlNkQNfdCZZRMogIiICIiAiIgIiICIiB/9k=;fillColor=#F2CC8F;strokeColor=#E07A5F;fontColor=#393C56;" vertex="1" parent="1">
          <mxGeometry x="588" y="193" width="33.26" height="38" as="geometry" />
        </mxCell>
        <mxCell id="e4YRFAi6MeH2XxkmIieU-9" value="" style="shape=image;verticalLabelPosition=bottom;verticalAlign=top;aspect=fixed;imageAspect=0;image=data:image/jpeg,/9j/4AAQSkZJRgABAQAAAQABAAD/2wCEAAoHCBYVFRgSFRUYGRgZGBwZHBkcHBgZHBoVGBwaGRoaGBgcIC4mHh8rHxgaJjgmLC8xNTU1HCQ7QDwzPy42NTEBDAwMEA8QHhISHjQhJSsxNDY0NDQ0NDQ3NDQ0NDQ9NDQ0NDQ/NDQ0NDQ0NDE0NDQ0NDQ0NDQ0NDQ0NDQ0NDQ0NP/AABEIAPAA0gMBIgACEQEDEQH/xAAcAAEAAgMBAQEAAAAAAAAAAAAABAYCAwUBBwj/xABEEAACAQIDBQYCCAMFBwUAAAABAgADEQQSIQUxQVFhBhMiMnGBUpEUI0JicoKhsQeSwVOiwtHSM0NUY7Pw8TRzg6Oy/8QAGQEBAAMBAQAAAAAAAAAAAAAAAAECAwQF/8QAJREBAQACAgIBBAIDAAAAAAAAAAECEQMhEjETBEFRYTJxFCJS/9oADAMBAAIRAxEAPwD7NERAREQEREBExJtqZwdo9rMNSuobvGH2U8WvIt5QfUwO/F58/wAX23rNcU6SIODMWc2/CMov7mcTGbYxFTz13t8KnIP7lj8yZPjVLnI+q1MSi73UepA/eZU6isLqwYcwQR8xPiGIw1M+J0Vj8TDN8yZ0uxGPOHxC2JFOq4Qpc5VDeFGCk2Bz29niywmcr7FERIXIiICIiAiIgIiICIiAiIgIiICIiAiJDx+NSihqVGsB7kngAN5J5CBLJlY2x2tp07pS+scaEg+FT1biegv1tKxtnb9XEErqlPggOrD77Df+Eaes5QAEtMfyyy5NekjaO0K2IP1zll+AeFB+UHX3vImQCbLzBwALk2HOX1Iytt9hmms6rqxty5k8gN5PSamxDNpTXT428vsN7ft1mS0QPEbs5Fsx5cgNwHQfrBr8tLIX1cWUbk58i/8Al+/DXjmKozjzIM6/iTxL+oElNNTi4K8DoZVaV9twlUMiuNzKCPQi83yv9hsV3mBw5JuVpim34qfgb9VMsEo6CIiAiIgIiICIiAiIgIiICIiAiIgaqrhVLE2ABJJ4Aakz5jtvajYioahJyC4ReS87fEd5+XCfSsbhhUpvTJIDqVJG8BhbSfHMfhq9Go9Cq4DKbqQls6X0dSWOnTgdPWcdbUz3rpI9JorYlE8zi/LefZRrIwpg+Znb1Nh8lsD7zOlTA0VVUdAB+0vthpsNV38i5B8T7/ZBr87TxMGL5nJcjUZtw9F3e++SESZkSdI21uZg0yaYOdII0O08XSDNdMamVXfQP4Z4m9GtSvqlZmA+7UAe/wDMWl2nyz+HuKyY16Z8tWkLfjQn/CZ9TlG8u49iIhJERAREQEREBERAREQEREBERAThdp9gJi6WXRai606lrlG/qp3EcRO7PDA+I1aTozU6iZHQ5XW99eanipGoP/iZJPofbDs936d9TH11MG24Z03mmx/UHgehM+dob6j/ACPoQdx6S+N2wzx0lIZkZqpNNt5dm1uJqcTewmp1kERmEwA3za4mFpC7DCYs0cThqw0CVlDHd4H8D39jPugnwpcC1c9wo1YWJ4KvFz0F/c2EvmG7aU8Opw1fvHrUmyXVCe8QAFKhY2UFlIvrvDTO2b02x9L1EpVH+IVM+bDYhdf+U2nOy1CZZ9lbUpYhO8pOGXceBVhvVlOqkcjCyfERAREQEREBERAREQEREBERAREQMSJ8x7ZbM7jEd4otTrknTctYasPzAZvUNzn0+cvtBspcTQeiTYkXVvhddVb2IEekWbmnykGxm8GRkzC6OtnRijryddD7cR0Im4PNZXNZpk5mJOkwdwN5kzAbPq1/9mlx8bXVB1zcfQXkZZSeyY2+kBpvwGzamIPgFk41GBy/l+M+mnMiWfA9mKaEGqe9fkRZB6Jx/MT7TvsgAAFunT0nPnzfbF0YcX5cvZ+zEoplRTc2ux1dzzY/sNwlQ7aBBiUCHxmmc45AN4CTz1eWPtB2iTD3poM9Yjwp8I+Jz9lZRKVBizO5zO5LO3Nj+wG4DkJXixyuXktnlJNMGoWUlc2YAkHMb39zYy8fw2rfX4hM3+7pOy8MxNRc3rZQPYSpXCgsxsBqTyE+j9hNjijSasbd5XIdrfZQCyIeoBJPUkcJ0Vnh3drZE8nsq0IiICIiAiIgIiICIiAiIgIiICImuo4UFibAAkk8AN5gUDtxsQrWTEpYLUIp1L3sG3U305nwn1WRsJ2XufHVJ6KuTTlckn9pz+0+3fpjWUkUB5Rqucjc7fuB7+nT2V2mp5FWqWV1ADHKSGIA8QIBGvKUz8pOkTwt/bt4HYlCmQy00JH2m8bezNe06lSottLkysV+1dJQcodyOSsL+hYAfrONiu1eIcZURKQ5nxvb08oPzmMwzyWtxn3XHHbRp0U7yq6ou7xEC55AcT0EqO1+1Lv4MPdU+Nh4jf4VPl9Tr0ErrUszmo7O7/G7Fj+Xgo6C0LVv5Bm+9uQW+8d/tebYcMn8lMuX/lkUCgsTvOZnY3JJ4sTNq1FRc7GwPPT00kNGZ2y00as44hGZFP3VUE+9ieoll2bskUmFSrh8RVqDUMaThE4HInA9TczaWRn4291hsnYT1WFaqMqDyUyNSeDv15Lw3791kobOenrRqGmb30AKE/eTcfUWMmYLFI+isLjepuHHqpsR8p0VQS0kqlyuP6acHtplsuJUJfQVFuUJ+9fye+nWd5SDrOM9G9xwPCc6pj3woCohqI7BEQsF7t2NguZvsHh8J03EWrljrtrhyeXVW2JxMM2NYAuMPT+79ZUPuQVH7yWMUyf7VQBp41N1udPEDquvHUdZntrp0IiJKCIiAiIgIiICIiAiIgJXu2zMMFVychm/9ssBU9smb2lhmFRQQQRcHQjpA+DM9mzEEgqApXWw4i3XnJSDTlLftrsrQOIp0qOaldXqPlN1CCyqqo11S7NfQbkYenp7Ep/xFb/6f9EvjusMtY3W1Jeq17KjMfYD5sRMKtRh5mRL7h52PoNBf5y+r2Ko/aao3q5X9EyzpYTs/Rp+RFU8SBqfVt5k+NV8sXznDbLqVbMEbL8dXRfy0xvPqB6yzdnuzS1mOds6UzlY7gXFiURenEm++wsbkWPH0lp03qHciMx9FBM4+3kqYbY7d1cOaal2XQhqjA1X6HxMb8JXLprx6yW3BYnDKe4ptTUj7ClQfkN86Qn5RxFdVFJ6LVe+8TOTZQr5vB3RU3tl334z9QbGLmhSNTzmmpf8RUXlJWtj3H7Np1gM66jyuNHU81Yag/vxnDw+JdKrYep50AZX4VKZ0D9GB0I567iJaZwu09AZUr7mp1FF+aVGFNlPS7K35BLY3VZ54yxJU3F5F2jhVqIyNuYWuN4PAg8wdfabcM3hnA7R9p1wzd0q5nyhtTZQDcC9tSdDpNrrXbmm99LRsTFGpRUt51JRuroSpI6G2YdDJzoCCCAQRYg7iDvBE+X7A7YutazqpSrVQMAGBUvkphlJJvwJFtdZ9TmFmnXjdx817N7exSbWrbLqMalJQxQsBmRAA6WbewysFN7m/GfS5xNnYemcViaoRc4KU2a3i0po+XNys66ek7ciLUiJGxGKRCqsbFjZRYm50HD1ElCTERAREQEREBERAREQK61O+LqueFOkg9jUY/8A7Hyk60juLYioOaU2/wCov+GSZth6cnL/ACpERLs3P25hy+HrU13tTdR6lSBOjs8JVw6ZlDI9NbqdQVZRoee+eTmbHxH0eocJU0VmLUG4ZSbmnfmCTYcvSZck+7o4cvcY4bsHgKdQVVw65gQygliqsNxCk2FpZ7RPZm3eSv8AbGp9QqDzVK1JVHOzq7f3UY+07ruACSbAaknlKZicZ9LxCsmtGlfI1tHqNoXXmoGgPHM0e7pGV1Np+IxfdU89rklUVfid2CIvS5I14SPtDsZTr+N6r96bZnFsthuUIRYKOHHmTJO1MKz0SqWDqUdL7s6OrqD0JUA+sxobZxDv3K4Xu6mXMS9RCgW9iwyXZteFh6iTyeW5pnxSWXftHwfYTDJdmzu32WZrZDwZAtgGHBt45zdsLtCXorTPjxKu9IqOJpO1M1X+BDlzXPoLmwnKpbWxteuuFWrh6ZdKzZhTdmRaNXuWy/WWZjvF7W5G0uGydmJhqa0qYNhvJ1ZmJuzOeLEkknrKTba6nTLZuE7tbE3djmdrWzOQAT6WAA5AAcJOnM21tHuKRqAZmuFVRclmPQamwuxtwUzDD42oyB1FOqhFwUbKSPuhrqfdhLIdWQtpVSqqdAM4DMRfItj4reoAvwzX4RTxyuGCauoJ7tro1+FwRcAnTNqPWNm1KjJequVrnhl8PC65mseG/hfS9oGeBqllJJvYkBrZcyjc1v0vuNrjQyXEQEREBERAREQERPDA4u0bLiKbXHjRkI4kr4109M8kSlYgNUr1augrU8QchcmyqjWFO41VXTl8d7HdO2naOkule9E7vH5D+GoPCfQkHpNsep25OSy5WR2omqhiUcZkdWB4qQRb2m2WUJrxFBXUo6hlPA/05HrNkRSIdJa9IWSoKijctW+YDl3g1P5gT1mDbWxO76PTB61G/wBE6E8lfCNJy5RwsRha+INsQwyf2SAqp/Gbkv6aDmJ08NhFQAAbt3SSokzGRW53L2xKyDjsK7MtSk4R1BUMVzqVaxKutwSLqDoQdJPMxaLN9UmVl3FV2JsN6GMpVqlbOzGogAXIqowqVXspJuWexJvwEv8AK7XrIlakzMFVc7EsQAAEy3JO7zTs/S0NM1VYMoUtmUgggC5sR6THKSXUdOGVym6gg95iGP2aICjl3rjMx9kKi/32ntfZSkl0ZqTnUslhmPNlIKsepBPWQMDtAqvdomep56hJyotR/GVL2NyM24A2GW9riZ4nH1UUu9SiijUkqzAfmLr+0r5Se2nx5XuNe06GIHdsaiErVphStNlezOoYZu8IClb5tN19OVmld2XiziGpMw0VTVJtlBzZkpHKSSMy5nsTcaSxSUdzqvYiICIiAiIgIiICeGeyJtHHJQptVqNlRBcnpApHaagPpqmk5pu1ItVsAytZlSlnTmfGLggkIOQmzCM5BWoFvuuvlcc8p1Hob7t5mvAU2qM+KdSHrENY70prpTQ+gJY9XadNEnVx42Y9vN585crpx32RTzZ0U034tSY0yfULo3uDJdDF4mnazrWUC1qgCP650GU+mT3EmtTE1MglrhGc5cokYfb6EhKoak50Ae2Un7ri6t6Xv0nXVgdRK3WpKRlZQykaggEH1Eg4d6mHYvRLOgGtAm+n/KY6g/dJsekpcbGuOcy99LpEibNx6V0FRGup9iGGhVgdQQdCDukuRF6SNtDE93Tepa+RGa34QT/SSZE2rSz0aifEjr81Iik9qTjts4lPGa9jxUImQHiAPNb1M5zdrsTVuhqooCFy1NQHsCBYliQu/lIOPxa1UUG2qjwEEsdLkZBqbcpDpdm8RU8YK0lIK5St2Kkg5io8u7d79Jlle+m2ON12zXab1XYVHFQI9lLnMyoyKRZbBc1z595l+7MvfZ+KI3Z64X+UA7vvXPvKPs/YRAVs4s7qL5dLM6optm5W+Vp9Wp7HWhg6mHQkkpUJY2BZ3DEsQNBqd3ASuXrtph3dz+nI2Zs4MatTvKi569W6q9l8Dsg0tp4UG60Y3B0lOTIWsMzsSzuEJyhULEkO7eEWt9o7xN+BZ0VxkbV3qK58KFKpNTMXOigFyCN/hOh0vK2JhO8IqEkorZgSMve1f7TKdQijRB0vwBmMxtvbqucmMkdTZGENNLvbO5zPbcCQAFHRVAHtedKImrEiIgIiICIiAiIgeSldrG7/ABFPCHyU1Fd1+NsxWmrdLqzewl1lIcE4zFOeD00H4VpI4/V2luObykrLnyuOFsS0FplmnnSY9Z3PJZsZgRCmYuTvgR2a4vI9DEKSQCLg2I62vb5EGc/ZeNvnoWZ6iO4KqCzZCxZCeQysupnmCwpGJqO6MhCoQrZdM4KlgFJ3hANevOY+c3JHR8dktvpPw+LGGrh7HJW8LhQSRWUEo4UC5zKCD+FeZljXaKEX8f8AI4/dZU9uI3dsyedBnX8aeNf1FveXrZdYPTV13MoYehF5z83JcMup7dPBjM8e/cQjtBOZ+TX+Vp59PU7lqN6Uqh/wztxaZf5F/Db4cVdfB5iSuHYE72IRL+tzm/SaMZRp0EapiKioqqWKoSWKqCTrbMdBuUA9ZaZwe2JUYSqp0NVRRuN/1pFPQ9AxPtKfLlldLTCY9qZhMGXFCklqbPUFQDKCECsaxUqpF1FguhG8S4bW2u9Kky1EUu4yUypOV6r2VVIOqG7A210B10nJ2Fsk1neqtR6YpgUkZMvm0aobMCrDRF3aFWnm0qbpWao9Z664WmaioVpopxNS6UUBUC7WzbzpnQzbPe9T0cU/13fd7dDZGF+kEo5zUcMVoqn2alWkozu/xBWsoU6XViQdLWyc7YuA7iglK92UXdt2aoxLVHNuLMWPvOjCxERAREQEREBERAREQPJUsQmXE4j7zo/saaLf5oflLaZUttkrjVHCpQuPxUn8X6VVl+O6yjD6ib46yvPGHCAZ7O15bEC2kMZ6DxngECLSJo1TXRM2ZcjquUMwGqsLkAldRbkx5AHWrtUqPXZSmcKiqSL5EzWJtpclm/STGE1sLCZfHj5eTb5srh4fZHxKgqQeKkfMTtdiyTgsMW3mihP8onDxz5Ueodyox+Sky27Jwwp0adMfYRV/lUCcn1f2df0fqpsRNdWsqjMzBRzJAH6zkdjZKT2wx2asmHQ3KeMjeO8ZSEzdFTO7cQMvMSwvtXMD3KGobXzeWn6modGH4c05PYfZ4aiuNqeOtXDOzndlc3ARbeFSoXrYKCTYTTine0ZTc024DbCUcOi08PiXUKMpWk16hOubXdmJzXNt8hKhaphaVRcr4iq+Lqo2/wCqVWRPVGNEf/HLGdnshvQYAf2beT8hGqe11+7Im0HVgpqK9J0bOtTLmVGAIJzLdcpBKkNa4J3G03Rt34nK2BtM16WdlykOyG2qsVNs6HijCxHrbhOrAREQEREBERAREQEREDyV3tYoUUaxsMlUJfmtUGnl/nKH8ssUqv8AEUH6ExW11qUWF+lVJM6u1c5vGxpzTMNNV+E8Z7Tu28fTa5gGY757aSh7aeuBa0wd7SDtHaApJnYFiTlRF1Z3O5VHP9tSdBItkTMbb09rp31anhF4kVKlvs0kYHX8bAL6ZuUvKiUTs539HvHagHq1SGdy4CqAPDTXQnKoJ4am54zrPjMW39lTHMZqh9gQvznm8sy5MtydPW4pjx4ybWa8gY6tQQq1UpmHlzZS2vBb68OEr1XDVXPjr1GHEAimPbIAf1kPFUhSASko72o2RNNWY8WO8gbyZWcN91b5Jeo7r1nxqtTpZqdElkaqRldgDlZaSnUG4ILm1uAO8dzD0FpotNQFVQFVRuCqLAD2EwwGFFKmlIblULfibC1z1MlS8xmPpfZERLIIiICIiAiIgIiICIiAiIgeSsduqoNGnQJ1rV6agcwjd6392mfnLI7gAk6AC5PSfPdoY36TiBiDcUqSstHf4y9g9UjqAAvQk/alsZuqcl1jUutiFUXPQAAEkngABvPSQ8RjHRkNShUUObLcDU6aebQ66A6mWbs/skr9fVH1h8oP+7Q8PxHj8uGvWx2GSojI6hlI1B/70PWaZct3058Ppp49+1N+mWGqVFPMo4HztaYDaF9Ajt6I5/ZZ2dktfC0XfxsyIbnecwvc9bTDZ2Jq1E7xcOSpZgpV08SBiA1mIte0jHm2jL6XX7co067+VAg4Fwf0QEH5kSVs/Y+V+8di72tnb7IO8Ig0QempsLk2nUY1f+HqE9Go/wBXmLVq40GEqH89AD3OeTcpfdTjxXH1G5UEwY3kZ6GOfy06CbvPUdj8kT+s209gVH/9RW0+CiGpg/icksfbLK3OLziyvtDxO0UQmmLu/BF5/ebcu7iZN7M7PBAxjNmeqgK7wtOm1mCIDrfdmJ1JHC1hyKOGTD5qNRcgDsUqHyOhJK3c/bsQDc3Nr6zudmcSvdmmCCEdlUjUFT4hY9M2X8sy8rbqt8eOYzcd6JjmE9kpexEQEREBERAREQEREBERAREQI2Mwq1Uam18rAg2NjY9ZCwmwqVNg/idgbgsQbHmAABfra86sQiyV7MHW4I5iZxCVTTZmJVBh0C5FGRalwCqbvJxYDduH7mwYRQiLTVMqqoVVG4KosAJLiVk0m3bAOJkGE9tFpZBeezy09gYkXmPdDlNkQNfdCZZRMogIiICIiAiIgIiICIiB/9k=;fillColor=#F2CC8F;strokeColor=#E07A5F;fontColor=#393C56;" vertex="1" parent="1">
          <mxGeometry x="571" y="373.75" width="23.63" height="27" as="geometry" />
        </mxCell>
        <mxCell id="e4YRFAi6MeH2XxkmIieU-10" value="Example Api" style="rounded=0;whiteSpace=wrap;html=1;fillColor=#dae8fc;strokeColor=#6c8ebf;" vertex="1" parent="1">
          <mxGeometry x="479" y="235" width="120" height="60" as="geometry" />
        </mxCell>
        <mxCell id="e4YRFAi6MeH2XxkmIieU-26" style="edgeStyle=orthogonalEdgeStyle;rounded=0;orthogonalLoop=1;jettySize=auto;html=1;entryX=1;entryY=0.5;entryDx=0;entryDy=0;" edge="1" parent="1" source="e4YRFAi6MeH2XxkmIieU-11" target="e4YRFAi6MeH2XxkmIieU-12">
          <mxGeometry relative="1" as="geometry" />
        </mxCell>
        <mxCell id="e4YRFAi6MeH2XxkmIieU-11" value="Aristophanes&lt;div&gt;Traces&lt;/div&gt;" style="rounded=0;whiteSpace=wrap;html=1;fillColor=#ffcd28;strokeColor=#d79b00;gradientColor=#ffa500;" vertex="1" parent="1">
          <mxGeometry x="504.5" y="399" width="69" height="34" as="geometry" />
        </mxCell>
        <mxCell id="e4YRFAi6MeH2XxkmIieU-24" style="edgeStyle=orthogonalEdgeStyle;rounded=0;orthogonalLoop=1;jettySize=auto;html=1;" edge="1" parent="1" source="e4YRFAi6MeH2XxkmIieU-12" target="7lQAio6a4aFPDC-sO7yj-30">
          <mxGeometry relative="1" as="geometry" />
        </mxCell>
        <mxCell id="e4YRFAi6MeH2XxkmIieU-25" value="pod metrics" style="edgeLabel;html=1;align=center;verticalAlign=middle;resizable=0;points=[];" vertex="1" connectable="0" parent="e4YRFAi6MeH2XxkmIieU-24">
          <mxGeometry x="-0.0466" relative="1" as="geometry">
            <mxPoint as="offset" />
          </mxGeometry>
        </mxCell>
        <mxCell id="e4YRFAi6MeH2XxkmIieU-12" value="Sophokles&lt;div&gt;Metrics&lt;/div&gt;" style="rounded=0;whiteSpace=wrap;html=1;fillColor=#ffcd28;strokeColor=#d79b00;gradientColor=#ffa500;" vertex="1" parent="1">
          <mxGeometry x="348" y="399" width="69" height="34" as="geometry" />
        </mxCell>
        <mxCell id="e4YRFAi6MeH2XxkmIieU-13" value="" style="shape=image;verticalLabelPosition=bottom;labelBackgroundColor=default;verticalAlign=top;aspect=fixed;imageAspect=0;image=data:image/png,iVBORw0KGgoAAAANSUhEUgAAAOEAAADhCAMAAAAJbSJIAAAA0lBMVEX///8kS1oAOUsRQlKYpav7/P0ANUgIP1C1vsIlTVzr7u8bRlartrsAO00APE0ANEfO1NcAr6xddX/Ey88zVWNNaHMlRVVexsWCkprw8vPa3+G9xclJwb/f8vE9XGmwur4eZm9uycklQVLj5+htgYqirrNaxcRieIIAtLBJZXF4ipKLmqHJ0NMxvrwAqqcLvLcUiYw4uLUAKT8yq6uT19YAYWp+0c9MsrNts7U2lJcmVmOBz8/Z9PJp0c86x8QtaHIgc3u04eE+e4MXkpUAm50AHTbmEvMTAAAKs0lEQVR4nO2caXvauBpAjQQ2Qdgm7NuQEiABA01vmra36W1mpp35/3/parPxIslLmGmS5z2fUvCio12vRC0LAAAAAAAAAAAAAAAAAAAAAAAAAAAAAAAAAAAAAAAAAAAAAAAAAAAAAAAAAAAA+KdpzH/71Un4h5kfj29asXFzPB7v3rLiaE7L8Lh9u4pUkBre3b1ZxeWcGT7dUd6m4vLmZj5/+jik1LC9zr3+ofEvJOqcUEFq+PG6xhh+yi3Fz/PR61Jc3oyoYSj47u4yR/Hz8ebmVSl+G42o4ZdhKLi9fG9U/Hyc0zJfvh7Fz2nBrVnxvx++fv1CC/ElKE6b+/Wuf1G7WHTH7Y7mom+jJVVMCl4aFL9vH6+Hwy/0nqRip52hOTtMJ/rkbdLXXzV7nVVhu0ZzjZCDCWEJJwQ7rt9tK173bblcpgSZoVZxuT0eH4c1prhMKNZtJ4vr2mTdbqlTeJ+93nORu9gfCvh11sjhbnGIY9+mS5IJLiPBP9h4uBVc/k/14O93d09PT7/XmOIyoVjH6fdFr/V3M5Uh0lyPXW+szpST3w5l9OTdaDDVClJDwTvOp/V6fduNGDB2nx4ff398fKQXX39ZJhS1huy17kW2XHSGDOyPDa281bVPfrR+UkjsA39/uvRPVg7L74/SsHadwKYghGxb/kH/ROIbdv31D3bvqaBNhhQ7KGNIHck0fUNIO/IjDnIGwb6+2Qc75EWSzuLUHB94GY4uZC398PPnzw+Cnx++9macXsShc/iL8fHHkAp+p3fGarIwdOwYCHn49NqB2jBxg+uc8snvqQVvw5zBtGc5dUyNQ4CcyPz0+cOIGd7IUnzcnprhXPn43+7ujk9/XTPBUUJQGDrN+MWTVW9z64avxV2V4UX8k9a0Oe6jUNJXleKkL7/GTj3TcW5w+DIvoTg6KV5cyr70/X+Ugkzx+FUIjm4SfZHCUNDsy9e6mxxDwWoc1kKcbYsT2eCIXVcmr27LUsSxisoH/HlM0SRIFWkJDn/cjEbzZGerNaRZ68u2mMh0nSF1XIhywvv0N6Ggs9N1tquauOK+ffrsgc1KI8Xa5dYoSBXpcEGnbSlBk6HVsRUp1htaVlco+ulC7Ivk2xn12GN3mHWwiRr+wNI7jxTfb42C9BnH+TwjaDS0mq5QTDzGYChVnKvkp6H4lfomyY643VTWUEW2/o0UzYIsKDef/5n+0GhoDXiKUTxnjYYd/iW5TXy4Efnk614SPtjfZD574Ct8qkgdh0M3Z0LBFDOCOYY9njgn1jjMhtaCZAp9JZozyqY/nTzFZw9HHqV5947OaH4EQZVVg9nQ4i0Rj+PpMBpucKZvEvUAZ6YOxXg4slgim5Ueqz0gz5Anj8TjI2bDjscHmFi17omRXndDLkyRjfZVBfMMA24YH/TNhiv+rRtbKfRFN6pbBebzwA0rCxYzjM/cShqKlkzyo2R6vm2rV1Er1/C2ZBlO3VQtFa3Qz+0FTTxsj88ITOQYirlUvJcwGzb5VA9F08uW/+witNRR0NVsU6/X273c6ILZsMV1nHhHbzYMxAAa/XsjjKu3QjWztccWNBg7HnLW4WpmtWekJ/ZmQ7G2SiTQaCi+JIvoA1FJaxVFdKly3HiogC7URfo7PnW+TzcIo+Gk7Kxtz3PkNJEVF2en4s+hR5xaGpdP6flQhUoZ7sRgnVjxmAx7YqpuRx1Nh2eRVyRGVZTAjsqOBcFwuCybVTDk0312T8HVk3UlXk520SeiGdpnDNEOZAFiuz/eNGfN+hqLKktntWUN27KyF1wBW6uuqNPxRb4YThfZi6syEJlO0PjUh3YCvvb2m1ODYTps2Ojsw8gCTgVq1IarqyiQ5sZaHa/mpOKUVMFaJMrtJjvM1oC5udxFbUjW9Rj7dd/2wqgL6adukIbxG4IBtqM4rxOfHjjZdvwcrmQUrJ35hscjRMevNKzx4GVErCt2Fuk2JGNtietjN6DE4M7H+/SCuDIT2ZGpOq5Z2AFpDDUkorRJQzUYJbK3wV+baQNVWfOctNWPa6PShsTx14opkd6Q3jBOto8Jv9bTRFDLIpbSicVqHOFf2NBF+Fa1I6Q2JIQ4nj1op2v0eQ3HIqm6r0WF0bbDCNkbd7SLAWlIYrBtwM1BMejJWpoToCmKmD3oH7Y39DSxlnIQidIHVcwz7xSip8l2fVU48PAB0V/Qsg2GsYy5Fc1Zu0VaylDM+s4zLeVFZHwWH33zDUVOpAKCMUoZijCP9lml4M9yTesww4ifaCl1MZfUzZZLGYrOoXIUKgF/r2+6old0XirHb81jShm2HXOVL4HsKk2X8BBKEcOZWNhr5lqlDKfiUecY8vmEhqR3MxPwiEShtYVYmNuakwplDC3R/51j6s2jeOcyFJMHktoalZQzFBMNt+DVJkQZGhdixQ1lB4GUlaucoYi9uWeopqIdGvOqcDu05KpHPbqWM8yEpqrjGZqOoHBfaoUbh8rhtZxhGF48QzixS/I6raLjIUfskvnatUVhw6l/rkKUa3XDFYtic5pEwhRdV0lDkfU19/lzUzHyGMbWacF5qSTgnY2b/aKsodwgNTagYlzwlqNbHob9dmHDMFiRWROVNZQdc6F6al5mydCkbqNiKveaC0cTN546y0obNsQsEOfvzmzu16bIakNs1KVDYyFio7JMvFScq8iccCptaHVE5jp5Mxt6HSamTldmunqpIg98lDEUp2kytau8oVXnKau55lJc8SJSxL5OiB7eUSkOwmhMmai+nHGlYoEVDMNALl4YFhlTeY1pMdmSR5gWaYvpBV+IljWU4Ukv2TaqGFpdOUlC2tBpU+556FqZ4CAqPLHr8US1Ahm1dEoayrVw6pxIJcNQsebulA2tJc9mxk/uKZnJs3bYHXeEZKsp9xP8g2nfQtNN8xEo1dlUM7QCGYQkaJd5WXSskeDcUbMTnrjFnl8bDBYoPDfuN6vsH4r9wGTNqWhoXfkyaezcensa1rLWoR4dTcX9AsGAyeAUsD1tJxDUq7RDKqdcXvFTXwZWCy9Kj+PZuL/bLS48241C0gV+uMWZkcQmN2+XfDOqiqE4SlFzY3lb2ZDtSCb2p0l8R6fm4OKh8ebOP/2mgTh+VzTuKoYyjhyf0T/DkPVdXir7w1TqwkIaWu1137URst1+0AzzX224v0cI3ev3vzx+3P/vU/42/man/yvHJZoDO/2TEoLtRaUNuEmrlWi4B+Uaf7JqtVorfQunT+GcPlml/l06XVdrjDyHbTti7LjIH2yK/6bICF/jnyV0+Xxanav6fhyM95uZ9vcZ5eHRWft8z3t58E7jPAH2FwqL82pioG8E1suf9/zVC4N3pWc7NPAS4Tuf/svoSivTNYQAeKgtduLsVRK4nn7o5DvAiuDga2LsJX8GkPxSzHn/1QSdm70ICasneHse5VFvJr0WGnI+63azNbVxKzZaznNi4JcxuZCRAH+drKqTulgwklc/n2mEx2cJ6u/lIf3JtN2VMQJSe+UjBWMfhkJq2EM2xti1vXAx5phila+H6cJVraBZ1dVv2bwymn3F/1pA7MEZV2G/nE7gISeK8RBCV9HBW/LjTNvBoObZPnL6g2Bz7l/kAAAAAAAAAAAAAAAAAAAAAAAAAAAAAAAAAAAAAAAAAAAAAAAAAAAAAAAAAOfn/2uKysj2xKbQAAAAAElFTkSuQmCC;" vertex="1" parent="1">
          <mxGeometry x="341" y="375.5" width="23.5" height="23.5" as="geometry" />
        </mxCell>
        <mxCell id="e4YRFAi6MeH2XxkmIieU-16" style="edgeStyle=orthogonalEdgeStyle;rounded=0;orthogonalLoop=1;jettySize=auto;html=1;" edge="1" parent="1" source="e4YRFAi6MeH2XxkmIieU-15" target="e4YRFAi6MeH2XxkmIieU-10">
          <mxGeometry relative="1" as="geometry" />
        </mxCell>
        <mxCell id="e4YRFAi6MeH2XxkmIieU-17" value="&amp;nbsp; --header &#39;aischylos:&amp;nbsp; 65a76981-2948-429a-aa9e-2cf3d255b890+12412451+1&#39;" style="edgeLabel;html=1;align=center;verticalAlign=middle;resizable=0;points=[];" vertex="1" connectable="0" parent="e4YRFAi6MeH2XxkmIieU-16">
          <mxGeometry x="-0.1579" y="2" relative="1" as="geometry">
            <mxPoint as="offset" />
          </mxGeometry>
        </mxCell>
        <mxCell id="e4YRFAi6MeH2XxkmIieU-15" value="Process" style="rounded=1;whiteSpace=wrap;html=1;" vertex="1" parent="1">
          <mxGeometry x="479" y="61" width="120" height="60" as="geometry" />
        </mxCell>
        <mxCell id="e4YRFAi6MeH2XxkmIieU-18" value="&lt;h1 style=&quot;margin-top: 0px;&quot;&gt;Extract from header&lt;/h1&gt;&lt;h1 style=&quot;margin-top: 0px;&quot;&gt;&lt;span style=&quot;background-color: initial; font-size: 12px; font-weight: normal;&quot;&gt;--header &#39;aischylos:&amp;nbsp; 65a76981-2948-429a-aa9e-2cf3d255b890+12412451+1&#39;&lt;/span&gt;&amp;nbsp;&lt;/h1&gt;&lt;div&gt;&lt;b&gt;traceId&lt;/b&gt;:&amp;nbsp;&lt;span style=&quot;background-color: initial;&quot;&gt;65a76981-2948-429a-aa9e-2cf3d255b890&lt;/span&gt;&lt;/div&gt;&lt;div&gt;&lt;b&gt;spanId&lt;/b&gt;:&amp;nbsp;&lt;span style=&quot;background-color: initial;&quot;&gt;12412451&lt;/span&gt;&lt;/div&gt;&lt;div&gt;&lt;b&gt;traceCall&lt;/b&gt;: 1 -&amp;gt; true&lt;/div&gt;&lt;div&gt;&lt;br&gt;&lt;/div&gt;" style="text;html=1;whiteSpace=wrap;overflow=hidden;rounded=0;" vertex="1" parent="1">
          <mxGeometry x="833" y="4" width="425" height="166" as="geometry" />
        </mxCell>
        <mxCell id="e4YRFAi6MeH2XxkmIieU-22" value="" style="endArrow=classic;startArrow=classic;html=1;rounded=0;entryX=0.5;entryY=1;entryDx=0;entryDy=0;exitX=0.5;exitY=0;exitDx=0;exitDy=0;" edge="1" parent="1" source="e4YRFAi6MeH2XxkmIieU-11" target="e4YRFAi6MeH2XxkmIieU-10">
          <mxGeometry width="50" height="50" relative="1" as="geometry">
            <mxPoint x="514" y="377" as="sourcePoint" />
            <mxPoint x="564" y="327" as="targetPoint" />
          </mxGeometry>
        </mxCell>
        <mxCell id="e4YRFAi6MeH2XxkmIieU-23" value="grpc stream" style="edgeLabel;html=1;align=center;verticalAlign=middle;resizable=0;points=[];" vertex="1" connectable="0" parent="e4YRFAi6MeH2XxkmIieU-22">
          <mxGeometry x="0.2308" y="-1" relative="1" as="geometry">
            <mxPoint as="offset" />
          </mxGeometry>
        </mxCell>
        <mxCell id="e4YRFAi6MeH2XxkmIieU-27" style="edgeStyle=orthogonalEdgeStyle;rounded=0;orthogonalLoop=1;jettySize=auto;html=1;entryX=1;entryY=0;entryDx=0;entryDy=15;entryPerimeter=0;" edge="1" parent="1" source="e4YRFAi6MeH2XxkmIieU-11" target="7lQAio6a4aFPDC-sO7yj-1">
          <mxGeometry relative="1" as="geometry">
            <Array as="points">
              <mxPoint x="539" y="514" />
            </Array>
          </mxGeometry>
        </mxCell>
        <mxCell id="e4YRFAi6MeH2XxkmIieU-29" value="Create/Update" style="edgeLabel;html=1;align=center;verticalAlign=middle;resizable=0;points=[];" vertex="1" connectable="0" parent="e4YRFAi6MeH2XxkmIieU-27">
          <mxGeometry x="-0.2594" relative="1" as="geometry">
            <mxPoint as="offset" />
          </mxGeometry>
        </mxCell>
        <mxCell id="e4YRFAi6MeH2XxkmIieU-28" value="&lt;h1 style=&quot;margin-top: 0px;&quot;&gt;Trace types&lt;/h1&gt;&lt;div&gt;&lt;ul&gt;&lt;li&gt;&lt;b&gt;Start&lt;/b&gt;: Homeros typically starts a trace as it determines if a trace should be saves yes or no.&amp;nbsp;&lt;/li&gt;&lt;li&gt;&lt;b&gt;Close: &lt;/b&gt;Homeros will also close a trace once it has flowed through the system.&lt;/li&gt;&lt;li&gt;&lt;b&gt;Trace: &lt;/b&gt;each &quot;hop&quot; is traced when entering a new service. This is mostly done through middleware.&lt;/li&gt;&lt;li&gt;&lt;b&gt;Span: &lt;/b&gt;When a specific action is done within an api a span gets created. For example calls to Herodotos to create extended Search Results in Alexandros.&lt;/li&gt;&lt;li&gt;&lt;b&gt;DatabaseSpan: &lt;/b&gt;Basic information about database performance including query, timeTook and number of results.&lt;/li&gt;&lt;/ul&gt;&lt;/div&gt;" style="text;html=1;whiteSpace=wrap;overflow=hidden;rounded=0;" vertex="1" parent="1">
          <mxGeometry x="836" y="188" width="482" height="211" as="geometry" />
        </mxCell>
        <mxCell id="e4YRFAi6MeH2XxkmIieU-31" value="" style="shape=image;verticalLabelPosition=bottom;labelBackgroundColor=default;verticalAlign=top;aspect=fixed;imageAspect=0;image=data:image/png,iVBORw0KGgoAAAANSUhEUgAAAOEAAADhCAMAAAAJbSJIAAAA0lBMVEX///8kS1oAOUsRQlKYpav7/P0ANUgIP1C1vsIlTVzr7u8bRlartrsAO00APE0ANEfO1NcAr6xddX/Ey88zVWNNaHMlRVVexsWCkprw8vPa3+G9xclJwb/f8vE9XGmwur4eZm9uycklQVLj5+htgYqirrNaxcRieIIAtLBJZXF4ipKLmqHJ0NMxvrwAqqcLvLcUiYw4uLUAKT8yq6uT19YAYWp+0c9MsrNts7U2lJcmVmOBz8/Z9PJp0c86x8QtaHIgc3u04eE+e4MXkpUAm50AHTbmEvMTAAAKs0lEQVR4nO2caXvauBpAjQQ2Qdgm7NuQEiABA01vmra36W1mpp35/3/parPxIslLmGmS5z2fUvCio12vRC0LAAAAAAAAAAAAAAAAAAAAAAAAAAAAAAAAAAAAAAAAAAAAAAAAAAAAAAAAAAAA+KdpzH/71Un4h5kfj29asXFzPB7v3rLiaE7L8Lh9u4pUkBre3b1ZxeWcGT7dUd6m4vLmZj5/+jik1LC9zr3+ofEvJOqcUEFq+PG6xhh+yi3Fz/PR61Jc3oyoYSj47u4yR/Hz8ebmVSl+G42o4ZdhKLi9fG9U/Hyc0zJfvh7Fz2nBrVnxvx++fv1CC/ElKE6b+/Wuf1G7WHTH7Y7mom+jJVVMCl4aFL9vH6+Hwy/0nqRip52hOTtMJ/rkbdLXXzV7nVVhu0ZzjZCDCWEJJwQ7rt9tK173bblcpgSZoVZxuT0eH4c1prhMKNZtJ4vr2mTdbqlTeJ+93nORu9gfCvh11sjhbnGIY9+mS5IJLiPBP9h4uBVc/k/14O93d09PT7/XmOIyoVjH6fdFr/V3M5Uh0lyPXW+szpST3w5l9OTdaDDVClJDwTvOp/V6fduNGDB2nx4ff398fKQXX39ZJhS1huy17kW2XHSGDOyPDa281bVPfrR+UkjsA39/uvRPVg7L74/SsHadwKYghGxb/kH/ROIbdv31D3bvqaBNhhQ7KGNIHck0fUNIO/IjDnIGwb6+2Qc75EWSzuLUHB94GY4uZC398PPnzw+Cnx++9macXsShc/iL8fHHkAp+p3fGarIwdOwYCHn49NqB2jBxg+uc8snvqQVvw5zBtGc5dUyNQ4CcyPz0+cOIGd7IUnzcnprhXPn43+7ujk9/XTPBUUJQGDrN+MWTVW9z64avxV2V4UX8k9a0Oe6jUNJXleKkL7/GTj3TcW5w+DIvoTg6KV5cyr70/X+Ugkzx+FUIjm4SfZHCUNDsy9e6mxxDwWoc1kKcbYsT2eCIXVcmr27LUsSxisoH/HlM0SRIFWkJDn/cjEbzZGerNaRZ68u2mMh0nSF1XIhywvv0N6Ggs9N1tquauOK+ffrsgc1KI8Xa5dYoSBXpcEGnbSlBk6HVsRUp1htaVlco+ulC7Ivk2xn12GN3mHWwiRr+wNI7jxTfb42C9BnH+TwjaDS0mq5QTDzGYChVnKvkp6H4lfomyY643VTWUEW2/o0UzYIsKDef/5n+0GhoDXiKUTxnjYYd/iW5TXy4Efnk614SPtjfZD574Ct8qkgdh0M3Z0LBFDOCOYY9njgn1jjMhtaCZAp9JZozyqY/nTzFZw9HHqV5947OaH4EQZVVg9nQ4i0Rj+PpMBpucKZvEvUAZ6YOxXg4slgim5Ueqz0gz5Anj8TjI2bDjscHmFi17omRXndDLkyRjfZVBfMMA24YH/TNhiv+rRtbKfRFN6pbBebzwA0rCxYzjM/cShqKlkzyo2R6vm2rV1Er1/C2ZBlO3VQtFa3Qz+0FTTxsj88ITOQYirlUvJcwGzb5VA9F08uW/+witNRR0NVsU6/X273c6ILZsMV1nHhHbzYMxAAa/XsjjKu3QjWztccWNBg7HnLW4WpmtWekJ/ZmQ7G2SiTQaCi+JIvoA1FJaxVFdKly3HiogC7URfo7PnW+TzcIo+Gk7Kxtz3PkNJEVF2en4s+hR5xaGpdP6flQhUoZ7sRgnVjxmAx7YqpuRx1Nh2eRVyRGVZTAjsqOBcFwuCybVTDk0312T8HVk3UlXk520SeiGdpnDNEOZAFiuz/eNGfN+hqLKktntWUN27KyF1wBW6uuqNPxRb4YThfZi6syEJlO0PjUh3YCvvb2m1ODYTps2Ojsw8gCTgVq1IarqyiQ5sZaHa/mpOKUVMFaJMrtJjvM1oC5udxFbUjW9Rj7dd/2wqgL6adukIbxG4IBtqM4rxOfHjjZdvwcrmQUrJ35hscjRMevNKzx4GVErCt2Fuk2JGNtietjN6DE4M7H+/SCuDIT2ZGpOq5Z2AFpDDUkorRJQzUYJbK3wV+baQNVWfOctNWPa6PShsTx14opkd6Q3jBOto8Jv9bTRFDLIpbSicVqHOFf2NBF+Fa1I6Q2JIQ4nj1op2v0eQ3HIqm6r0WF0bbDCNkbd7SLAWlIYrBtwM1BMejJWpoToCmKmD3oH7Y39DSxlnIQidIHVcwz7xSip8l2fVU48PAB0V/Qsg2GsYy5Fc1Zu0VaylDM+s4zLeVFZHwWH33zDUVOpAKCMUoZijCP9lml4M9yTesww4ifaCl1MZfUzZZLGYrOoXIUKgF/r2+6old0XirHb81jShm2HXOVL4HsKk2X8BBKEcOZWNhr5lqlDKfiUecY8vmEhqR3MxPwiEShtYVYmNuakwplDC3R/51j6s2jeOcyFJMHktoalZQzFBMNt+DVJkQZGhdixQ1lB4GUlaucoYi9uWeopqIdGvOqcDu05KpHPbqWM8yEpqrjGZqOoHBfaoUbh8rhtZxhGF48QzixS/I6raLjIUfskvnatUVhw6l/rkKUa3XDFYtic5pEwhRdV0lDkfU19/lzUzHyGMbWacF5qSTgnY2b/aKsodwgNTagYlzwlqNbHob9dmHDMFiRWROVNZQdc6F6al5mydCkbqNiKveaC0cTN546y0obNsQsEOfvzmzu16bIakNs1KVDYyFio7JMvFScq8iccCptaHVE5jp5Mxt6HSamTldmunqpIg98lDEUp2kytau8oVXnKau55lJc8SJSxL5OiB7eUSkOwmhMmai+nHGlYoEVDMNALl4YFhlTeY1pMdmSR5gWaYvpBV+IljWU4Ukv2TaqGFpdOUlC2tBpU+556FqZ4CAqPLHr8US1Ahm1dEoayrVw6pxIJcNQsebulA2tJc9mxk/uKZnJs3bYHXeEZKsp9xP8g2nfQtNN8xEo1dlUM7QCGYQkaJd5WXSskeDcUbMTnrjFnl8bDBYoPDfuN6vsH4r9wGTNqWhoXfkyaezcensa1rLWoR4dTcX9AsGAyeAUsD1tJxDUq7RDKqdcXvFTXwZWCy9Kj+PZuL/bLS48241C0gV+uMWZkcQmN2+XfDOqiqE4SlFzY3lb2ZDtSCb2p0l8R6fm4OKh8ebOP/2mgTh+VzTuKoYyjhyf0T/DkPVdXir7w1TqwkIaWu1137URst1+0AzzX224v0cI3ev3vzx+3P/vU/42/man/yvHJZoDO/2TEoLtRaUNuEmrlWi4B+Uaf7JqtVorfQunT+GcPlml/l06XVdrjDyHbTti7LjIH2yK/6bICF/jnyV0+Xxanav6fhyM95uZ9vcZ5eHRWft8z3t58E7jPAH2FwqL82pioG8E1suf9/zVC4N3pWc7NPAS4Tuf/svoSivTNYQAeKgtduLsVRK4nn7o5DvAiuDga2LsJX8GkPxSzHn/1QSdm70ICasneHse5VFvJr0WGnI+63azNbVxKzZaznNi4JcxuZCRAH+drKqTulgwklc/n2mEx2cJ6u/lIf3JtN2VMQJSe+UjBWMfhkJq2EM2xti1vXAx5phila+H6cJVraBZ1dVv2bwymn3F/1pA7MEZV2G/nE7gISeK8RBCV9HBW/LjTNvBoObZPnL6g2Bz7l/kAAAAAAAAAAAAAAAAAAAAAAAAAAAAAAAAAAAAAAAAAAAAAAAAAAAAAAAAAOfn/2uKysj2xKbQAAAAAElFTkSuQmCC;" vertex="1" parent="1">
          <mxGeometry x="485" y="378.5" width="23.5" height="23.5" as="geometry" />
        </mxCell>
        <mxCell id="e4YRFAi6MeH2XxkmIieU-32" value="" style="shape=image;verticalLabelPosition=bottom;verticalAlign=top;aspect=fixed;imageAspect=0;image=data:image/jpeg,/9j/4AAQSkZJRgABAQAAAQABAAD/2wCEAAoHCBYVFRgSFRUYGRgZGBwZHBkcHBgZHBoVGBwaGRoaGBgcIC4mHh8rHxgaJjgmLC8xNTU1HCQ7QDwzPy42NTEBDAwMEA8QHhISHjQhJSsxNDY0NDQ0NDQ3NDQ0NDQ9NDQ0NDQ/NDQ0NDQ0NDE0NDQ0NDQ0NDQ0NDQ0NDQ0NDQ0NP/AABEIAPAA0gMBIgACEQEDEQH/xAAcAAEAAgMBAQEAAAAAAAAAAAAABAYCAwUBBwj/xABEEAACAQIDBQYCCAMFBwUAAAABAgADEQQSIQUxQVFhBhMiMnGBUpEUI0JicoKhsQeSwVOiwtHSM0NUY7Pw8TRzg6Oy/8QAGQEBAAMBAQAAAAAAAAAAAAAAAAECAwQF/8QAJREBAQACAgIBBAIDAAAAAAAAAAECEQMhEjETBEFRYTJxFCJS/9oADAMBAAIRAxEAPwD7NERAREQEREBExJtqZwdo9rMNSuobvGH2U8WvIt5QfUwO/F58/wAX23rNcU6SIODMWc2/CMov7mcTGbYxFTz13t8KnIP7lj8yZPjVLnI+q1MSi73UepA/eZU6isLqwYcwQR8xPiGIw1M+J0Vj8TDN8yZ0uxGPOHxC2JFOq4Qpc5VDeFGCk2Bz29niywmcr7FERIXIiICIiAiIgIiICIiAiIgIiICIiAiJDx+NSihqVGsB7kngAN5J5CBLJlY2x2tp07pS+scaEg+FT1biegv1tKxtnb9XEErqlPggOrD77Df+Eaes5QAEtMfyyy5NekjaO0K2IP1zll+AeFB+UHX3vImQCbLzBwALk2HOX1Iytt9hmms6rqxty5k8gN5PSamxDNpTXT428vsN7ft1mS0QPEbs5Fsx5cgNwHQfrBr8tLIX1cWUbk58i/8Al+/DXjmKozjzIM6/iTxL+oElNNTi4K8DoZVaV9twlUMiuNzKCPQi83yv9hsV3mBw5JuVpim34qfgb9VMsEo6CIiAiIgIiICIiAiIgIiICIiAiIgaqrhVLE2ABJJ4Aakz5jtvajYioahJyC4ReS87fEd5+XCfSsbhhUpvTJIDqVJG8BhbSfHMfhq9Go9Cq4DKbqQls6X0dSWOnTgdPWcdbUz3rpI9JorYlE8zi/LefZRrIwpg+Znb1Nh8lsD7zOlTA0VVUdAB+0vthpsNV38i5B8T7/ZBr87TxMGL5nJcjUZtw9F3e++SESZkSdI21uZg0yaYOdII0O08XSDNdMamVXfQP4Z4m9GtSvqlZmA+7UAe/wDMWl2nyz+HuKyY16Z8tWkLfjQn/CZ9TlG8u49iIhJERAREQEREBERAREQEREBERAThdp9gJi6WXRai606lrlG/qp3EcRO7PDA+I1aTozU6iZHQ5XW99eanipGoP/iZJPofbDs936d9TH11MG24Z03mmx/UHgehM+dob6j/ACPoQdx6S+N2wzx0lIZkZqpNNt5dm1uJqcTewmp1kERmEwA3za4mFpC7DCYs0cThqw0CVlDHd4H8D39jPugnwpcC1c9wo1YWJ4KvFz0F/c2EvmG7aU8Opw1fvHrUmyXVCe8QAFKhY2UFlIvrvDTO2b02x9L1EpVH+IVM+bDYhdf+U2nOy1CZZ9lbUpYhO8pOGXceBVhvVlOqkcjCyfERAREQEREBERAREQEREBERAREQMSJ8x7ZbM7jEd4otTrknTctYasPzAZvUNzn0+cvtBspcTQeiTYkXVvhddVb2IEekWbmnykGxm8GRkzC6OtnRijryddD7cR0Im4PNZXNZpk5mJOkwdwN5kzAbPq1/9mlx8bXVB1zcfQXkZZSeyY2+kBpvwGzamIPgFk41GBy/l+M+mnMiWfA9mKaEGqe9fkRZB6Jx/MT7TvsgAAFunT0nPnzfbF0YcX5cvZ+zEoplRTc2ux1dzzY/sNwlQ7aBBiUCHxmmc45AN4CTz1eWPtB2iTD3poM9Yjwp8I+Jz9lZRKVBizO5zO5LO3Nj+wG4DkJXixyuXktnlJNMGoWUlc2YAkHMb39zYy8fw2rfX4hM3+7pOy8MxNRc3rZQPYSpXCgsxsBqTyE+j9hNjijSasbd5XIdrfZQCyIeoBJPUkcJ0Vnh3drZE8nsq0IiICIiAiIgIiICIiAiIgIiICImuo4UFibAAkk8AN5gUDtxsQrWTEpYLUIp1L3sG3U305nwn1WRsJ2XufHVJ6KuTTlckn9pz+0+3fpjWUkUB5Rqucjc7fuB7+nT2V2mp5FWqWV1ADHKSGIA8QIBGvKUz8pOkTwt/bt4HYlCmQy00JH2m8bezNe06lSottLkysV+1dJQcodyOSsL+hYAfrONiu1eIcZURKQ5nxvb08oPzmMwzyWtxn3XHHbRp0U7yq6ou7xEC55AcT0EqO1+1Lv4MPdU+Nh4jf4VPl9Tr0ErrUszmo7O7/G7Fj+Xgo6C0LVv5Bm+9uQW+8d/tebYcMn8lMuX/lkUCgsTvOZnY3JJ4sTNq1FRc7GwPPT00kNGZ2y00as44hGZFP3VUE+9ieoll2bskUmFSrh8RVqDUMaThE4HInA9TczaWRn4291hsnYT1WFaqMqDyUyNSeDv15Lw3791kobOenrRqGmb30AKE/eTcfUWMmYLFI+isLjepuHHqpsR8p0VQS0kqlyuP6acHtplsuJUJfQVFuUJ+9fye+nWd5SDrOM9G9xwPCc6pj3woCohqI7BEQsF7t2NguZvsHh8J03EWrljrtrhyeXVW2JxMM2NYAuMPT+79ZUPuQVH7yWMUyf7VQBp41N1udPEDquvHUdZntrp0IiJKCIiAiIgIiICIiAiIgJXu2zMMFVychm/9ssBU9smb2lhmFRQQQRcHQjpA+DM9mzEEgqApXWw4i3XnJSDTlLftrsrQOIp0qOaldXqPlN1CCyqqo11S7NfQbkYenp7Ep/xFb/6f9EvjusMtY3W1Jeq17KjMfYD5sRMKtRh5mRL7h52PoNBf5y+r2Ko/aao3q5X9EyzpYTs/Rp+RFU8SBqfVt5k+NV8sXznDbLqVbMEbL8dXRfy0xvPqB6yzdnuzS1mOds6UzlY7gXFiURenEm++wsbkWPH0lp03qHciMx9FBM4+3kqYbY7d1cOaal2XQhqjA1X6HxMb8JXLprx6yW3BYnDKe4ptTUj7ClQfkN86Qn5RxFdVFJ6LVe+8TOTZQr5vB3RU3tl334z9QbGLmhSNTzmmpf8RUXlJWtj3H7Np1gM66jyuNHU81Yag/vxnDw+JdKrYep50AZX4VKZ0D9GB0I567iJaZwu09AZUr7mp1FF+aVGFNlPS7K35BLY3VZ54yxJU3F5F2jhVqIyNuYWuN4PAg8wdfabcM3hnA7R9p1wzd0q5nyhtTZQDcC9tSdDpNrrXbmm99LRsTFGpRUt51JRuroSpI6G2YdDJzoCCCAQRYg7iDvBE+X7A7YutazqpSrVQMAGBUvkphlJJvwJFtdZ9TmFmnXjdx817N7exSbWrbLqMalJQxQsBmRAA6WbewysFN7m/GfS5xNnYemcViaoRc4KU2a3i0po+XNys66ek7ciLUiJGxGKRCqsbFjZRYm50HD1ElCTERAREQEREBERAREQK61O+LqueFOkg9jUY/8A7Hyk60juLYioOaU2/wCov+GSZth6cnL/ACpERLs3P25hy+HrU13tTdR6lSBOjs8JVw6ZlDI9NbqdQVZRoee+eTmbHxH0eocJU0VmLUG4ZSbmnfmCTYcvSZck+7o4cvcY4bsHgKdQVVw65gQygliqsNxCk2FpZ7RPZm3eSv8AbGp9QqDzVK1JVHOzq7f3UY+07ruACSbAaknlKZicZ9LxCsmtGlfI1tHqNoXXmoGgPHM0e7pGV1Np+IxfdU89rklUVfid2CIvS5I14SPtDsZTr+N6r96bZnFsthuUIRYKOHHmTJO1MKz0SqWDqUdL7s6OrqD0JUA+sxobZxDv3K4Xu6mXMS9RCgW9iwyXZteFh6iTyeW5pnxSWXftHwfYTDJdmzu32WZrZDwZAtgGHBt45zdsLtCXorTPjxKu9IqOJpO1M1X+BDlzXPoLmwnKpbWxteuuFWrh6ZdKzZhTdmRaNXuWy/WWZjvF7W5G0uGydmJhqa0qYNhvJ1ZmJuzOeLEkknrKTba6nTLZuE7tbE3djmdrWzOQAT6WAA5AAcJOnM21tHuKRqAZmuFVRclmPQamwuxtwUzDD42oyB1FOqhFwUbKSPuhrqfdhLIdWQtpVSqqdAM4DMRfItj4reoAvwzX4RTxyuGCauoJ7tro1+FwRcAnTNqPWNm1KjJequVrnhl8PC65mseG/hfS9oGeBqllJJvYkBrZcyjc1v0vuNrjQyXEQEREBERAREQERPDA4u0bLiKbXHjRkI4kr4109M8kSlYgNUr1augrU8QchcmyqjWFO41VXTl8d7HdO2naOkule9E7vH5D+GoPCfQkHpNsep25OSy5WR2omqhiUcZkdWB4qQRb2m2WUJrxFBXUo6hlPA/05HrNkRSIdJa9IWSoKijctW+YDl3g1P5gT1mDbWxO76PTB61G/wBE6E8lfCNJy5RwsRha+INsQwyf2SAqp/Gbkv6aDmJ08NhFQAAbt3SSokzGRW53L2xKyDjsK7MtSk4R1BUMVzqVaxKutwSLqDoQdJPMxaLN9UmVl3FV2JsN6GMpVqlbOzGogAXIqowqVXspJuWexJvwEv8AK7XrIlakzMFVc7EsQAAEy3JO7zTs/S0NM1VYMoUtmUgggC5sR6THKSXUdOGVym6gg95iGP2aICjl3rjMx9kKi/32ntfZSkl0ZqTnUslhmPNlIKsepBPWQMDtAqvdomep56hJyotR/GVL2NyM24A2GW9riZ4nH1UUu9SiijUkqzAfmLr+0r5Se2nx5XuNe06GIHdsaiErVphStNlezOoYZu8IClb5tN19OVmld2XiziGpMw0VTVJtlBzZkpHKSSMy5nsTcaSxSUdzqvYiICIiAiIgIiICeGeyJtHHJQptVqNlRBcnpApHaagPpqmk5pu1ItVsAytZlSlnTmfGLggkIOQmzCM5BWoFvuuvlcc8p1Hob7t5mvAU2qM+KdSHrENY70prpTQ+gJY9XadNEnVx42Y9vN585crpx32RTzZ0U034tSY0yfULo3uDJdDF4mnazrWUC1qgCP650GU+mT3EmtTE1MglrhGc5cokYfb6EhKoak50Ae2Un7ri6t6Xv0nXVgdRK3WpKRlZQykaggEH1Eg4d6mHYvRLOgGtAm+n/KY6g/dJsekpcbGuOcy99LpEibNx6V0FRGup9iGGhVgdQQdCDukuRF6SNtDE93Tepa+RGa34QT/SSZE2rSz0aifEjr81Iik9qTjts4lPGa9jxUImQHiAPNb1M5zdrsTVuhqooCFy1NQHsCBYliQu/lIOPxa1UUG2qjwEEsdLkZBqbcpDpdm8RU8YK0lIK5St2Kkg5io8u7d79Jlle+m2ON12zXab1XYVHFQI9lLnMyoyKRZbBc1z595l+7MvfZ+KI3Z64X+UA7vvXPvKPs/YRAVs4s7qL5dLM6optm5W+Vp9Wp7HWhg6mHQkkpUJY2BZ3DEsQNBqd3ASuXrtph3dz+nI2Zs4MatTvKi569W6q9l8Dsg0tp4UG60Y3B0lOTIWsMzsSzuEJyhULEkO7eEWt9o7xN+BZ0VxkbV3qK58KFKpNTMXOigFyCN/hOh0vK2JhO8IqEkorZgSMve1f7TKdQijRB0vwBmMxtvbqucmMkdTZGENNLvbO5zPbcCQAFHRVAHtedKImrEiIgIiICIiAiIgeSldrG7/ABFPCHyU1Fd1+NsxWmrdLqzewl1lIcE4zFOeD00H4VpI4/V2luObykrLnyuOFsS0FplmnnSY9Z3PJZsZgRCmYuTvgR2a4vI9DEKSQCLg2I62vb5EGc/ZeNvnoWZ6iO4KqCzZCxZCeQysupnmCwpGJqO6MhCoQrZdM4KlgFJ3hANevOY+c3JHR8dktvpPw+LGGrh7HJW8LhQSRWUEo4UC5zKCD+FeZljXaKEX8f8AI4/dZU9uI3dsyedBnX8aeNf1FveXrZdYPTV13MoYehF5z83JcMup7dPBjM8e/cQjtBOZ+TX+Vp59PU7lqN6Uqh/wztxaZf5F/Db4cVdfB5iSuHYE72IRL+tzm/SaMZRp0EapiKioqqWKoSWKqCTrbMdBuUA9ZaZwe2JUYSqp0NVRRuN/1pFPQ9AxPtKfLlldLTCY9qZhMGXFCklqbPUFQDKCECsaxUqpF1FguhG8S4bW2u9Kky1EUu4yUypOV6r2VVIOqG7A210B10nJ2Fsk1neqtR6YpgUkZMvm0aobMCrDRF3aFWnm0qbpWao9Z664WmaioVpopxNS6UUBUC7WzbzpnQzbPe9T0cU/13fd7dDZGF+kEo5zUcMVoqn2alWkozu/xBWsoU6XViQdLWyc7YuA7iglK92UXdt2aoxLVHNuLMWPvOjCxERAREQEREBERAREQPJUsQmXE4j7zo/saaLf5oflLaZUttkrjVHCpQuPxUn8X6VVl+O6yjD6ib46yvPGHCAZ7O15bEC2kMZ6DxngECLSJo1TXRM2ZcjquUMwGqsLkAldRbkx5AHWrtUqPXZSmcKiqSL5EzWJtpclm/STGE1sLCZfHj5eTb5srh4fZHxKgqQeKkfMTtdiyTgsMW3mihP8onDxz5Ueodyox+Sky27Jwwp0adMfYRV/lUCcn1f2df0fqpsRNdWsqjMzBRzJAH6zkdjZKT2wx2asmHQ3KeMjeO8ZSEzdFTO7cQMvMSwvtXMD3KGobXzeWn6modGH4c05PYfZ4aiuNqeOtXDOzndlc3ARbeFSoXrYKCTYTTine0ZTc024DbCUcOi08PiXUKMpWk16hOubXdmJzXNt8hKhaphaVRcr4iq+Lqo2/wCqVWRPVGNEf/HLGdnshvQYAf2beT8hGqe11+7Im0HVgpqK9J0bOtTLmVGAIJzLdcpBKkNa4J3G03Rt34nK2BtM16WdlykOyG2qsVNs6HijCxHrbhOrAREQEREBERAREQEREDyV3tYoUUaxsMlUJfmtUGnl/nKH8ssUqv8AEUH6ExW11qUWF+lVJM6u1c5vGxpzTMNNV+E8Z7Tu28fTa5gGY757aSh7aeuBa0wd7SDtHaApJnYFiTlRF1Z3O5VHP9tSdBItkTMbb09rp31anhF4kVKlvs0kYHX8bAL6ZuUvKiUTs539HvHagHq1SGdy4CqAPDTXQnKoJ4am54zrPjMW39lTHMZqh9gQvznm8sy5MtydPW4pjx4ybWa8gY6tQQq1UpmHlzZS2vBb68OEr1XDVXPjr1GHEAimPbIAf1kPFUhSASko72o2RNNWY8WO8gbyZWcN91b5Jeo7r1nxqtTpZqdElkaqRldgDlZaSnUG4ILm1uAO8dzD0FpotNQFVQFVRuCqLAD2EwwGFFKmlIblULfibC1z1MlS8xmPpfZERLIIiICIiAiIgIiICIiAiIgeSsduqoNGnQJ1rV6agcwjd6392mfnLI7gAk6AC5PSfPdoY36TiBiDcUqSstHf4y9g9UjqAAvQk/alsZuqcl1jUutiFUXPQAAEkngABvPSQ8RjHRkNShUUObLcDU6aebQ66A6mWbs/skr9fVH1h8oP+7Q8PxHj8uGvWx2GSojI6hlI1B/70PWaZct3058Ppp49+1N+mWGqVFPMo4HztaYDaF9Ajt6I5/ZZ2dktfC0XfxsyIbnecwvc9bTDZ2Jq1E7xcOSpZgpV08SBiA1mIte0jHm2jL6XX7co067+VAg4Fwf0QEH5kSVs/Y+V+8di72tnb7IO8Ig0QempsLk2nUY1f+HqE9Go/wBXmLVq40GEqH89AD3OeTcpfdTjxXH1G5UEwY3kZ6GOfy06CbvPUdj8kT+s209gVH/9RW0+CiGpg/icksfbLK3OLziyvtDxO0UQmmLu/BF5/ebcu7iZN7M7PBAxjNmeqgK7wtOm1mCIDrfdmJ1JHC1hyKOGTD5qNRcgDsUqHyOhJK3c/bsQDc3Nr6zudmcSvdmmCCEdlUjUFT4hY9M2X8sy8rbqt8eOYzcd6JjmE9kpexEQEREBERAREQEREBERAREQI2Mwq1Uam18rAg2NjY9ZCwmwqVNg/idgbgsQbHmAABfra86sQiyV7MHW4I5iZxCVTTZmJVBh0C5FGRalwCqbvJxYDduH7mwYRQiLTVMqqoVVG4KosAJLiVk0m3bAOJkGE9tFpZBeezy09gYkXmPdDlNkQNfdCZZRMogIiICIiAiIgIiICIiB/9k=;fillColor=#F2CC8F;strokeColor=#E07A5F;fontColor=#393C56;" vertex="1" parent="1">
          <mxGeometry x="409" y="369" width="23.63" height="27" as="geometry" />
        </mxCell>
        <mxCell id="e4YRFAi6MeH2XxkmIieU-33" value="" style="shape=image;verticalLabelPosition=bottom;labelBackgroundColor=default;verticalAlign=top;aspect=fixed;imageAspect=0;image=data:image/png,iVBORw0KGgoAAAANSUhEUgAAAOEAAADhCAMAAAAJbSJIAAAAkFBMVEX/NnD/////Kmr/lbH/M27/FWL/gaL/J2n/I2f/L2z/IWb//f7/+/3/HWT/rsL/7fL/v8//iqj/9vn/prz/P3f/4en/cpf/S37/5u3/ucv/8PT/PHT/WYf/p73/T37/X4r/ep3/aJD/ydf/nrb/2eL/0t7/tcb/3ef/jqr00Nr/vM7v4+b/fqD8haP28PH/zdgnh/oEAAAIdklEQVR4nO2da3uqvBKGIUaToKhVBCvWQz3UdrW7///fbQ7aIgXMEQhv7q/rWiZPQybJZGZi2ZXMTufeLrBaSrgezKdv1Qpsq+Lfphev7yBAYNNKSoEEYNfZzo88CpeH0AHt1ZaFoP5+OmRSOHwf+32kh7wU4pDLxz9qhafARaTpPrMCAe4PJlQKR3P95F0B3olC4dsaN91RfiDujR4pnANdBzAFbfJ29V7hytd4AFMIGFcoXASg6Q6KA/GlVOHS0/sLvYE/h8UKF+tuCIwkfg2LFL6FXREYSRwUKJwE3REYSbz8UTjadsDIZMDjvMIn1HSf5ALJ8V7h1Gm6S7IhwSyrcGLpdJCgA31lFX52axKmOKdfhXPt92pFwHB5U/g/t+nOqAH4N4XTTg5hRP/fVeFTF2dhDP5IFc66OoQWGaQKXzq22GdwVolCr3tr4Q30Eis8ddSSxsB1rNDv0pkij3uKFHZuR5oFXGzr1GmF0LOtcXctaUx/Zu26PA3j7bcVdHetiEHnpnugGtBrugeqIX7TPVBOa6/oDQaDwWAwGAyG/yTwRtMdsRT1JQw2m03geaFFMAakGaEQEgIwgGHoeUl/JP42OCR3jbPVZHn8Pvf2aw/ieuPfIEHICra7w/S0WE5WSXjebCPvD41yoWL26u27tyW4nvjoONQ59MenZS7scLRWqDBhcd5tgOpYVEiwte19F4XGDrfy2i5WGH8ox8OWKIwGh8jbTZcljUtV+FLSSMxxF2IlAwkBXh+KBk/FVzqvUGjbk/HWkT4lCbIGp9IA/EShREtztaXlDL93gdQZCeB2XjF8CTOJzmzQe9BY3N7rxpHVIiCDssmXbVHi1S54etxe9NU8b7CMNgn4WtC0N5M4MciOpsVI4zgUDuuAjk+lL1qUJV5ek23llM+2+iU4jCh4pWzKPkpUCG9xfhSchILF3d2ffIlSXiVGycCQXqG95E9JIZULbx6pd7vuI8t9x4FvBwCdNYUFzTQjM5TLoZ4cCQvfYdeIPZYBjJB6e/1wyc8zCVg/oX7Z3reMkdRIJzJ43GIOn02iU5UGWshMahAJXNMuF79sWST2n5l/X3KYDGIwpldG9BIhZpvnCXO5YTKMpiblk3LZIBblLuYOyWEyiNXUJFyoJBKPaS26MpQcUkl8HoV2z33cDRSseH56IjmkElrsEzFm/DBdDOy4BMrd0cRgdmOXsAirR5Hv84+QnkrIsSKmHCv3VmTN+bMyj04pMOTsiv1UYW6g9aiqRRnP8sPv3YJUdypm+9JRhOSb80dlrxUx4PK42WLKczfRmfc3RwqiYqHFvnG78laSGYcpHFwlKPhIObc1Ka+Frg1M6f0p4ktFmg/55O/Qc4FCsONbYhOUxP3yW1M7Pvb/+YNtBAQu1OSIuLyWPWafsza/ebo8KMpFo/MLl7DM7W0eXIVUM1KVi4bpPX1/Od/ZdxjynCdujFUp5N5DxkzuBhHwbgITHux1RSSKdGuQmTsw5DtQpHyoS/NhctjmmWQiOFxWx9odKtMJMZPLNsf3zyCCLxGBPZV5TGQr0rXbd8p7nE5RtBbeENi6RSvGdU0UWin+rKySgYFI59KFGoYiq47MG6dCSgNPaJgkf34he6VmR5oFWiJ2Pj4SQEtkCA/q0yUBn18xZYkEZ+GijuIIPB74H3wCgYghraX8A9lwH/Zte4WEJvKpnrBPxO2xiRj0Bf7zqq6CcmjK38k3T0ChX1eJkmtpGz4Ezic1Fgoie36Dzz+JT3UWNEZCW2c+lvVWKBHbl/AwkxgvSwX4qFngru7aDxDxO6w5GDZQ9BACEXcgK5LDEigleiIHfjaUOdeqIUFdEhsSGEkMeaJE2HlproQOgSKOfloOTRaygki9ubk0W6kLui8iJ/bHLJuvMO4I+aYeClSTjsMGWIt4bqp5lZbCIQQR8mtU8dVvWtsNd6BiMh69FpUhQ4F8mzpvxxd6gwg5mApY7Ru3oXlckevTP4z2LfpCbwBfnk2dtvOVBrQWuZvP8tzWZ5iAJInn9j7EJGfx/2jrCMYgX8Djf6VWpyE7Qh7/hNY/BYMFPP4xw/J425YALTHXxnP7S+KKRTtN1IU7yQPxBoTH7Nr+jcZwJxjY8Xmw6d5T4XDHpw83LbejV2DAuyhqYGZSHN5bG4mlPNTCOxNf9anw7/I5buq+IRQAcoUjfOgzhNEg8rhttHqkgaagTZ6ZTkPIFaSp2YtFffbTvpJUJnVwJNVq9twNe7biqjUefDrYJ6Jm0zCaiKw3GT29piHHiqg4BF8+zP4a7d5KYU5i1k0ge2ifZqaUo+6SfgpZE061U8hcR8MobB1GoVHYfoxCo7D9GIVGYfsxCo3C9mMUGoXtxyg0CtuPUWgUth+47rGh29VTnAnNRtP9NRgMBoPBYDAYDIYqvKY7oBq4broHqiG7pnugGnCwttoFBTKBp5aGDhIW3IWlXXw1G9i2ltq58VggW9vSLc+BDTyOFEp/oq1NoFGkUK+MKjZiz7ulWVYcG/FTapZWyamMJJmekcLu2pqkwH2ssJHyp3Xgvl8Vvnd0SUxfYYgV2q2vmMJHmpmUKJx1ciZeazknCu1pB80p9GYZhXpUTWEDX18AvSqs7V2F2vh5IPOqsO0VtpgB+2FOYXMVpZWQeev7R6H9RPGGti4Q8lvK6Vfh8EWHKlRUkM27XaAw+lB1KfHzAAKzadZZhXav8FVb3SDeXbWxO4X2uM1FGSlBm/ta+PcK7W9P96Uf558Zzim0J/t2FShmpKCecV6hbZ9Dfbc3yP/7WsNfhfZs3W9vEdgKCO4XlTYqUBgdieeeo9tAgr7//K9ITKHCiOlep4EkDriUvSZSpjCyOWPPRRrsxyHA/W1FgbhyhRFv5137S46se9PKFxX/D1u4ecsSC4EUAAAAAElFTkSuQmCC;" vertex="1" parent="1">
          <mxGeometry x="85.79000000000002" y="1058" width="65.41" height="65.41" as="geometry" />
        </mxCell>
      </root>
    </mxGraphModel>
  </diagram>
</mxfile>
